Giphurs-ThinItalic.ufo
<glyph name="percent" format="2">
  <advance width="1566"/>
  <unicode hex="0025"/>
  <outline>
    <contour>
      <point x="576" y="1450" type="curve" smooth="yes"/>
      <point x="405" y="1447"/>
      <point x="264" y="1318"/>
      <point x="258" y="1126" type="curve" smooth="yes"/>
      <point x="258" y="999"/>
      <point x="344" y="910"/>
      <point x="480" y="910" type="curve" smooth="yes"/>
      <point x="651" y="913"/>
      <point x="792" y="1042"/>
      <point x="798" y="1234" type="curve" smooth="yes"/>
      <point x="798" y="1361"/>
      <point x="712" y="1450"/>
    </contour>
    <contour>
      <point x="213" y="1120" type="curve" smooth="yes"/>
      <point x="213" y="1340"/>
      <point x="388" y="1486"/>
      <point x="583" y="1490" type="curve" smooth="yes"/>
      <point x="740" y="1490"/>
      <point x="843" y="1387"/>
      <point x="843" y="1240" type="curve" smooth="yes"/>
      <point x="843" y="1020"/>
      <point x="668" y="874"/>
      <point x="473" y="870" type="curve" smooth="yes"/>
      <point x="316" y="870"/>
      <point x="213" y="973"/>
    </contour>
    <contour>
      <point x="1127" y="570" type="curve" smooth="yes"/>
      <point x="956" y="567"/>
      <point x="815" y="438"/>
      <point x="809" y="246" type="curve" smooth="yes"/>
      <point x="809" y="119"/>
      <point x="895" y="30"/>
      <point x="1031" y="30" type="curve" smooth="yes"/>
      <point x="1202" y="33"/>
      <point x="1343" y="162"/>
      <point x="1349" y="354" type="curve" smooth="yes"/>
      <point x="1349" y="481"/>
      <point x="1263" y="570"/>
    </contour>
    <contour>
      <point x="764" y="240" type="curve" smooth="yes"/>
      <point x="764" y="460"/>
      <point x="939" y="606"/>
      <point x="1134" y="610" type="curve" smooth="yes"/>
      <point x="1291" y="610"/>
      <point x="1394" y="507"/>
      <point x="1394" y="360" type="curve" smooth="yes"/>
      <point x="1394" y="140"/>
      <point x="1219" y="-6"/>
      <point x="1024" y="-10" type="curve" smooth="yes"/>
      <point x="867" y="-10"/>
      <point x="764" y="93"/>
    </contour>
    <contour>
      <point x="1412" y="1457" type="line"/>
      <point x="228" y="0" type="line"/>
      <point x="195" y="23" type="line"/>
      <point x="1379" y="1480" type="line"/>
    </contour>
  </outline>
</glyph>
<glyph name="ampersand" format="2">
  <advance width="1435"/>
  <unicode hex="0026"/>
  <outline>
    <contour>
      <point x="775" y="1450" type="curve" smooth="yes"/>
      <point x="551" y="1450"/>
      <point x="434" y="1240"/>
      <point x="434" y="1100" type="curve" smooth="yes"/>
      <point x="434" y="1041"/>
      <point x="458" y="979"/>
      <point x="507" y="903" type="curve" smooth="yes"/>
      <point x="1096" y="0" type="line"/>
      <point x="1042" y="0" type="line"/>
      <point x="473" y="875" type="line" smooth="yes"/>
      <point x="437" y="929"/>
      <point x="389" y="1008"/>
      <point x="389" y="1097" type="curve" smooth="yes"/>
      <point x="389" y="1239"/>
      <point x="516" y="1490"/>
      <point x="782" y="1490" type="curve" smooth="yes"/>
      <point x="946" y="1490"/>
      <point x="1060" y="1398"/>
      <point x="1060" y="1239" type="curve" smooth="yes"/>
      <point x="1060" y="1218"/>
      <point x="1058" y="1195"/>
      <point x="1054" y="1172" type="curve"/>
      <point x="1009" y="1172" type="line"/>
      <point x="1013" y="1196"/>
      <point x="1015" y="1218"/>
      <point x="1015" y="1238" type="curve" smooth="yes"/>
      <point x="1015" y="1411"/>
      <point x="870" y="1450"/>
    </contour>
    <contour>
      <point x="525" y="32" type="curve" smooth="yes"/>
      <point x="735" y="32"/>
      <point x="1021" y="163"/>
      <point x="1096" y="586" type="curve"/>
      <point x="1140" y="573" type="line"/>
      <point x="1072" y="185"/>
      <point x="778" y="-10"/>
      <point x="517" y="-10" type="curve" smooth="yes"/>
      <point x="283" y="-10"/>
      <point x="138" y="104"/>
      <point x="138" y="299" type="curve" smooth="yes"/>
      <point x="138" y="580"/>
      <point x="370" y="707"/>
      <point x="595" y="820" type="curve" smooth="yes"/>
      <point x="790" y="918"/>
      <point x="980" y="1005"/>
      <point x="1009" y="1172" type="curve"/>
      <point x="1054" y="1172" type="line"/>
      <point x="985" y="780"/>
      <point x="179" y="795"/>
      <point x="179" y="307" type="curve" smooth="yes"/>
      <point x="179" y="120"/>
      <point x="331" y="32"/>
    </contour>
  </outline>
</glyph>
<glyph name="parenleft" format="2">
  <advance width="801"/>
  <unicode hex="0028"/>
  <outline>
    <contour>
      <point x="867" y="1625" type="line"/>
      <point x="615" y="1529"/>
      <point x="189" y="1052"/>
      <point x="189" y="412" type="curve" smooth="yes"/>
      <point x="189" y="-26"/>
      <point x="417" y="-257"/>
      <point x="527" y="-306" type="curve"/>
      <point x="499" y="-341" type="line"/>
      <point x="394" y="-294"/>
      <point x="143" y="-63"/>
      <point x="143" y="403" type="curve" smooth="yes"/>
      <point x="143" y="1069"/>
      <point x="584" y="1556"/>
      <point x="851" y="1660" type="curve"/>
    </contour>
  </outline>
</glyph>
<glyph name="plus" format="2">
  <advance width="1232"/>
  <unicode hex="002B"/>
  <outline>
    <contour>
      <point x="657" y="1096" type="line"/>
      <point x="701" y="1096" type="line"/>
      <point x="547" y="224" type="line"/>
      <point x="503" y="224" type="line"/>
    </contour>
    <contour>
      <point x="163" y="640" type="line"/>
      <point x="170" y="680" type="line"/>
      <point x="1042" y="680" type="line"/>
      <point x="1035" y="640" type="line"/>
    </contour>
  </outline>
</glyph>
<glyph name="comma" format="2">
  <advance width="500"/>
  <unicode hex="002C"/>
  <outline>
    <contour>
      <point x="59" y="54" type="curve" smooth="yes"/>
      <point x="59" y="90"/>
      <point x="87" y="118"/>
      <point x="123" y="118" type="curve" smooth="yes"/>
      <point x="139" y="118"/>
      <point x="187" y="80"/>
      <point x="187" y="54" type="curve" smooth="yes"/>
      <point x="187" y="18"/>
      <point x="159" y="-10"/>
      <point x="123" y="-10" type="curve" smooth="yes"/>
      <point x="87" y="-10"/>
      <point x="59" y="18"/>
    </contour>
    <contour>
      <point x="2" y="-204" type="line"/>
      <point x="59" y="-189"/>
      <point x="149" y="-118"/>
      <point x="151" y="-11" type="curve" smooth="yes"/>
      <point x="151" y="48"/>
      <point x="115" y="73"/>
      <point x="115" y="73" type="curve"/>
      <point x="123" y="118" type="line"/>
      <point x="173" y="118"/>
      <point x="198" y="66"/>
      <point x="198" y="4" type="curve" smooth="yes"/>
      <point x="198" y="-134"/>
      <point x="88" y="-222"/>
      <point x="7" y="-246" type="curve"/>
    </contour>
  </outline>
</glyph>
<glyph name="three" format="2">
  <advance width="1232"/>
  <unicode hex="0033"/>
  <outline>
    <contour>
      <point x="489" y="32" type="curve" smooth="yes"/>
      <point x="731" y="34"/>
      <point x="963" y="178"/>
      <point x="963" y="455" type="curve" smooth="yes"/>
      <point x="963" y="649"/>
      <point x="785" y="756"/>
      <point x="616" y="756" type="curve" smooth="yes"/>
      <point x="532" y="756" type="line"/>
      <point x="539" y="796" type="line"/>
      <point x="623" y="796" type="line"/>
      <point x="842" y="800"/>
      <point x="1040" y="945"/>
      <point x="1040" y="1187" type="curve" smooth="yes"/>
      <point x="1040" y="1352"/>
      <point x="916" y="1448"/>
      <point x="738" y="1448" type="curve" smooth="yes"/>
      <point x="513" y="1448"/>
      <point x="335" y="1319"/>
      <point x="294" y="1086" type="curve"/>
      <point x="251" y="1099" type="line"/>
      <point x="298" y="1337"/>
      <point x="485" y="1490"/>
      <point x="746" y="1490" type="curve" smooth="yes"/>
      <point x="960" y="1490"/>
      <point x="1087" y="1380"/>
      <point x="1087" y="1201" type="curve" smooth="yes"/>
      <point x="1085" y="946"/>
      <point x="882" y="785"/>
      <point x="758" y="776" type="curve"/>
      <point x="856" y="754"/>
      <point x="1009" y="657"/>
      <point x="1009" y="462" type="curve" smooth="yes"/>
      <point x="1009" y="164"/>
      <point x="767" y="-10"/>
      <point x="481" y="-10" type="curve" smooth="yes"/>
      <point x="246" y="-10"/>
      <point x="100" y="114"/>
      <point x="100" y="312" type="curve" smooth="yes"/>
      <point x="100" y="334"/>
      <point x="101" y="357"/>
      <point x="105" y="381" type="curve"/>
      <point x="153" y="394" type="line"/>
      <point x="148" y="368"/>
      <point x="147" y="344"/>
      <point x="147" y="321" type="curve" smooth="yes"/>
      <point x="147" y="134"/>
      <point x="289" y="32"/>
    </contour>
  </outline>
</glyph>
<glyph name="five" format="2">
  <advance width="1232"/>
  <unicode hex="0035"/>
  <outline>
    <contour>
      <point x="489" y="32" type="curve" smooth="yes"/>
      <point x="773" y="32"/>
      <point x="980" y="278"/>
      <point x="980" y="572" type="curve" smooth="yes"/>
      <point x="980" y="768"/>
      <point x="863" y="934"/>
      <point x="648" y="934" type="curve" smooth="yes"/>
      <point x="401" y="934"/>
      <point x="303" y="797"/>
      <point x="233" y="706" type="curve"/>
      <point x="198" y="718" type="line"/>
      <point x="298" y="877"/>
      <point x="430" y="976"/>
      <point x="655" y="976" type="curve" smooth="yes"/>
      <point x="872" y="976"/>
      <point x="1029" y="820"/>
      <point x="1029" y="585" type="curve" smooth="yes"/>
      <point x="1029" y="232"/>
      <point x="769" y="-7"/>
      <point x="481" y="-10" type="curve" smooth="yes"/>
      <point x="246" y="-10"/>
      <point x="99" y="114"/>
      <point x="99" y="313" type="curve" smooth="yes"/>
      <point x="99" y="335"/>
      <point x="100" y="357"/>
      <point x="104" y="381" type="curve"/>
      <point x="152" y="394" type="line"/>
      <point x="147" y="368"/>
      <point x="146" y="344"/>
      <point x="146" y="321" type="curve" smooth="yes"/>
      <point x="146" y="134"/>
      <point x="289" y="32"/>
    </contour>
    <contour>
      <point x="245" y="751" type="line"/>
      <point x="198" y="718" type="line"/>
      <point x="192" y="720" type="line"/>
      <point x="434" y="1480" type="line"/>
      <point x="479" y="1480" type="line"/>
    </contour>
    <contour>
      <point x="444" y="1438" type="line"/>
      <point x="479" y="1480" type="line"/>
      <point x="1136" y="1480" type="line"/>
      <point x="1129" y="1438" type="line"/>
    </contour>
  </outline>
</glyph>
<glyph name="equal" format="2">
  <advance width="1232"/>
  <unicode hex="003D"/>
  <outline>
    <contour>
      <point x="1067" y="820" type="line"/>
      <point x="1060" y="780" type="line"/>
      <point x="188" y="780" type="line"/>
      <point x="195" y="820" type="line"/>
    </contour>
    <contour>
      <point x="138" y="500" type="line"/>
      <point x="145" y="540" type="line"/>
      <point x="1017" y="540" type="line"/>
      <point x="1010" y="500" type="line"/>
    </contour>
  </outline>
</glyph>
<glyph name="G" format="2">
  <advance width="1482"/>
  <unicode hex="0047"/>
  <anchor x="870" y="1380" name="top_center"/>
  <anchor x="627" y="0" name="bottom_center"/>
  <outline>
    <contour>
      <point x="125" y="566" type="curve" smooth="yes"/>
      <point x="125" y="1096"/>
      <point x="499" y="1490"/>
      <point x="890" y="1490" type="curve" smooth="yes"/>
      <point x="1125" y="1490"/>
      <point x="1299" y="1348"/>
      <point x="1363" y="1120" type="curve"/>
      <point x="1319" y="1097" type="line"/>
      <point x="1253" y="1332"/>
      <point x="1065" y="1448"/>
      <point x="882" y="1448" type="curve" smooth="yes"/>
      <point x="589" y="1448"/>
      <point x="173" y="1114"/>
      <point x="171" y="571" type="curve" smooth="yes"/>
      <point x="171" y="210"/>
      <point x="406" y="32"/>
      <point x="633" y="32" type="curve" smooth="yes"/>
      <point x="816" y="32"/>
      <point x="1046" y="148"/>
      <point x="1194" y="383" type="curve"/>
      <point x="1229" y="360" type="line"/>
      <point x="1085" y="132"/>
      <point x="860" y="-10"/>
      <point x="625" y="-10" type="curve" smooth="yes"/>
      <point x="325" y="-10"/>
      <point x="125" y="221"/>
    </contour>
    <contour>
      <point x="757" y="740" type="line"/>
      <point x="1302" y="740" type="line"/>
      <point x="1172" y="0" type="line"/>
      <point x="1126" y="0" type="line"/>
      <point x="1182" y="316" type="line"/>
      <point x="1188" y="353" type="line"/>
      <point x="1249" y="698" type="line"/>
      <point x="750" y="698" type="line"/>
    </contour>
  </outline>
</glyph>
<glyph name="P" format="2">
  <advance width="1154"/>
  <unicode hex="0050"/>
  <anchor x="-126" y="1040" name="greek_kt"/>
  <anchor x="34" y="1040" name="greek_k"/>
  <anchor x="-87" y="1040" name="greek_t"/>
  <anchor x="91" y="1040" name="greek_v"/>
  <anchor x="73" y="0" name="bottom_center"/>
  <anchor x="696" y="1380" name="top_center"/>
  <outline>
    <contour>
      <point x="584" y="676" type="line" smooth="yes"/>
      <point x="830" y="676"/>
      <point x="1031" y="875"/>
      <point x="1031" y="1127" type="curve" smooth="yes"/>
      <point x="1031" y="1297"/>
      <point x="917" y="1438"/>
      <point x="719" y="1438" type="curve" smooth="yes"/>
      <point x="350" y="1438" type="line"/>
      <point x="215" y="676" type="line"/>
    </contour>
    <contour>
      <point x="1078" y="1139" type="curve" smooth="yes"/>
      <point x="1078" y="830"/>
      <point x="822" y="634"/>
      <point x="577" y="634" type="curve" smooth="yes"/>
      <point x="208" y="634" type="line"/>
      <point x="96" y="0" type="line"/>
      <point x="50" y="0" type="line"/>
      <point x="311" y="1480" type="line"/>
      <point x="726" y="1480" type="line" smooth="yes"/>
      <point x="925" y="1480"/>
      <point x="1078" y="1347"/>
    </contour>
  </outline>
</glyph>
<glyph name="S" format="2">
  <advance width="1175"/>
  <unicode hex="0053"/>
  <anchor x="452" y="-20" name="bottom_cedilla"/>
  <anchor x="699" y="1380" name="top_center"/>
  <anchor x="456" y="0" name="bottom_center"/>
  <outline>
    <contour>
      <point x="238" y="1044" type="curve" smooth="yes"/>
      <point x="238" y="1330"/>
      <point x="437" y="1487"/>
      <point x="719" y="1490" type="curve" smooth="yes"/>
      <point x="952" y="1490"/>
      <point x="1084" y="1377"/>
      <point x="1084" y="1184" type="curve" smooth="yes"/>
      <point x="1084" y="1160"/>
      <point x="1082" y="1135"/>
      <point x="1078" y="1109" type="curve"/>
      <point x="1029" y="1096" type="line"/>
      <point x="1034" y="1124"/>
      <point x="1037" y="1150"/>
      <point x="1037" y="1175" type="curve" smooth="yes"/>
      <point x="1037" y="1356"/>
      <point x="909" y="1448"/>
      <point x="711" y="1448" type="curve" smooth="yes"/>
      <point x="510" y="1448"/>
      <point x="285" y="1338"/>
      <point x="285" y="1061" type="curve" smooth="yes"/>
      <point x="285" y="871"/>
      <point x="461" y="812"/>
      <point x="592" y="769" type="curve" smooth="yes"/>
      <point x="818" y="697"/>
      <point x="975" y="632"/>
      <point x="975" y="436" type="curve" smooth="yes"/>
      <point x="975" y="121"/>
      <point x="749" y="-12"/>
      <point x="454" y="-10" type="curve" smooth="yes"/>
      <point x="219" y="-10"/>
      <point x="72" y="114"/>
      <point x="72" y="313" type="curve" smooth="yes"/>
      <point x="72" y="335"/>
      <point x="73" y="357"/>
      <point x="77" y="381" type="curve"/>
      <point x="125" y="394" type="line"/>
      <point x="120" y="368"/>
      <point x="119" y="344"/>
      <point x="119" y="321" type="curve" smooth="yes"/>
      <point x="119" y="134"/>
      <point x="262" y="32"/>
      <point x="462" y="32" type="curve" smooth="yes"/>
      <point x="674" y="32"/>
      <point x="928" y="130"/>
      <point x="928" y="424" type="curve" smooth="yes"/>
      <point x="928" y="617"/>
      <point x="755" y="666"/>
      <point x="583" y="721" type="curve" smooth="yes"/>
      <point x="361" y="793"/>
      <point x="238" y="871"/>
    </contour>
  </outline>
</glyph>
<glyph name="T" format="2">
  <advance width="1344"/>
  <unicode hex="0054"/>
  <anchor x="785" y="1380" name="top_center"/>
  <anchor x="542" y="0" name="bottom_center"/>
  <anchor x="538" y="-20" name="bottom_cedilla"/>
  <outline>
    <contour>
      <point x="565" y="0" type="line"/>
      <point x="519" y="0" type="line"/>
      <point x="773" y="1438" type="line"/>
      <point x="304" y="1438" type="line"/>
      <point x="311" y="1480" type="line"/>
      <point x="1295" y="1480" type="line"/>
      <point x="1288" y="1438" type="line"/>
      <point x="819" y="1438" type="line"/>
    </contour>
  </outline>
</glyph>
<glyph name="V" format="2">
  <advance width="1310"/>
  <unicode hex="0056"/>
  <anchor x="768" y="1380" name="top_center"/>
  <anchor x="525" y="0" name="bottom_center"/>
  <outline>
    <contour>
      <point x="538" y="72" type="line"/>
      <point x="1272" y="1480" type="line"/>
      <point x="1321" y="1480" type="line"/>
      <point x="550" y="0" type="line"/>
      <point x="500" y="0" type="line"/>
      <point x="251" y="1480" type="line"/>
      <point x="300" y="1480" type="line"/>
    </contour>
  </outline>
</glyph>
<glyph name="Z" format="2">
  <advance width="1258"/>
  <unicode hex="005A"/>
  <anchor x="751" y="1380" name="top_center"/>
  <anchor x="508" y="0" name="bottom_center"/>
  <outline>
    <contour>
      <point x="80" y="0" type="line"/>
      <point x="57" y="38" type="line"/>
      <point x="1161" y="1480" type="line"/>
      <point x="1184" y="1442" type="line"/>
    </contour>
    <contour>
      <point x="81" y="42" type="line"/>
      <point x="955" y="42" type="line"/>
      <point x="948" y="0" type="line"/>
      <point x="50" y="0" type="line"/>
      <point x="57" y="38" type="line"/>
    </contour>
    <contour>
      <point x="329" y="1480" type="line"/>
      <point x="1191" y="1480" type="line"/>
      <point x="1184" y="1442" type="line"/>
      <point x="1159" y="1438" type="line"/>
      <point x="322" y="1438" type="line"/>
    </contour>
  </outline>
</glyph>
<glyph name="backslash" format="2">
  <advance width="862"/>
  <unicode hex="005C"/>
  <outline>
    <contour>
      <point x="249" y="1640" type="line"/>
      <point x="297" y="1640" type="line"/>
      <point x="607" y="-200" type="line"/>
      <point x="559" y="-200" type="line"/>
    </contour>
  </outline>
</glyph>
<glyph name="e" format="2">
  <advance width="1131"/>
  <unicode hex="0065"/>
  <anchor x="444" y="-20" name="bottom_cedilla"/>
  <anchor x="631" y="1040" name="top_center"/>
  <anchor x="448" y="0" name="bottom_center"/>
  <anchor x="551" y="0" name="bottom_right"/>
  <outline>
    <contour>
      <point x="912" y="791" type="curve" smooth="yes"/>
      <point x="912" y="922"/>
      <point x="780" y="1010"/>
      <point x="626" y="1010" type="curve" smooth="yes"/>
      <point x="391" y="1010"/>
      <point x="136" y="749"/>
      <point x="136" y="404" type="curve" smooth="yes"/>
      <point x="136" y="149"/>
      <point x="306" y="30"/>
      <point x="453" y="30" type="curve" smooth="yes"/>
      <point x="599" y="30"/>
      <point x="765" y="108"/>
      <point x="870" y="274" type="curve"/>
      <point x="905" y="252" type="line"/>
      <point x="802" y="90"/>
      <point x="643" y="-10"/>
      <point x="446" y="-10" type="curve" smooth="yes"/>
      <point x="233" y="-10"/>
      <point x="90" y="152"/>
      <point x="90" y="397" type="curve" smooth="yes"/>
      <point x="90" y="729"/>
      <point x="327" y="1050"/>
      <point x="633" y="1050" type="curve" smooth="yes"/>
      <point x="856" y="1050"/>
      <point x="958" y="920"/>
      <point x="958" y="795" type="curve" smooth="yes"/>
      <point x="958" y="782"/>
      <point x="956" y="768"/>
      <point x="954" y="755" type="curve" smooth="yes"/>
      <point x="932" y="630"/>
      <point x="796" y="460"/>
      <point x="369" y="460" type="curve" smooth="yes"/>
      <point x="116" y="460" type="line"/>
      <point x="123" y="500" type="line"/>
      <point x="376" y="500" type="line" smooth="yes"/>
      <point x="747" y="500"/>
      <point x="912" y="637"/>
    </contour>
  </outline>
</glyph>
<glyph name="h" format="2">
  <advance width="1130"/>
  <unicode hex="0068"/>
  <anchor x="69" y="-20" name="bottom_cedilla"/>
  <anchor x="316" y="1380" name="top_center"/>
  <anchor x="435" y="0" name="bottom_center"/>
  <outline>
    <contour>
      <point x="775" y="0" type="line"/>
      <point x="876" y="572" type="line" smooth="yes"/>
      <point x="884" y="620"/>
      <point x="889" y="667"/>
      <point x="889" y="713" type="curve" smooth="yes"/>
      <point x="889" y="876"/>
      <point x="824" y="1010"/>
      <point x="613" y="1010" type="curve" smooth="yes"/>
      <point x="343" y="1010"/>
      <point x="235" y="791"/>
      <point x="196" y="572" type="curve" smooth="yes"/>
      <point x="95" y="0" type="line"/>
      <point x="50" y="0" type="line"/>
      <point x="311" y="1480" type="line"/>
      <point x="356" y="1480" type="line"/>
      <point x="240" y="820" type="line"/>
      <point x="296" y="927"/>
      <point x="400" y="1050"/>
      <point x="630" y="1050" type="curve" smooth="yes"/>
      <point x="827" y="1050"/>
      <point x="935" y="942"/>
      <point x="935" y="724" type="curve" smooth="yes"/>
      <point x="935" y="678"/>
      <point x="931" y="628"/>
      <point x="921" y="572" type="curve" smooth="yes"/>
      <point x="820" y="0" type="line"/>
    </contour>
  </outline>
</glyph>
<glyph name="k" format="2">
  <advance width="1049"/>
  <unicode hex="006B"/>
  <anchor x="319" y="1380" name="top_center"/>
  <anchor x="427" y="0" name="bottom_center"/>
  <outline>
    <contour>
      <point x="427" y="601" type="line"/>
      <point x="463" y="630" type="line"/>
      <point x="799" y="0" type="line"/>
      <point x="747" y="0" type="line"/>
    </contour>
    <contour>
      <point x="155" y="340" type="line"/>
      <point x="95" y="0" type="line"/>
      <point x="50" y="0" type="line"/>
      <point x="311" y="1480" type="line"/>
      <point x="356" y="1480" type="line"/>
      <point x="165" y="398" type="line"/>
      <point x="920" y="1040" type="line"/>
      <point x="978" y="1040" type="line"/>
    </contour>
  </outline>
</glyph>
<glyph name="w" format="2">
  <advance width="1516"/>
  <unicode hex="0077"/>
  <anchor x="811" y="1040" name="top_center"/>
  <anchor x="628" y="0" name="bottom_center"/>
  <outline>
    <contour>
      <point x="298" y="0" type="line"/>
      <point x="173" y="1040" type="line"/>
      <point x="221" y="1040" type="line"/>
      <point x="337" y="89" type="line"/>
      <point x="787" y="1040" type="line"/>
      <point x="835" y="1040" type="line"/>
      <point x="951" y="89" type="line"/>
      <point x="1401" y="1040" type="line"/>
      <point x="1449" y="1040" type="line"/>
      <point x="958" y="0" type="line"/>
      <point x="912" y="0" type="line"/>
      <point x="796" y="960" type="line"/>
      <point x="344" y="0" type="line"/>
    </contour>
  </outline>
</glyph>
<glyph name="braceleft" format="2">
  <advance width="739"/>
  <unicode hex="007B"/>
  <outline>
    <contour>
      <point x="291" y="20" type="line" smooth="yes"/>
      <point x="285" y="-15"/>
      <point x="281" y="-48"/>
      <point x="281" y="-77" type="curve" smooth="yes"/>
      <point x="281" y="-199"/>
      <point x="336" y="-270"/>
      <point x="471" y="-270" type="curve"/>
      <point x="464" y="-310" type="line"/>
      <point x="306" y="-310"/>
      <point x="235" y="-237"/>
      <point x="235" y="-91" type="curve" smooth="yes"/>
      <point x="235" y="-58"/>
      <point x="239" y="-21"/>
      <point x="246" y="20" type="curve" smooth="yes"/>
      <point x="304" y="350" type="line" smooth="yes"/>
      <point x="310" y="385"/>
      <point x="313" y="418"/>
      <point x="313" y="447" type="curve" smooth="yes"/>
      <point x="313" y="569"/>
      <point x="258" y="640"/>
      <point x="123" y="640" type="curve"/>
      <point x="130" y="680" type="line"/>
      <point x="288" y="680"/>
      <point x="360" y="607"/>
      <point x="360" y="461" type="curve" smooth="yes"/>
      <point x="360" y="428"/>
      <point x="356" y="391"/>
      <point x="349" y="350" type="curve" smooth="yes"/>
    </contour>
    <contour>
      <point x="516" y="1300" type="curve" smooth="yes"/>
      <point x="458" y="970" type="line" smooth="yes"/>
      <point x="419" y="750"/>
      <point x="317" y="640"/>
      <point x="123" y="640" type="curve"/>
      <point x="130" y="680" type="line"/>
      <point x="297" y="680"/>
      <point x="381" y="790"/>
      <point x="413" y="970" type="curve" smooth="yes"/>
      <point x="471" y="1300" type="line" smooth="yes"/>
      <point x="510" y="1520"/>
      <point x="612" y="1630"/>
      <point x="806" y="1630" type="curve"/>
      <point x="799" y="1590" type="line"/>
      <point x="632" y="1590"/>
      <point x="548" y="1480"/>
    </contour>
  </outline>
</glyph>
<glyph name="currency" format="2">
  <advance width="1304"/>
  <unicode hex="00A4"/>
  <outline>
    <contour>
      <point x="954" y="926" type="line"/>
      <point x="922" y="958" type="line"/>
      <point x="1132" y="1168" type="line"/>
      <point x="1164" y="1136" type="line"/>
    </contour>
    <contour>
      <point x="350" y="386" type="line"/>
      <point x="382" y="354" type="line"/>
      <point x="172" y="144" type="line"/>
      <point x="140" y="176" type="line"/>
    </contour>
    <contour>
      <point x="922" y="354" type="line"/>
      <point x="954" y="386" type="line"/>
      <point x="1164" y="176" type="line"/>
      <point x="1132" y="144" type="line"/>
    </contour>
    <contour>
      <point x="382" y="958" type="line"/>
      <point x="350" y="926" type="line"/>
      <point x="140" y="1136" type="line"/>
      <point x="172" y="1168" type="line"/>
    </contour>
    <contour>
      <point x="222" y="656" type="curve" smooth="yes"/>
      <point x="222" y="897"/>
      <point x="399" y="1086"/>
      <point x="652" y="1086" type="curve" smooth="yes"/>
      <point x="905" y="1086"/>
      <point x="1082" y="897"/>
      <point x="1082" y="656" type="curve" smooth="yes"/>
      <point x="1082" y="415"/>
      <point x="905" y="226"/>
      <point x="652" y="226" type="curve" smooth="yes"/>
      <point x="399" y="226"/>
      <point x="222" y="415"/>
    </contour>
    <contour>
      <point x="267" y="656" type="curve" smooth="yes"/>
      <point x="267" y="441"/>
      <point x="437" y="266"/>
      <point x="652" y="266" type="curve" smooth="yes"/>
      <point x="867" y="266"/>
      <point x="1037" y="441"/>
      <point x="1037" y="656" type="curve" smooth="yes"/>
      <point x="1037" y="871"/>
      <point x="867" y="1046"/>
      <point x="652" y="1046" type="curve" smooth="yes"/>
      <point x="437" y="1046"/>
      <point x="267" y="871"/>
    </contour>
  </outline>
</glyph>
<glyph name="logicalnot" format="2">
  <advance width="1232"/>
  <unicode hex="00AC"/>
  <outline>
    <contour>
      <point x="1004" y="720" type="line"/>
      <point x="937" y="340" type="line"/>
      <point x="982" y="340" type="line"/>
      <point x="1052" y="740" type="line"/>
    </contour>
    <contour>
      <point x="173" y="700" type="line"/>
      <point x="1027" y="700" type="line"/>
      <point x="1052" y="740" type="line"/>
      <point x="180" y="740" type="line"/>
    </contour>
  </outline>
</glyph>
<glyph name="degree" format="2">
  <advance width="900"/>
  <unicode hex="00B0"/>
  <outline>
    <contour>
      <point x="263" y="1180" type="curve" smooth="yes"/>
      <point x="263" y="1025"/>
      <point x="373" y="910"/>
      <point x="528" y="910" type="curve" smooth="yes"/>
      <point x="683" y="910"/>
      <point x="793" y="1025"/>
      <point x="793" y="1180" type="curve" smooth="yes"/>
      <point x="793" y="1335"/>
      <point x="683" y="1450"/>
      <point x="528" y="1450" type="curve" smooth="yes"/>
      <point x="373" y="1450"/>
      <point x="263" y="1335"/>
    </contour>
    <contour>
      <point x="218" y="1180" type="curve" smooth="yes"/>
      <point x="218" y="1358"/>
      <point x="350" y="1490"/>
      <point x="528" y="1490" type="curve" smooth="yes"/>
      <point x="706" y="1490"/>
      <point x="838" y="1358"/>
      <point x="838" y="1180" type="curve" smooth="yes"/>
      <point x="838" y="1002"/>
      <point x="706" y="870"/>
      <point x="528" y="870" type="curve" smooth="yes"/>
      <point x="350" y="870"/>
      <point x="218" y="1002"/>
    </contour>
  </outline>
</glyph>
<glyph name="two.superior" format="2">
  <advance width="796"/>
  <unicode hex="00B2"/>
  <outline>
    <contour>
      <point x="289" y="1374" type="line"/>
      <point x="289" y="1413"/>
      <point x="354" y="1644"/>
      <point x="558" y="1644" type="curve" smooth="yes"/>
      <point x="674" y="1644"/>
      <point x="744" y="1576"/>
      <point x="744" y="1467" type="curve" smooth="yes"/>
      <point x="744" y="1283"/>
      <point x="600" y="1202"/>
      <point x="465" y="1132" type="curve" smooth="yes"/>
      <point x="185" y="987"/>
      <point x="164" y="877"/>
      <point x="152" y="810" type="curve"/>
      <point x="671" y="810" type="line"/>
      <point x="676" y="840" type="line"/>
      <point x="191" y="840" type="line"/>
      <point x="231" y="976"/>
      <point x="365" y="1044"/>
      <point x="494" y="1116" type="curve" smooth="yes"/>
      <point x="638" y="1196"/>
      <point x="778" y="1282"/>
      <point x="778" y="1474" type="curve" smooth="yes"/>
      <point x="778" y="1603"/>
      <point x="691" y="1674"/>
      <point x="563" y="1674" type="curve" smooth="yes"/>
      <point x="417" y="1674"/>
      <point x="289" y="1561"/>
      <point x="257" y="1382" type="curve"/>
    </contour>
  </outline>
</glyph>
<glyph name="cedilla" format="2">
  <advance width="528"/>
  <unicode hex="00B8"/>
  <outline>
    <contour>
      <point x="242" y="-190" type="curve" smooth="yes"/>
      <point x="242" y="-280"/>
      <point x="158" y="-370"/>
      <point x="59" y="-370" type="curve" smooth="yes"/>
      <point x="-1" y="-370"/>
      <point x="-43" y="-337"/>
      <point x="-61" y="-291" type="curve"/>
      <point x="-20" y="-269" type="line"/>
      <point x="-8" y="-309"/>
      <point x="28" y="-330"/>
      <point x="66" y="-330" type="curve" smooth="yes"/>
      <point x="132" y="-330"/>
      <point x="197" y="-271"/>
      <point x="197" y="-193" type="curve" smooth="yes"/>
      <point x="197" y="-134"/>
      <point x="152" y="-102"/>
      <point x="106" y="-102" type="curve" smooth="yes"/>
      <point x="68" y="-102"/>
      <point x="43" y="-123"/>
      <point x="17" y="-163" type="curve"/>
      <point x="-15" y="-141" type="line"/>
      <point x="19" y="-95"/>
      <point x="53" y="-62"/>
      <point x="113" y="-62" type="curve" smooth="yes"/>
      <point x="193" y="-62"/>
      <point x="242" y="-121"/>
    </contour>
    <contour>
      <point x="88" y="0" type="line"/>
      <point x="130" y="0" type="line"/>
      <point x="23" y="-136" type="line"/>
      <point x="17" y="-163" type="line"/>
      <point x="-15" y="-141" type="line"/>
    </contour>
  </outline>
</glyph>
<glyph name="questiondown" format="2">
  <advance width="1063"/>
  <unicode hex="00BF"/>
  <outline>
    <contour>
      <point x="767" y="7" type="line"/>
      <point x="767" y="-123"/>
      <point x="605" y="-410"/>
      <point x="333" y="-410" type="curve" smooth="yes"/>
      <point x="119" y="-410"/>
      <point x="24" y="-271"/>
      <point x="24" y="-114" type="curve" smooth="yes"/>
      <point x="24" y="92"/>
      <point x="187" y="330"/>
      <point x="463" y="330" type="curve"/>
      <point x="470" y="370" type="line"/>
      <point x="161" y="370"/>
      <point x="-25" y="106"/>
      <point x="-25" y="-123" type="curve" smooth="yes"/>
      <point x="-25" y="-297"/>
      <point x="83" y="-450"/>
      <point x="326" y="-450" type="curve" smooth="yes"/>
      <point x="544" y="-450"/>
      <point x="763" y="-286"/>
      <point x="812" y="-6" type="curve"/>
    </contour>
    <contour>
      <point x="639" y="986" type="curve" smooth="yes"/>
      <point x="639" y="950"/>
      <point x="611" y="922"/>
      <point x="575" y="922" type="curve" smooth="yes"/>
      <point x="539" y="922"/>
      <point x="511" y="950"/>
      <point x="511" y="986" type="curve" smooth="yes"/>
      <point x="511" y="1022"/>
      <point x="539" y="1050"/>
      <point x="575" y="1050" type="curve" smooth="yes"/>
      <point x="611" y="1050"/>
      <point x="639" y="1022"/>
    </contour>
    <contour>
      <point x="532" y="588" type="line"/>
      <point x="486" y="588" type="line"/>
      <point x="440" y="330" type="line"/>
      <point x="486" y="330" type="line"/>
    </contour>
  </outline>
</glyph>
<glyph name="Thorn" format="2">
  <advance width="1154"/>
  <unicode hex="00DE"/>
  <outline>
    <contour>
      <point x="528" y="359" type="line" smooth="yes"/>
      <point x="780" y="359"/>
      <point x="974" y="585"/>
      <point x="974" y="810" type="curve" smooth="yes"/>
      <point x="974" y="980"/>
      <point x="861" y="1121"/>
      <point x="663" y="1121" type="curve" smooth="yes"/>
      <point x="294" y="1121" type="line"/>
      <point x="159" y="359" type="line"/>
    </contour>
    <contour>
      <point x="1021" y="822" type="curve" smooth="yes"/>
      <point x="1021" y="550"/>
      <point x="790" y="317"/>
      <point x="521" y="317" type="curve" smooth="yes"/>
      <point x="152" y="317" type="line"/>
      <point x="96" y="0" type="line"/>
      <point x="50" y="0" type="line"/>
      <point x="311" y="1480" type="line"/>
      <point x="357" y="1480" type="line"/>
      <point x="301" y="1163" type="line"/>
      <point x="670" y="1163" type="line" smooth="yes"/>
      <point x="869" y="1163"/>
      <point x="1021" y="1030"/>
    </contour>
  </outline>
</glyph>
<glyph name="dcaron" format="2">
  <advance width="1422"/>
  <unicode hex="010F"/>
  <outline>
    <contour>
      <point x="1283" y="1426" type="curve" smooth="yes"/>
      <point x="1283" y="1462"/>
      <point x="1311" y="1490"/>
      <point x="1347" y="1490" type="curve" smooth="yes"/>
      <point x="1363" y="1490"/>
      <point x="1411" y="1452"/>
      <point x="1411" y="1426" type="curve" smooth="yes"/>
      <point x="1411" y="1390"/>
      <point x="1383" y="1362"/>
      <point x="1347" y="1362" type="curve" smooth="yes"/>
      <point x="1311" y="1362"/>
      <point x="1283" y="1390"/>
    </contour>
    <contour>
      <point x="1226" y="1168" type="line"/>
      <point x="1283" y="1183"/>
      <point x="1373" y="1254"/>
      <point x="1375" y="1361" type="curve" smooth="yes"/>
      <point x="1375" y="1420"/>
      <point x="1339" y="1445"/>
      <point x="1339" y="1445" type="curve"/>
      <point x="1347" y="1490" type="line"/>
      <point x="1397" y="1490"/>
      <point x="1422" y="1438"/>
      <point x="1422" y="1376" type="curve" smooth="yes"/>
      <point x="1422" y="1238"/>
      <point x="1312" y="1150"/>
      <point x="1231" y="1126" type="curve"/>
    </contour>
    <contour>
      <point x="435" y="30" type="curve" smooth="yes"/>
      <point x="635" y="30"/>
      <point x="909" y="272"/>
      <point x="909" y="648" type="curve" smooth="yes"/>
      <point x="909" y="895"/>
      <point x="759" y="1010"/>
      <point x="608" y="1010" type="curve" smooth="yes"/>
      <point x="408" y="1010"/>
      <point x="135" y="768"/>
      <point x="135" y="392" type="curve" smooth="yes"/>
      <point x="135" y="145"/>
      <point x="284" y="30"/>
    </contour>
    <contour>
      <point x="89" y="387" type="curve" smooth="yes"/>
      <point x="89" y="764"/>
      <point x="334" y="1050"/>
      <point x="615" y="1050" type="curve" smooth="yes"/>
      <point x="815" y="1050"/>
      <point x="924" y="896"/>
      <point x="935" y="780" type="curve"/>
      <point x="1058" y="1480" type="line"/>
      <point x="1103" y="1480" type="line"/>
      <point x="879" y="208" type="line" smooth="yes"/>
      <point x="870" y="159"/>
      <point x="868" y="107"/>
      <point x="868" y="67" type="curve" smooth="yes"/>
      <point x="868" y="27"/>
      <point x="870" y="0"/>
      <point x="870" y="0" type="curve"/>
      <point x="825" y="0" type="line"/>
      <point x="825" y="0"/>
      <point x="824" y="17"/>
      <point x="824" y="47" type="curve" smooth="yes"/>
      <point x="824" y="93"/>
      <point x="827" y="169"/>
      <point x="843" y="260" type="curve"/>
      <point x="792" y="144"/>
      <point x="638" y="-10"/>
      <point x="428" y="-10" type="curve" smooth="yes"/>
      <point x="218" y="-10"/>
      <point x="89" y="148"/>
    </contour>
  </outline>
</glyph>
<glyph name="Lcaron" format="2">
  <advance width="1176"/>
  <unicode hex="013D"/>
  <outline>
    <contour>
      <point x="571" y="1120" type="line"/>
      <point x="533" y="1120" type="line"/>
      <point x="661" y="1480" type="line"/>
      <point x="711" y="1480" type="line"/>
    </contour>
    <contour>
      <point x="357" y="1480" type="line"/>
      <point x="103" y="42" type="line"/>
      <point x="873" y="42" type="line"/>
      <point x="866" y="0" type="line"/>
      <point x="50" y="0" type="line"/>
      <point x="311" y="1480" type="line"/>
    </contour>
  </outline>
</glyph>
<glyph name="lcaron" format="2">
  <advance width="675"/>
  <unicode hex="013E"/>
  <outline>
    <contour>
      <point x="536" y="1426" type="curve" smooth="yes"/>
      <point x="536" y="1462"/>
      <point x="564" y="1490"/>
      <point x="600" y="1490" type="curve" smooth="yes"/>
      <point x="616" y="1490"/>
      <point x="664" y="1452"/>
      <point x="664" y="1426" type="curve" smooth="yes"/>
      <point x="664" y="1390"/>
      <point x="636" y="1362"/>
      <point x="600" y="1362" type="curve" smooth="yes"/>
      <point x="564" y="1362"/>
      <point x="536" y="1390"/>
    </contour>
    <contour>
      <point x="479" y="1168" type="line"/>
      <point x="536" y="1183"/>
      <point x="626" y="1254"/>
      <point x="628" y="1361" type="curve" smooth="yes"/>
      <point x="628" y="1420"/>
      <point x="592" y="1445"/>
      <point x="592" y="1445" type="curve"/>
      <point x="600" y="1490" type="line"/>
      <point x="650" y="1490"/>
      <point x="675" y="1438"/>
      <point x="675" y="1376" type="curve" smooth="yes"/>
      <point x="675" y="1238"/>
      <point x="565" y="1150"/>
      <point x="484" y="1126" type="curve"/>
    </contour>
    <contour>
      <point x="136" y="230" type="line" smooth="yes"/>
      <point x="132" y="210"/>
      <point x="130" y="191"/>
      <point x="130" y="175" type="curve" smooth="yes"/>
      <point x="130" y="38"/>
      <point x="245" y="30"/>
      <point x="292" y="30" type="curve" smooth="yes"/>
      <point x="306" y="30"/>
      <point x="334" y="36"/>
      <point x="369" y="56" type="curve"/>
      <point x="372" y="14" type="line"/>
      <point x="344" y="-3"/>
      <point x="313" y="-10"/>
      <point x="285" y="-10" type="curve" smooth="yes"/>
      <point x="157" y="-10"/>
      <point x="84" y="41"/>
      <point x="84" y="162" type="curve" smooth="yes"/>
      <point x="84" y="183"/>
      <point x="87" y="205"/>
      <point x="91" y="230" type="curve" smooth="yes"/>
      <point x="311" y="1480" type="line"/>
      <point x="356" y="1480" type="line"/>
    </contour>
  </outline>
</glyph>
<glyph name="Tbar" format="2">
  <advance width="1344"/>
  <unicode hex="0166"/>
  <outline>
    <contour>
      <point x="932" y="719" type="line"/>
      <point x="406" y="719" type="line"/>
      <point x="413" y="761" type="line"/>
      <point x="939" y="761" type="line"/>
    </contour>
    <contour>
      <point x="565" y="0" type="line"/>
      <point x="519" y="0" type="line"/>
      <point x="773" y="1438" type="line"/>
      <point x="304" y="1438" type="line"/>
      <point x="311" y="1480" type="line"/>
      <point x="1295" y="1480" type="line"/>
      <point x="1288" y="1438" type="line"/>
      <point x="819" y="1438" type="line"/>
    </contour>
  </outline>
</glyph>
<glyph name="uni0187" format="2">
  <advance width="1548"/>
  <unicode hex="0187"/>
  <outline>
    <contour>
      <point x="1669" y="1490" type="curve" smooth="yes"/>
      <point x="1673" y="1490"/>
      <point x="1677" y="1490"/>
      <point x="1681" y="1489" type="curve"/>
      <point x="1673" y="1449" type="line"/>
      <point x="1669" y="1450"/>
      <point x="1666" y="1450"/>
      <point x="1662" y="1450" type="curve" smooth="yes"/>
      <point x="1507" y="1450"/>
      <point x="1376" y="1335"/>
      <point x="1349" y="1180" type="curve" smooth="yes"/>
      <point x="1348" y="1176"/>
      <point x="1348" y="1170"/>
      <point x="1348" y="1166" type="curve"/>
      <point x="1303" y="1166" type="line"/>
      <point x="1303" y="1170"/>
      <point x="1303" y="1176"/>
      <point x="1304" y="1180" type="curve" smooth="yes"/>
      <point x="1335" y="1358"/>
      <point x="1491" y="1490"/>
    </contour>
    <contour>
      <point x="124" y="567" type="curve" smooth="yes"/>
      <point x="124" y="1039"/>
      <point x="463" y="1490"/>
      <point x="890" y="1490" type="curve" smooth="yes"/>
      <point x="1125" y="1490"/>
      <point x="1299" y="1348"/>
      <point x="1363" y="1120" type="curve"/>
      <point x="1319" y="1097" type="line"/>
      <point x="1253" y="1332"/>
      <point x="1065" y="1448"/>
      <point x="882" y="1448" type="curve" smooth="yes"/>
      <point x="525" y="1448"/>
      <point x="170" y="1057"/>
      <point x="170" y="571" type="curve" smooth="yes"/>
      <point x="170" y="209"/>
      <point x="406" y="32"/>
      <point x="633" y="32" type="curve" smooth="yes"/>
      <point x="816" y="32"/>
      <point x="1046" y="148"/>
      <point x="1194" y="383" type="curve"/>
      <point x="1229" y="360" type="line"/>
      <point x="1085" y="132"/>
      <point x="860" y="-10"/>
      <point x="625" y="-10" type="curve" smooth="yes"/>
      <point x="325" y="-10"/>
      <point x="124" y="222"/>
    </contour>
  </outline>
</glyph>
<glyph name="uni018C" format="2">
  <advance width="1152"/>
  <unicode hex="018C"/>
  <outline>
    <contour>
      <point x="344" y="1438" type="line"/>
      <point x="1051" y="1438" type="line"/>
      <point x="1058" y="1480" type="line"/>
      <point x="351" y="1480" type="line"/>
    </contour>
    <contour>
      <point x="909" y="648" type="curve" smooth="yes"/>
      <point x="909" y="272"/>
      <point x="635" y="30"/>
      <point x="435" y="30" type="curve" smooth="yes"/>
      <point x="284" y="30"/>
      <point x="135" y="145"/>
      <point x="135" y="392" type="curve" smooth="yes"/>
      <point x="135" y="768"/>
      <point x="408" y="1010"/>
      <point x="608" y="1010" type="curve" smooth="yes"/>
      <point x="759" y="1010"/>
      <point x="909" y="895"/>
    </contour>
    <contour>
      <point x="615" y="1050" type="curve" smooth="yes"/>
      <point x="334" y="1050"/>
      <point x="89" y="764"/>
      <point x="89" y="387" type="curve" smooth="yes"/>
      <point x="89" y="148"/>
      <point x="218" y="-10"/>
      <point x="428" y="-10" type="curve" smooth="yes"/>
      <point x="638" y="-10"/>
      <point x="792" y="144"/>
      <point x="843" y="260" type="curve"/>
      <point x="827" y="169"/>
      <point x="824" y="93"/>
      <point x="824" y="47" type="curve" smooth="yes"/>
      <point x="824" y="17"/>
      <point x="825" y="0"/>
      <point x="825" y="0" type="curve"/>
      <point x="870" y="0" type="line"/>
      <point x="870" y="0"/>
      <point x="868" y="27"/>
      <point x="868" y="67" type="curve" smooth="yes"/>
      <point x="868" y="107"/>
      <point x="870" y="159"/>
      <point x="879" y="208" type="curve" smooth="yes"/>
      <point x="1103" y="1480" type="line"/>
      <point x="1058" y="1480" type="line"/>
      <point x="935" y="780" type="line"/>
      <point x="924" y="896"/>
      <point x="815" y="1050"/>
    </contour>
  </outline>
</glyph>
<glyph name="uni0190" format="2">
  <advance width="1176"/>
  <unicode hex="0190"/>
  <anchor x="572" y="0" name="bottom_right"/>
  <anchor x="457" y="-20" name="bottom_cedilla"/>
  <anchor x="461" y="0" name="bottom_center"/>
  <anchor x="704" y="1380" name="top_center"/>
  <outline>
    <contour>
      <point x="119" y="323" type="curve" smooth="yes"/>
      <point x="119" y="597"/>
      <point x="386" y="756"/>
      <point x="594" y="756" type="curve" smooth="yes"/>
      <point x="678" y="756" type="line"/>
      <point x="685" y="796" type="line"/>
      <point x="601" y="796" type="line" smooth="yes"/>
      <point x="423" y="796"/>
      <point x="301" y="900"/>
      <point x="301" y="1061" type="curve" smooth="yes"/>
      <point x="301" y="1257"/>
      <point x="458" y="1448"/>
      <point x="716" y="1448" type="curve" smooth="yes"/>
      <point x="914" y="1448"/>
      <point x="1039" y="1349"/>
      <point x="1039" y="1167" type="curve" smooth="yes"/>
      <point x="1039" y="1142"/>
      <point x="1037" y="1114"/>
      <point x="1032" y="1086" type="curve"/>
      <point x="1081" y="1099" type="line"/>
      <point x="1085" y="1125"/>
      <point x="1087" y="1151"/>
      <point x="1087" y="1175" type="curve" smooth="yes"/>
      <point x="1087" y="1369"/>
      <point x="956" y="1490"/>
      <point x="724" y="1490" type="curve" smooth="yes"/>
      <point x="419" y="1490"/>
      <point x="254" y="1272"/>
      <point x="254" y="1048" type="curve" smooth="yes"/>
      <point x="254" y="876"/>
      <point x="366" y="788"/>
      <point x="460" y="776" type="curve"/>
      <point x="299" y="743"/>
      <point x="72" y="577"/>
      <point x="72" y="313" type="curve" smooth="yes"/>
      <point x="72" y="114"/>
      <point x="224" y="-10"/>
      <point x="459" y="-10" type="curve" smooth="yes"/>
      <point x="720" y="-10"/>
      <point x="926" y="143"/>
      <point x="973" y="381" type="curve"/>
      <point x="929" y="394" type="line"/>
      <point x="888" y="161"/>
      <point x="692" y="32"/>
      <point x="467" y="32" type="curve" smooth="yes"/>
      <point x="266" y="32"/>
      <point x="119" y="135"/>
    </contour>
  </outline>
</glyph>
<glyph name="uni0198" format="2">
  <advance width="1338"/>
  <unicode hex="0198"/>
  <outline>
    <contour>
      <point x="516" y="807" type="line"/>
      <point x="552" y="841" type="line"/>
      <point x="1068" y="0" type="line"/>
      <point x="1014" y="0" type="line"/>
    </contour>
    <contour>
      <point x="258" y="1180" type="line"/>
      <point x="289" y="1358"/>
      <point x="446" y="1490"/>
      <point x="624" y="1490" type="curve" smooth="yes"/>
      <point x="628" y="1490"/>
      <point x="632" y="1490"/>
      <point x="636" y="1489" type="curve"/>
      <point x="628" y="1449" type="line"/>
      <point x="624" y="1450"/>
      <point x="621" y="1450"/>
      <point x="617" y="1450" type="curve" smooth="yes"/>
      <point x="462" y="1450"/>
      <point x="331" y="1335"/>
      <point x="304" y="1180" type="curve"/>
      <point x="196" y="568" type="line"/>
      <point x="1269" y="1480" type="line"/>
      <point x="1322" y="1480"/>
      <point x="1276" y="1480"/>
      <point x="1329" y="1480" type="curve"/>
      <point x="186" y="508" type="line"/>
      <point x="96" y="0" type="line"/>
      <point x="50" y="0" type="line"/>
    </contour>
  </outline>
</glyph>
<glyph name="uni019C" format="2">
  <advance width="1710"/>
  <unicode hex="019C"/>
  <anchor x="962" y="1380" name="top_center"/>
  <anchor x="719" y="0" name="bottom_center"/>
  <outline>
    <contour>
      <point x="1425" y="208" type="line" smooth="yes"/>
      <point x="1416" y="159"/>
      <point x="1414" y="107"/>
      <point x="1414" y="67" type="curve" smooth="yes"/>
      <point x="1414" y="27"/>
      <point x="1416" y="0"/>
      <point x="1416" y="0" type="curve"/>
      <point x="1371" y="0" type="line"/>
      <point x="1371" y="0"/>
      <point x="1370" y="17"/>
      <point x="1370" y="47" type="curve" smooth="yes"/>
      <point x="1370" y="93"/>
      <point x="1370" y="166"/>
      <point x="1381" y="220" type="curve"/>
      <point x="1325" y="113"/>
      <point x="1250" y="-10"/>
      <point x="1030" y="-10" type="curve" smooth="yes"/>
      <point x="849" y="-10"/>
      <point x="762" y="89"/>
      <point x="762" y="291" type="curve" smooth="yes"/>
      <point x="762" y="343"/>
      <point x="768" y="402"/>
      <point x="779" y="468" type="curve"/>
      <point x="957" y="1480" type="line"/>
      <point x="1003" y="1480" type="line"/>
      <point x="825" y="468" type="line" smooth="yes"/>
      <point x="815" y="411"/>
      <point x="808" y="355"/>
      <point x="808" y="302" type="curve" smooth="yes"/>
      <point x="808" y="151"/>
      <point x="863" y="32"/>
      <point x="1048" y="32" type="curve" smooth="yes"/>
      <point x="1298" y="32"/>
      <point x="1386" y="249"/>
      <point x="1425" y="468" type="curve" smooth="yes"/>
      <point x="1603" y="1480" type="line"/>
      <point x="1649" y="1480" type="line"/>
    </contour>
    <contour>
      <point x="825" y="468" type="line"/>
      <point x="769" y="148"/>
      <point x="612" y="-10"/>
      <point x="384" y="-10" type="curve" smooth="yes"/>
      <point x="203" y="-10"/>
      <point x="116" y="89"/>
      <point x="116" y="291" type="curve" smooth="yes"/>
      <point x="116" y="343"/>
      <point x="122" y="402"/>
      <point x="133" y="468" type="curve"/>
      <point x="311" y="1480" type="line"/>
      <point x="357" y="1480" type="line"/>
      <point x="179" y="468" type="line" smooth="yes"/>
      <point x="169" y="411"/>
      <point x="162" y="355"/>
      <point x="162" y="302" type="curve" smooth="yes"/>
      <point x="162" y="151"/>
      <point x="217" y="32"/>
      <point x="402" y="32" type="curve" smooth="yes"/>
      <point x="622" y="32"/>
      <point x="740" y="249"/>
      <point x="779" y="468" type="curve"/>
    </contour>
  </outline>
</glyph>
<glyph name="uni019F" format="2">
  <advance width="1514"/>
  <unicode hex="019F"/>
  <anchor x="870" y="1380" name="top_center"/>
  <anchor x="1398" y="1480" name="top_right"/>
  <anchor x="627" y="0" name="bottom_center"/>
  <anchor x="733" y="0" name="bottom_right"/>
  <outline>
    <contour>
      <point x="1351" y="719" type="line"/>
      <point x="161" y="719" type="line"/>
      <point x="168" y="761" type="line"/>
      <point x="1358" y="761" type="line"/>
    </contour>
    <contour>
      <point x="882" y="1448" type="curve" smooth="yes"/>
      <point x="525" y="1448"/>
      <point x="170" y="1057"/>
      <point x="170" y="571" type="curve" smooth="yes"/>
      <point x="170" y="209"/>
      <point x="406" y="32"/>
      <point x="633" y="32" type="curve" smooth="yes"/>
      <point x="991" y="32"/>
      <point x="1344" y="423"/>
      <point x="1344" y="909" type="curve" smooth="yes"/>
      <point x="1344" y="1270"/>
      <point x="1109" y="1448"/>
    </contour>
    <contour>
      <point x="124" y="567" type="curve" smooth="yes"/>
      <point x="124" y="1039"/>
      <point x="463" y="1490"/>
      <point x="890" y="1490" type="curve" smooth="yes"/>
      <point x="1190" y="1490"/>
      <point x="1390" y="1259"/>
      <point x="1390" y="914" type="curve" smooth="yes"/>
      <point x="1390" y="443"/>
      <point x="1052" y="-10"/>
      <point x="625" y="-10" type="curve" smooth="yes"/>
      <point x="325" y="-10"/>
      <point x="124" y="222"/>
    </contour>
  </outline>
</glyph>
<glyph name="uni01A3" format="2">
  <advance width="1427"/>
  <unicode hex="01A3"/>
  <outline>
    <contour>
      <point x="952" y="833" type="curve"/>
      <point x="944" y="791" type="line"/>
      <point x="1087" y="791"/>
      <point x="1199" y="885"/>
      <point x="1273" y="1002" type="curve"/>
      <point x="1256" y="1045" type="line"/>
      <point x="1195" y="939"/>
      <point x="1066" y="833"/>
    </contour>
    <contour>
      <point x="1000" y="-410" type="line"/>
      <point x="1045" y="-410" type="line"/>
      <point x="1301" y="1045" type="line"/>
      <point x="1256" y="1045" type="line"/>
    </contour>
    <contour>
      <point x="832" y="253" type="line"/>
      <point x="877" y="254" type="line"/>
      <point x="973" y="802" type="line"/>
      <point x="928" y="802" type="line"/>
    </contour>
    <contour>
      <point x="633" y="1050" type="curve" smooth="yes"/>
      <point x="327" y="1050"/>
      <point x="91" y="729"/>
      <point x="91" y="397" type="curve" smooth="yes"/>
      <point x="91" y="152"/>
      <point x="233" y="-10"/>
      <point x="446" y="-10" type="curve" smooth="yes"/>
      <point x="614" y="-10"/>
      <point x="774" y="91"/>
      <point x="877" y="254" type="curve"/>
      <point x="856" y="300" type="line"/>
      <point x="753" y="116"/>
      <point x="579" y="30"/>
      <point x="453" y="30" type="curve" smooth="yes"/>
      <point x="306" y="30"/>
      <point x="136" y="149"/>
      <point x="136" y="404" type="curve" smooth="yes"/>
      <point x="136" y="750"/>
      <point x="391" y="1010"/>
      <point x="626" y="1010" type="curve" smooth="yes"/>
      <point x="755" y="1010"/>
      <point x="901" y="919"/>
      <point x="936" y="726" type="curve"/>
      <point x="971" y="786" type="line"/>
      <point x="926" y="949"/>
      <point x="801" y="1050"/>
    </contour>
  </outline>
</glyph>
<glyph name="uni01A4" format="2">
  <advance width="1284"/>
  <unicode hex="01A4"/>
  <outline>
    <contour>
      <point x="120" y="1158" type="curve"/>
      <point x="75" y="1158" type="line"/>
      <point x="75" y="1162"/>
      <point x="75" y="1166"/>
      <point x="76" y="1170" type="curve" smooth="yes"/>
      <point x="107" y="1348"/>
      <point x="263" y="1480"/>
      <point x="441" y="1480" type="curve" smooth="yes"/>
      <point x="445" y="1480"/>
      <point x="449" y="1480"/>
      <point x="453" y="1479" type="curve"/>
      <point x="446" y="1439" type="line"/>
      <point x="442" y="1440"/>
      <point x="438" y="1440"/>
      <point x="434" y="1440" type="curve" smooth="yes"/>
      <point x="279" y="1440"/>
      <point x="148" y="1325"/>
      <point x="121" y="1170" type="curve" smooth="yes"/>
      <point x="120" y="1166"/>
      <point x="120" y="1162"/>
    </contour>
    <contour>
      <point x="714" y="676" type="line" smooth="yes"/>
      <point x="966" y="676"/>
      <point x="1160" y="902"/>
      <point x="1160" y="1127" type="curve" smooth="yes"/>
      <point x="1160" y="1297"/>
      <point x="1047" y="1438"/>
      <point x="849" y="1438" type="curve" smooth="yes"/>
      <point x="480" y="1438" type="line"/>
      <point x="345" y="676" type="line"/>
    </contour>
    <contour>
      <point x="1207" y="1139" type="curve" smooth="yes"/>
      <point x="1207" y="867"/>
      <point x="976" y="634"/>
      <point x="707" y="634" type="curve" smooth="yes"/>
      <point x="338" y="634" type="line"/>
      <point x="226" y="0" type="line"/>
      <point x="180" y="0" type="line"/>
      <point x="441" y="1480" type="line"/>
      <point x="856" y="1480" type="line" smooth="yes"/>
      <point x="1055" y="1480"/>
      <point x="1207" y="1347"/>
    </contour>
  </outline>
</glyph>
<glyph name="uni01A5" format="2">
  <advance width="1152"/>
  <unicode hex="01A5"/>
  <outline>
    <contour>
      <point x="640" y="1010" type="curve" smooth="yes"/>
      <point x="385" y="1010"/>
      <point x="167" y="722"/>
      <point x="167" y="392" type="curve" smooth="yes"/>
      <point x="167" y="145"/>
      <point x="316" y="30"/>
      <point x="467" y="30" type="curve" smooth="yes"/>
      <point x="722" y="30"/>
      <point x="941" y="316"/>
      <point x="941" y="647" type="curve" smooth="yes"/>
      <point x="941" y="895"/>
      <point x="791" y="1010"/>
    </contour>
    <contour>
      <point x="986" y="653" type="curve" smooth="yes"/>
      <point x="986" y="331"/>
      <point x="775" y="-10"/>
      <point x="460" y="-10" type="curve" smooth="yes"/>
      <point x="260" y="-10"/>
      <point x="152" y="144"/>
      <point x="141" y="260" type="curve"/>
      <point x="17" y="-440" type="line"/>
      <point x="-28" y="-440" type="line"/>
      <point x="258" y="1180" type="line" smooth="yes"/>
      <point x="289" y="1358"/>
      <point x="445" y="1490"/>
      <point x="623" y="1490" type="curve" smooth="yes"/>
      <point x="627" y="1490"/>
      <point x="631" y="1490"/>
      <point x="635" y="1489" type="curve"/>
      <point x="627" y="1449" type="line"/>
      <point x="623" y="1450"/>
      <point x="620" y="1450"/>
      <point x="616" y="1450" type="curve" smooth="yes"/>
      <point x="461" y="1450"/>
      <point x="330" y="1335"/>
      <point x="303" y="1180" type="curve" smooth="yes"/>
      <point x="233" y="780" type="line"/>
      <point x="284" y="896"/>
      <point x="447" y="1050"/>
      <point x="647" y="1050" type="curve" smooth="yes"/>
      <point x="857" y="1050"/>
      <point x="986" y="892"/>
    </contour>
  </outline>
</glyph>
<glyph name="uni01AC" format="2">
  <advance width="1234"/>
  <unicode hex="01AC"/>
  <outline>
    <contour>
      <point x="120" y="1158" type="curve"/>
      <point x="75" y="1158" type="line"/>
      <point x="75" y="1162"/>
      <point x="75" y="1166"/>
      <point x="76" y="1170" type="curve" smooth="yes"/>
      <point x="107" y="1348"/>
      <point x="263" y="1480"/>
      <point x="441" y="1480" type="curve"/>
      <point x="434" y="1438" type="line"/>
      <point x="279" y="1438"/>
      <point x="148" y="1325"/>
      <point x="121" y="1170" type="curve" smooth="yes"/>
      <point x="120" y="1166"/>
      <point x="120" y="1162"/>
    </contour>
    <contour>
      <point x="455" y="0" type="line"/>
      <point x="409" y="0" type="line"/>
      <point x="663" y="1438" type="line"/>
      <point x="434" y="1438" type="line"/>
      <point x="441" y="1480" type="line"/>
      <point x="1185" y="1480" type="line"/>
      <point x="1178" y="1438" type="line"/>
      <point x="709" y="1438" type="line"/>
    </contour>
  </outline>
</glyph>
<glyph name="uni01AE" format="2">
  <advance width="1344"/>
  <unicode hex="01AE"/>
  <outline>
    <contour>
      <point x="794" y="-269" type="line"/>
      <point x="790" y="-270"/>
      <point x="785" y="-270"/>
      <point x="781" y="-270" type="curve" smooth="yes"/>
      <point x="645" y="-270"/>
      <point x="560" y="-181"/>
      <point x="560" y="-54" type="curve" smooth="yes"/>
      <point x="560" y="-37"/>
      <point x="562" y="-19"/>
      <point x="565" y="0" type="curve"/>
      <point x="519" y="0" type="line"/>
      <point x="515" y="-20"/>
      <point x="514" y="-40"/>
      <point x="514" y="-59" type="curve" smooth="yes"/>
      <point x="514" y="-206"/>
      <point x="616" y="-310"/>
      <point x="774" y="-310" type="curve" smooth="yes"/>
      <point x="778" y="-310"/>
      <point x="783" y="-310"/>
      <point x="787" y="-309" type="curve"/>
    </contour>
    <contour>
      <point x="773" y="1438" type="line"/>
      <point x="304" y="1438" type="line"/>
      <point x="311" y="1480" type="line"/>
      <point x="1295" y="1480" type="line"/>
      <point x="1288" y="1438" type="line"/>
      <point x="819" y="1438" type="line"/>
      <point x="565" y="0" type="line"/>
      <point x="519" y="0" type="line"/>
    </contour>
  </outline>
</glyph>
<glyph name="uni01B2" format="2">
  <advance width="1344"/>
  <unicode hex="01B2"/>
  <anchor x="785" y="1380" name="top_center"/>
  <anchor x="542" y="0" name="bottom_center"/>
  <outline>
    <contour>
      <point x="1196" y="1180" type="curve"/>
      <point x="1081" y="528" type="line"/>
      <point x="1019" y="178"/>
      <point x="788" y="32"/>
      <point x="548" y="32" type="curve" smooth="yes"/>
      <point x="340" y="32"/>
      <point x="177" y="142"/>
      <point x="177" y="398" type="curve" smooth="yes"/>
      <point x="177" y="438"/>
      <point x="181" y="481"/>
      <point x="189" y="528" type="curve"/>
      <point x="357" y="1480" type="line"/>
      <point x="311" y="1480" type="line"/>
      <point x="143" y="528" type="line"/>
      <point x="134" y="476"/>
      <point x="130" y="428"/>
      <point x="130" y="384" type="curve" smooth="yes"/>
      <point x="130" y="120"/>
      <point x="286" y="-10"/>
      <point x="540" y="-10" type="curve" smooth="yes"/>
      <point x="837" y="-10"/>
      <point x="1064" y="168"/>
      <point x="1127" y="528" type="curve"/>
      <point x="1242" y="1180" type="line"/>
      <point x="1246" y="1200"/>
      <point x="1247" y="1220"/>
      <point x="1247" y="1239" type="curve" smooth="yes"/>
      <point x="1247" y="1386"/>
      <point x="1144" y="1490"/>
      <point x="986" y="1490" type="curve" smooth="yes"/>
      <point x="982" y="1490"/>
      <point x="978" y="1490"/>
      <point x="974" y="1489" type="curve"/>
      <point x="966" y="1449" type="line"/>
      <point x="970" y="1450"/>
      <point x="975" y="1450"/>
      <point x="979" y="1450" type="curve" smooth="yes"/>
      <point x="1115" y="1450"/>
      <point x="1201" y="1361"/>
      <point x="1201" y="1234" type="curve" smooth="yes"/>
      <point x="1201" y="1217"/>
      <point x="1199" y="1199"/>
    </contour>
  </outline>
</glyph>
<glyph name="uni01B4" format="2">
  <advance width="1241"/>
  <unicode hex="01B4"/>
  <outline>
    <contour>
      <point x="1277" y="996" type="line"/>
      <point x="1273" y="998"/>
      <point x="1271" y="1000"/>
      <point x="1267" y="1001" type="curve"/>
      <point x="1243" y="1008"/>
      <point x="1217" y="1011"/>
      <point x="1193" y="1011" type="curve" smooth="yes"/>
      <point x="1074" y="1011"/>
      <point x="971" y="933"/>
      <point x="906" y="808" type="curve"/>
      <point x="865" y="820" type="line"/>
      <point x="938" y="962"/>
      <point x="1061" y="1051"/>
      <point x="1198" y="1051" type="curve" smooth="yes"/>
      <point x="1226" y="1051"/>
      <point x="1254" y="1047"/>
      <point x="1283" y="1039" type="curve"/>
      <point x="1287" y="1038"/>
      <point x="1289" y="1037"/>
      <point x="1293" y="1035" type="curve"/>
    </contour>
    <contour>
      <point x="298" y="-312" type="line"/>
      <point x="249" y="-401"/>
      <point x="172" y="-450"/>
      <point x="56" y="-450" type="curve" smooth="yes"/>
      <point x="7" y="-450"/>
      <point x="-47" y="-436"/>
      <point x="-84" y="-418" type="curve"/>
      <point x="-62" y="-375" type="line"/>
      <point x="-28" y="-403"/>
      <point x="25" y="-410"/>
      <point x="63" y="-410" type="curve" smooth="yes"/>
      <point x="128" y="-410"/>
      <point x="206" y="-395"/>
      <point x="259" y="-296" type="curve"/>
      <point x="418" y="0" type="line"/>
      <point x="221" y="1040" type="line"/>
      <point x="269" y="1040" type="line"/>
      <point x="453" y="56" type="line"/>
      <point x="865" y="820" type="line"/>
      <point x="906" y="808" type="line"/>
      <point x="468" y="0" type="line"/>
    </contour>
  </outline>
</glyph>
<glyph name="uni01BF" format="2">
  <advance width="1090"/>
  <unicode hex="01BF"/>
  <outline>
    <contour>
      <point x="65" y="0" type="line"/>
      <point x="408" y="0"/>
      <point x="890" y="205"/>
      <point x="890" y="713" type="curve" smooth="yes"/>
      <point x="890" y="876"/>
      <point x="824" y="1010"/>
      <point x="613" y="1010" type="curve" smooth="yes"/>
      <point x="343" y="1010"/>
      <point x="235" y="791"/>
      <point x="196" y="572" type="curve" smooth="yes"/>
      <point x="17" y="-440" type="line"/>
      <point x="-28" y="-440" type="line"/>
      <point x="233" y="1040" type="line"/>
      <point x="278" y="1040" type="line"/>
      <point x="240" y="820" type="line"/>
      <point x="296" y="927"/>
      <point x="400" y="1050"/>
      <point x="630" y="1050" type="curve" smooth="yes"/>
      <point x="827" y="1050"/>
      <point x="935" y="942"/>
      <point x="935" y="724" type="curve" smooth="yes"/>
      <point x="935" y="170"/>
      <point x="401" y="-40"/>
      <point x="58" y="-40" type="curve"/>
    </contour>
  </outline>
</glyph>
<glyph name="uni01E4" format="2">
  <advance width="1512"/>
  <unicode hex="01E4"/>
  <outline>
    <contour>
      <point x="1435" y="299" type="line"/>
      <point x="900" y="299" type="line"/>
      <point x="907" y="341" type="line"/>
      <point x="1442" y="341" type="line"/>
    </contour>
    <contour>
      <point x="124" y="567" type="curve" smooth="yes"/>
      <point x="124" y="1039"/>
      <point x="463" y="1490"/>
      <point x="890" y="1490" type="curve" smooth="yes"/>
      <point x="1125" y="1490"/>
      <point x="1299" y="1348"/>
      <point x="1363" y="1120" type="curve"/>
      <point x="1319" y="1097" type="line"/>
      <point x="1253" y="1332"/>
      <point x="1065" y="1448"/>
      <point x="882" y="1448" type="curve" smooth="yes"/>
      <point x="525" y="1448"/>
      <point x="170" y="1057"/>
      <point x="170" y="571" type="curve" smooth="yes"/>
      <point x="170" y="209"/>
      <point x="406" y="32"/>
      <point x="633" y="32" type="curve" smooth="yes"/>
      <point x="816" y="32"/>
      <point x="1046" y="148"/>
      <point x="1194" y="383" type="curve"/>
      <point x="1229" y="360" type="line"/>
      <point x="1085" y="132"/>
      <point x="860" y="-10"/>
      <point x="625" y="-10" type="curve" smooth="yes"/>
      <point x="325" y="-10"/>
      <point x="124" y="222"/>
    </contour>
    <contour>
      <point x="757" y="740" type="line"/>
      <point x="1302" y="740" type="line"/>
      <point x="1172" y="0" type="line"/>
      <point x="1126" y="0" type="line"/>
      <point x="1184" y="327" type="line"/>
      <point x="1188" y="353" type="line"/>
      <point x="1249" y="698" type="line"/>
      <point x="750" y="698" type="line"/>
    </contour>
  </outline>
</glyph>
<glyph name="uni0220" format="2">
  <advance width="1338"/>
  <unicode hex="0220"/>
  <outline>
    <contour>
      <point x="1183" y="880" type="line" smooth="yes"/>
      <point x="1194" y="940"/>
      <point x="1199" y="997"/>
      <point x="1199" y="1049" type="curve" smooth="yes"/>
      <point x="1199" y="1327"/>
      <point x="1054" y="1490"/>
      <point x="810" y="1490" type="curve" smooth="yes"/>
      <point x="610" y="1490"/>
      <point x="425" y="1414"/>
      <point x="299" y="1150" type="curve"/>
      <point x="357" y="1480" type="line"/>
      <point x="311" y="1480" type="line"/>
      <point x="50" y="0" type="line"/>
      <point x="96" y="0" type="line"/>
      <point x="251" y="880" type="line" smooth="yes"/>
      <point x="292" y="1110"/>
      <point x="454" y="1448"/>
      <point x="794" y="1448" type="curve" smooth="yes"/>
      <point x="1068" y="1448"/>
      <point x="1150" y="1229"/>
      <point x="1150" y="1023" type="curve" smooth="yes"/>
      <point x="1150" y="973"/>
      <point x="1145" y="925"/>
      <point x="1137" y="880" type="curve" smooth="yes"/>
      <point x="904" y="-440" type="line"/>
      <point x="950" y="-440" type="line"/>
    </contour>
  </outline>
</glyph>
<glyph name="uni0221" format="2">
  <advance width="1349"/>
  <unicode hex="0221"/>
  <outline>
    <contour>
      <point x="435" y="30" type="curve" smooth="yes"/>
      <point x="690" y="30"/>
      <point x="909" y="316"/>
      <point x="909" y="647" type="curve" smooth="yes"/>
      <point x="909" y="895"/>
      <point x="759" y="1010"/>
      <point x="608" y="1010" type="curve" smooth="yes"/>
      <point x="353" y="1010"/>
      <point x="135" y="722"/>
      <point x="135" y="392" type="curve" smooth="yes"/>
      <point x="135" y="145"/>
      <point x="284" y="30"/>
    </contour>
    <contour>
      <point x="1258" y="241" type="curve" smooth="yes"/>
      <point x="1258" y="109"/>
      <point x="1144" y="-10"/>
      <point x="1006" y="-10" type="curve" smooth="yes"/>
      <point x="900" y="-10"/>
      <point x="828" y="62"/>
      <point x="828" y="162" type="curve" smooth="yes"/>
      <point x="828" y="175"/>
      <point x="830" y="187"/>
      <point x="832" y="201" type="curve" smooth="yes"/>
      <point x="843" y="260" type="line"/>
      <point x="792" y="144"/>
      <point x="638" y="-10"/>
      <point x="428" y="-10" type="curve" smooth="yes"/>
      <point x="193" y="-10"/>
      <point x="90" y="176"/>
      <point x="90" y="392" type="curve" smooth="yes"/>
      <point x="90" y="692"/>
      <point x="289" y="1050"/>
      <point x="615" y="1050" type="curve" smooth="yes"/>
      <point x="815" y="1050"/>
      <point x="924" y="896"/>
      <point x="935" y="780" type="curve"/>
      <point x="1058" y="1480" type="line"/>
      <point x="1103" y="1480" type="line"/>
      <point x="877" y="201" type="line" smooth="yes"/>
      <point x="875" y="188"/>
      <point x="874" y="176"/>
      <point x="874" y="164" type="curve" smooth="yes"/>
      <point x="874" y="84"/>
      <point x="926" y="30"/>
      <point x="1013" y="30" type="curve" smooth="yes"/>
      <point x="1139" y="30"/>
      <point x="1213" y="141"/>
      <point x="1213" y="236" type="curve" smooth="yes"/>
      <point x="1213" y="309"/>
      <point x="1170" y="372"/>
      <point x="1074" y="372" type="curve" smooth="yes"/>
      <point x="768" y="372"/>
      <point x="553" y="-178"/>
      <point x="553" y="-178" type="curve"/>
      <point x="517" y="-155" type="line"/>
      <point x="517" y="-155"/>
      <point x="732" y="412"/>
      <point x="1082" y="412" type="curve" smooth="yes"/>
      <point x="1188" y="412"/>
      <point x="1258" y="341"/>
    </contour>
  </outline>
</glyph>
<glyph name="uni0223" format="2">
  <advance width="1181"/>
  <unicode hex="0223"/>
  <outline>
    <contour>
      <point x="600" y="796" type="curve" smooth="yes"/>
      <point x="824" y="796"/>
      <point x="1029" y="959"/>
      <point x="1029" y="1186" type="curve" smooth="yes"/>
      <point x="1029" y="1323"/>
      <point x="944" y="1417"/>
      <point x="819" y="1448" type="curve"/>
      <point x="839" y="1490" type="line"/>
      <point x="987" y="1457"/>
      <point x="1077" y="1347"/>
      <point x="1077" y="1198" type="curve" smooth="yes"/>
      <point x="1077" y="963"/>
      <point x="886" y="795"/>
      <point x="735" y="776" type="curve"/>
      <point x="834" y="755"/>
      <point x="987" y="657"/>
      <point x="987" y="462" type="curve" smooth="yes"/>
      <point x="987" y="225"/>
      <point x="787" y="-10"/>
      <point x="458" y="-10" type="curve" smooth="yes"/>
      <point x="224" y="-10"/>
      <point x="72" y="114"/>
      <point x="72" y="313" type="curve" smooth="yes"/>
      <point x="72" y="577"/>
      <point x="299" y="743"/>
      <point x="460" y="776" type="curve"/>
      <point x="365" y="788"/>
      <point x="242" y="878"/>
      <point x="242" y="1053" type="curve" smooth="yes"/>
      <point x="242" y="1244"/>
      <point x="377" y="1443"/>
      <point x="608" y="1490" type="curve"/>
      <point x="612" y="1448" type="line"/>
      <point x="402" y="1399"/>
      <point x="289" y="1222"/>
      <point x="289" y="1065" type="curve" smooth="yes"/>
      <point x="289" y="902"/>
      <point x="421" y="796"/>
    </contour>
    <contour>
      <point x="466" y="32" type="curve" smooth="yes"/>
      <point x="767" y="32"/>
      <point x="939" y="250"/>
      <point x="939" y="455" type="curve" smooth="yes"/>
      <point x="939" y="649"/>
      <point x="762" y="756"/>
      <point x="593" y="756" type="curve" smooth="yes"/>
      <point x="386" y="756"/>
      <point x="119" y="597"/>
      <point x="119" y="323" type="curve" smooth="yes"/>
      <point x="119" y="135"/>
      <point x="266" y="32"/>
    </contour>
  </outline>
</glyph>
<glyph name="uni0224" format="2">
  <advance width="1258"/>
  <unicode hex="0224"/>
  <outline>
    <contour>
      <point x="579" y="-269" type="line"/>
      <point x="583" y="-270"/>
      <point x="586" y="-270"/>
      <point x="590" y="-270" type="curve" smooth="yes"/>
      <point x="745" y="-270"/>
      <point x="876" y="-155"/>
      <point x="903" y="0" type="curve"/>
      <point x="948" y="0" type="line"/>
      <point x="917" y="-178"/>
      <point x="761" y="-310"/>
      <point x="583" y="-310" type="curve" smooth="yes"/>
      <point x="579" y="-310"/>
      <point x="576" y="-310"/>
      <point x="572" y="-309" type="curve"/>
    </contour>
    <contour>
      <point x="80" y="0" type="line"/>
      <point x="57" y="38" type="line"/>
      <point x="1161" y="1480" type="line"/>
      <point x="1184" y="1442" type="line"/>
    </contour>
    <contour>
      <point x="81" y="42" type="line"/>
      <point x="955" y="42" type="line"/>
      <point x="948" y="0" type="line"/>
      <point x="50" y="0" type="line"/>
      <point x="57" y="38" type="line"/>
    </contour>
    <contour>
      <point x="1159" y="1438" type="line"/>
      <point x="322" y="1438" type="line"/>
      <point x="329" y="1480" type="line"/>
      <point x="1191" y="1480" type="line"/>
      <point x="1184" y="1442" type="line"/>
    </contour>
  </outline>
</glyph>
<glyph name="uni0225" format="2">
  <advance width="1012"/>
  <unicode hex="0225"/>
  <outline>
    <contour>
      <point x="333" y="-269" type="line"/>
      <point x="337" y="-270"/>
      <point x="340" y="-270"/>
      <point x="344" y="-270" type="curve" smooth="yes"/>
      <point x="499" y="-270"/>
      <point x="630" y="-155"/>
      <point x="657" y="0" type="curve"/>
      <point x="702" y="0" type="line"/>
      <point x="671" y="-178"/>
      <point x="515" y="-310"/>
      <point x="337" y="-310" type="curve" smooth="yes"/>
      <point x="333" y="-310"/>
      <point x="330" y="-310"/>
      <point x="326" y="-309" type="curve"/>
    </contour>
    <contour>
      <point x="233" y="1040" type="line"/>
      <point x="226" y="1000" type="line"/>
      <point x="849" y="1000" type="line"/>
      <point x="880" y="1008" type="line"/>
      <point x="885" y="1040" type="line"/>
    </contour>
    <contour>
      <point x="709" y="40" type="line"/>
      <point x="86" y="40" type="line"/>
      <point x="56" y="32" type="line"/>
      <point x="50" y="0" type="line"/>
      <point x="702" y="0" type="line"/>
    </contour>
    <contour>
      <point x="109" y="40" type="line"/>
      <point x="880" y="1008" type="line"/>
      <point x="826" y="1000" type="line"/>
      <point x="56" y="32" type="line"/>
    </contour>
  </outline>
</glyph>
<glyph name="uni0235" format="2">
  <advance width="1327"/>
  <unicode hex="0235"/>
  <outline>
    <contour>
      <point x="1236" y="241" type="curve" smooth="yes"/>
      <point x="1236" y="109"/>
      <point x="1122" y="-10"/>
      <point x="984" y="-10" type="curve" smooth="yes"/>
      <point x="878" y="-10"/>
      <point x="806" y="62"/>
      <point x="806" y="162" type="curve" smooth="yes"/>
      <point x="806" y="174"/>
      <point x="808" y="192"/>
      <point x="812" y="215" type="curve" smooth="yes"/>
      <point x="827" y="300" type="line"/>
      <point x="877" y="582" type="line" smooth="yes"/>
      <point x="886" y="633"/>
      <point x="890" y="678"/>
      <point x="890" y="713" type="curve" smooth="yes"/>
      <point x="890" y="876"/>
      <point x="824" y="1010"/>
      <point x="613" y="1010" type="curve" smooth="yes"/>
      <point x="343" y="1010"/>
      <point x="235" y="791"/>
      <point x="196" y="572" type="curve" smooth="yes"/>
      <point x="95" y="0" type="line"/>
      <point x="50" y="0" type="line"/>
      <point x="233" y="1040" type="line"/>
      <point x="278" y="1040" type="line"/>
      <point x="240" y="820" type="line"/>
      <point x="296" y="927"/>
      <point x="400" y="1050"/>
      <point x="630" y="1050" type="curve" smooth="yes"/>
      <point x="827" y="1050"/>
      <point x="935" y="942"/>
      <point x="935" y="724" type="curve" smooth="yes"/>
      <point x="935" y="678"/>
      <point x="931" y="627"/>
      <point x="921" y="572" type="curve" smooth="yes"/>
      <point x="855" y="201" type="line" smooth="yes"/>
      <point x="853" y="188"/>
      <point x="852" y="176"/>
      <point x="852" y="164" type="curve" smooth="yes"/>
      <point x="852" y="84"/>
      <point x="904" y="30"/>
      <point x="991" y="30" type="curve" smooth="yes"/>
      <point x="1117" y="30"/>
      <point x="1191" y="141"/>
      <point x="1191" y="236" type="curve" smooth="yes"/>
      <point x="1191" y="309"/>
      <point x="1148" y="372"/>
      <point x="1052" y="372" type="curve" smooth="yes"/>
      <point x="746" y="372"/>
      <point x="531" y="-178"/>
      <point x="531" y="-178" type="curve"/>
      <point x="495" y="-155" type="line"/>
      <point x="495" y="-155"/>
      <point x="710" y="412"/>
      <point x="1060" y="412" type="curve" smooth="yes"/>
      <point x="1166" y="412"/>
      <point x="1236" y="341"/>
    </contour>
  </outline>
</glyph>
<glyph name="uni0237" format="2">
  <advance width="405"/>
  <unicode hex="0237"/>
  <anchor x="255" y="1040" name="top_center"/>
  <anchor x="-101" y="-360" name="bottom_center"/>
  <outline>
    <contour>
      <point x="58" y="-210" type="line" smooth="yes"/>
      <point x="28" y="-380"/>
      <point x="-71" y="-450"/>
      <point x="-221" y="-450" type="curve" smooth="yes"/>
      <point x="-249" y="-450"/>
      <point x="-278" y="-443"/>
      <point x="-300" y="-426" type="curve"/>
      <point x="-282" y="-384" type="line"/>
      <point x="-255" y="-404"/>
      <point x="-228" y="-410"/>
      <point x="-214" y="-410" type="curve" smooth="yes"/>
      <point x="-161" y="-410"/>
      <point x="-21" y="-400"/>
      <point x="13" y="-210" type="curve" smooth="yes"/>
      <point x="233" y="1040" type="line"/>
      <point x="278" y="1040" type="line"/>
    </contour>
  </outline>
</glyph>
<glyph name="uni023D" format="2">
  <advance width="1206"/>
  <unicode hex="023D"/>
  <outline>
    <contour>
      <point x="533" y="719" type="line"/>
      <point x="-3" y="719" type="line"/>
      <point x="4" y="761" type="line"/>
      <point x="540" y="761" type="line"/>
    </contour>
    <contour>
      <point x="387" y="1480" type="line"/>
      <point x="133" y="42" type="line"/>
      <point x="903" y="42" type="line"/>
      <point x="896" y="0" type="line"/>
      <point x="80" y="0" type="line"/>
      <point x="341" y="1480" type="line"/>
    </contour>
  </outline>
</glyph>
<glyph name="uni023E" format="2">
  <advance width="1344"/>
  <unicode hex="023E"/>
  <outline>
    <contour>
      <point x="1388" y="1526" type="line"/>
      <point x="1416" y="1502" type="line"/>
      <point x="-43" y="-46" type="line"/>
      <point x="-71" y="-22" type="line"/>
    </contour>
    <contour>
      <point x="565" y="0" type="line"/>
      <point x="519" y="0" type="line"/>
      <point x="773" y="1438" type="line"/>
      <point x="304" y="1438" type="line"/>
      <point x="311" y="1480" type="line"/>
      <point x="1295" y="1480" type="line"/>
      <point x="1288" y="1438" type="line"/>
      <point x="819" y="1438" type="line"/>
    </contour>
  </outline>
</glyph>
<glyph name="uni0240" format="2">
  <advance width="1066"/>
  <unicode hex="0240"/>
  <outline>
    <contour>
      <point x="877" y="-155" type="curve"/>
      <point x="903" y="-188" type="line"/>
      <point x="803" y="-298"/>
      <point x="706" y="-355"/>
      <point x="619" y="-355" type="curve" smooth="yes"/>
      <point x="581" y="-355"/>
      <point x="545" y="-345"/>
      <point x="512" y="-323" type="curve" smooth="yes"/>
      <point x="363" y="-227"/>
      <point x="544" y="53"/>
      <point x="419" y="133" type="curve" smooth="yes"/>
      <point x="397" y="147"/>
      <point x="370" y="157"/>
      <point x="336" y="157" type="curve" smooth="yes"/>
      <point x="270" y="157"/>
      <point x="183" y="120"/>
      <point x="81" y="0" type="curve"/>
      <point x="56" y="33" type="line"/>
      <point x="156" y="143"/>
      <point x="251" y="200"/>
      <point x="338" y="200" type="curve" smooth="yes"/>
      <point x="376" y="200"/>
      <point x="413" y="190"/>
      <point x="446" y="168" type="curve" smooth="yes"/>
      <point x="595" y="72"/>
      <point x="413" y="-208"/>
      <point x="538" y="-288" type="curve" smooth="yes"/>
      <point x="560" y="-302"/>
      <point x="589" y="-312"/>
      <point x="623" y="-312" type="curve" smooth="yes"/>
      <point x="689" y="-312"/>
      <point x="775" y="-275"/>
    </contour>
    <contour>
      <point x="233" y="1040" type="line"/>
      <point x="885" y="1040" type="line"/>
      <point x="880" y="1008" type="line"/>
      <point x="849" y="1000" type="line"/>
      <point x="226" y="1000" type="line"/>
    </contour>
    <contour>
      <point x="109" y="41" type="line"/>
      <point x="56" y="33" type="line"/>
      <point x="826" y="1000" type="line"/>
      <point x="880" y="1008" type="line"/>
    </contour>
  </outline>
</glyph>
<glyph name="uni0248" format="2">
  <advance width="1166"/>
  <unicode hex="0248"/>
  <outline>
    <contour>
      <point x="136" y="447" type="line"/>
      <point x="136" y="446"/>
      <point x="124" y="398"/>
      <point x="124" y="337" type="curve" smooth="yes"/>
      <point x="124" y="120"/>
      <point x="276" y="32"/>
      <point x="424" y="32" type="curve" smooth="yes"/>
      <point x="592" y="32"/>
      <point x="806" y="146"/>
      <point x="857" y="434" type="curve" smooth="yes"/>
      <point x="1041" y="1480" type="line"/>
      <point x="1087" y="1480" type="line"/>
      <point x="903" y="434" type="line" smooth="yes"/>
      <point x="854" y="154"/>
      <point x="654" y="-10"/>
      <point x="416" y="-10" type="curve" smooth="yes"/>
      <point x="210" y="-10"/>
      <point x="77" y="113"/>
      <point x="77" y="328" type="curve" smooth="yes"/>
      <point x="77" y="361"/>
      <point x="80" y="396"/>
      <point x="87" y="434" type="curve"/>
    </contour>
    <contour>
      <point x="1163" y="719" type="line"/>
      <point x="627" y="719" type="line"/>
      <point x="634" y="761" type="line"/>
      <point x="1170" y="761" type="line"/>
    </contour>
  </outline>
</glyph>
<glyph name="uni024A" format="2">
  <advance width="1651"/>
  <unicode hex="024A"/>
  <outline>
    <contour>
      <point x="1445" y="-429" type="curve"/>
      <point x="1438" y="-469" type="line"/>
      <point x="1434" y="-470"/>
      <point x="1430" y="-470"/>
      <point x="1426" y="-470" type="curve" smooth="yes"/>
      <point x="1268" y="-470"/>
      <point x="1165" y="-366"/>
      <point x="1165" y="-219" type="curve" smooth="yes"/>
      <point x="1165" y="-200"/>
      <point x="1166" y="-180"/>
      <point x="1170" y="-160" type="curve"/>
      <point x="1216" y="-160" type="line"/>
      <point x="1213" y="-179"/>
      <point x="1211" y="-197"/>
      <point x="1211" y="-214" type="curve" smooth="yes"/>
      <point x="1211" y="-341"/>
      <point x="1297" y="-430"/>
      <point x="1433" y="-430" type="curve" smooth="yes"/>
      <point x="1437" y="-430"/>
      <point x="1441" y="-430"/>
    </contour>
    <contour>
      <point x="1505" y="1480" type="line"/>
      <point x="1216" y="-160" type="line"/>
      <point x="1170" y="-160" type="line"/>
      <point x="1293" y="540" type="line"/>
      <point x="1320" y="579" type="line"/>
      <point x="1378" y="906" type="line"/>
      <point x="1365" y="946" type="line"/>
      <point x="1459" y="1480" type="line"/>
    </contour>
    <contour>
      <point x="882" y="1448" type="curve" smooth="yes"/>
      <point x="525" y="1448"/>
      <point x="170" y="1057"/>
      <point x="170" y="571" type="curve" smooth="yes"/>
      <point x="170" y="209"/>
      <point x="406" y="32"/>
      <point x="633" y="32" type="curve" smooth="yes"/>
      <point x="991" y="32"/>
      <point x="1344" y="423"/>
      <point x="1344" y="909" type="curve" smooth="yes"/>
      <point x="1344" y="1270"/>
      <point x="1109" y="1448"/>
    </contour>
    <contour>
      <point x="124" y="567" type="curve" smooth="yes"/>
      <point x="124" y="1039"/>
      <point x="463" y="1490"/>
      <point x="890" y="1490" type="curve" smooth="yes"/>
      <point x="1190" y="1490"/>
      <point x="1390" y="1259"/>
      <point x="1390" y="914" type="curve" smooth="yes"/>
      <point x="1390" y="443"/>
      <point x="1052" y="-10"/>
      <point x="625" y="-10" type="curve" smooth="yes"/>
      <point x="325" y="-10"/>
      <point x="124" y="222"/>
    </contour>
  </outline>
</glyph>
<glyph name="uni024B" format="2">
  <advance width="1249"/>
  <unicode hex="024B"/>
  <outline>
    <contour>
      <point x="1043" y="-429" type="curve"/>
      <point x="1036" y="-469" type="line"/>
      <point x="1032" y="-470"/>
      <point x="1028" y="-470"/>
      <point x="1024" y="-470" type="curve" smooth="yes"/>
      <point x="866" y="-470"/>
      <point x="764" y="-366"/>
      <point x="764" y="-219" type="curve" smooth="yes"/>
      <point x="764" y="-200"/>
      <point x="765" y="-180"/>
      <point x="769" y="-160" type="curve"/>
      <point x="814" y="-160" type="line"/>
      <point x="811" y="-179"/>
      <point x="809" y="-197"/>
      <point x="809" y="-214" type="curve" smooth="yes"/>
      <point x="809" y="-341"/>
      <point x="895" y="-430"/>
      <point x="1031" y="-430" type="curve" smooth="yes"/>
      <point x="1035" y="-430"/>
      <point x="1039" y="-430"/>
    </contour>
    <contour>
      <point x="435" y="30" type="curve" smooth="yes"/>
      <point x="690" y="30"/>
      <point x="909" y="316"/>
      <point x="909" y="647" type="curve" smooth="yes"/>
      <point x="909" y="895"/>
      <point x="759" y="1010"/>
      <point x="608" y="1010" type="curve" smooth="yes"/>
      <point x="353" y="1010"/>
      <point x="135" y="722"/>
      <point x="135" y="392" type="curve" smooth="yes"/>
      <point x="135" y="145"/>
      <point x="284" y="30"/>
    </contour>
    <contour>
      <point x="90" y="386" type="curve" smooth="yes"/>
      <point x="90" y="708"/>
      <point x="299" y="1050"/>
      <point x="615" y="1050" type="curve" smooth="yes"/>
      <point x="825" y="1050"/>
      <point x="924" y="896"/>
      <point x="935" y="780" type="curve"/>
      <point x="980" y="1040" type="line"/>
      <point x="1025" y="1040" type="line"/>
      <point x="1025" y="1040"/>
      <point x="1006" y="930"/>
      <point x="989" y="832" type="curve" smooth="yes"/>
      <point x="814" y="-160" type="line"/>
      <point x="769" y="-160" type="line"/>
      <point x="843" y="260" type="line"/>
      <point x="792" y="144"/>
      <point x="628" y="-10"/>
      <point x="428" y="-10" type="curve" smooth="yes"/>
      <point x="218" y="-10"/>
      <point x="90" y="147"/>
    </contour>
  </outline>
</glyph>
<glyph name="uni024C" format="2">
  <advance width="1200"/>
  <unicode hex="024C"/>
  <outline>
    <contour>
      <point x="217" y="634" type="line"/>
      <point x="224" y="676" type="line"/>
      <point x="-11" y="676" type="line"/>
      <point x="-18" y="634" type="line"/>
    </contour>
    <contour>
      <point x="558" y="643" type="line"/>
      <point x="876" y="0" type="line"/>
      <point x="930" y="0" type="line"/>
      <point x="606" y="652" type="line"/>
    </contour>
    <contour>
      <point x="1060" y="1127" type="curve" smooth="yes"/>
      <point x="1060" y="902"/>
      <point x="866" y="676"/>
      <point x="614" y="676" type="curve" smooth="yes"/>
      <point x="245" y="676" type="line"/>
      <point x="380" y="1438" type="line"/>
      <point x="749" y="1438" type="line" smooth="yes"/>
      <point x="947" y="1438"/>
      <point x="1060" y="1297"/>
    </contour>
    <contour>
      <point x="607" y="634" type="line" smooth="yes"/>
      <point x="876" y="634"/>
      <point x="1107" y="867"/>
      <point x="1107" y="1139" type="curve" smooth="yes"/>
      <point x="1107" y="1347"/>
      <point x="955" y="1480"/>
      <point x="756" y="1480" type="curve" smooth="yes"/>
      <point x="341" y="1480" type="line"/>
      <point x="80" y="0" type="line"/>
      <point x="126" y="0" type="line"/>
      <point x="238" y="634" type="line"/>
    </contour>
  </outline>
</glyph>
<glyph name="uni024E" format="2">
  <advance width="1342"/>
  <unicode hex="024E"/>
  <outline>
    <contour>
      <point x="1331" y="1132" type="line"/>
      <point x="1323" y="1090" type="line"/>
      <point x="143" y="1090" type="line"/>
      <point x="151" y="1132" type="line"/>
    </contour>
    <contour>
      <point x="518" y="0" type="line"/>
      <point x="648" y="740" type="line"/>
      <point x="694" y="740" type="line"/>
      <point x="564" y="0" type="line"/>
    </contour>
    <contour>
      <point x="682" y="719" type="line"/>
      <point x="655" y="716" type="line"/>
      <point x="251" y="1480" type="line"/>
      <point x="305" y="1480" type="line"/>
      <point x="678" y="778" type="line"/>
      <point x="1299" y="1480" type="line"/>
      <point x="1353" y="1480" type="line"/>
    </contour>
  </outline>
</glyph>
<glyph name="uni0250" format="2">
  <advance width="1141"/>
  <unicode hex="0250"/>
  <anchor x="488" y="0" name="bottom_center"/>
  <anchor x="669" y="1040" name="top_center"/>
  <outline>
    <contour>
      <point x="228" y="634" type="curve" smooth="yes"/>
      <point x="228" y="867"/>
      <point x="425" y="1050"/>
      <point x="681" y="1050" type="curve" smooth="yes"/>
      <point x="857" y="1050"/>
      <point x="1001" y="963"/>
      <point x="1001" y="775" type="curve" smooth="yes"/>
      <point x="1001" y="536"/>
      <point x="815" y="350"/>
      <point x="548" y="350" type="curve" smooth="yes"/>
      <point x="395" y="350"/>
      <point x="228" y="440"/>
    </contour>
    <contour>
      <point x="664" y="1010" type="curve" smooth="yes"/>
      <point x="423" y="1010"/>
      <point x="264" y="827"/>
      <point x="264" y="645" type="curve" smooth="yes"/>
      <point x="264" y="502"/>
      <point x="368" y="390"/>
      <point x="555" y="390" type="curve" smooth="yes"/>
      <point x="854" y="390"/>
      <point x="955" y="607"/>
      <point x="955" y="769" type="curve" smooth="yes"/>
      <point x="955" y="924"/>
      <point x="848" y="1010"/>
    </contour>
    <contour>
      <point x="244" y="810" type="line" smooth="yes"/>
      <point x="248" y="831"/>
      <point x="249" y="850"/>
      <point x="249" y="867" type="curve" smooth="yes"/>
      <point x="249" y="950"/>
      <point x="211" y="994"/>
      <point x="168" y="1010" type="curve"/>
      <point x="188" y="1050" type="line"/>
      <point x="258" y="1029"/>
      <point x="296" y="971"/>
      <point x="296" y="881" type="curve" smooth="yes"/>
      <point x="296" y="859"/>
      <point x="293" y="836"/>
      <point x="289" y="810" type="curve"/>
      <point x="266" y="775" type="line"/>
      <point x="239" y="624" type="line"/>
      <point x="250" y="592" type="line"/>
      <point x="218" y="410" type="line" smooth="yes"/>
      <point x="211" y="371"/>
      <point x="208" y="336"/>
      <point x="208" y="304" type="curve" smooth="yes"/>
      <point x="208" y="81"/>
      <point x="363" y="30"/>
      <point x="493" y="30" type="curve" smooth="yes"/>
      <point x="691" y="30"/>
      <point x="842" y="155"/>
      <point x="842" y="155" type="curve"/>
      <point x="860" y="114" type="line"/>
      <point x="860" y="114"/>
      <point x="710" y="-10"/>
      <point x="486" y="-10" type="curve" smooth="yes"/>
      <point x="303" y="-10"/>
      <point x="165" y="64"/>
      <point x="165" y="299" type="curve" smooth="yes"/>
      <point x="165" y="341"/>
      <point x="170" y="389"/>
      <point x="179" y="442" type="curve" smooth="yes"/>
    </contour>
  </outline>
</glyph>
<glyph name="uni0252" format="2">
  <advance width="1152"/>
  <unicode hex="0252"/>
  <outline>
    <contour>
      <point x="640" y="1010" type="curve" smooth="yes"/>
      <point x="384" y="1010"/>
      <point x="166" y="721"/>
      <point x="166" y="392" type="curve" smooth="yes"/>
      <point x="166" y="145"/>
      <point x="316" y="30"/>
      <point x="467" y="30" type="curve" smooth="yes"/>
      <point x="723" y="30"/>
      <point x="940" y="319"/>
      <point x="940" y="648" type="curve" smooth="yes"/>
      <point x="940" y="895"/>
      <point x="791" y="1010"/>
    </contour>
    <contour>
      <point x="986" y="653" type="curve" smooth="yes"/>
      <point x="986" y="331"/>
      <point x="775" y="-10"/>
      <point x="460" y="-10" type="curve" smooth="yes"/>
      <point x="260" y="-10"/>
      <point x="151" y="144"/>
      <point x="140" y="260" type="curve"/>
      <point x="95" y="0" type="line"/>
      <point x="50" y="0" type="line"/>
      <point x="196" y="832" type="line" smooth="yes"/>
      <point x="205" y="881"/>
      <point x="207" y="933"/>
      <point x="207" y="973" type="curve" smooth="yes"/>
      <point x="207" y="1013"/>
      <point x="205" y="1040"/>
      <point x="205" y="1040" type="curve"/>
      <point x="250" y="1040" type="line"/>
      <point x="250" y="1040"/>
      <point x="251" y="1023"/>
      <point x="251" y="993" type="curve" smooth="yes"/>
      <point x="251" y="947"/>
      <point x="248" y="871"/>
      <point x="232" y="780" type="curve"/>
      <point x="284" y="897"/>
      <point x="437" y="1050"/>
      <point x="647" y="1050" type="curve" smooth="yes"/>
      <point x="857" y="1050"/>
      <point x="986" y="892"/>
    </contour>
  </outline>
</glyph>
<glyph name="uni0257" format="2">
  <advance width="1249"/>
  <unicode hex="0257"/>
  <outline>
    <contour>
      <point x="89" y="387" type="curve" smooth="yes"/>
      <point x="89" y="764"/>
      <point x="334" y="1050"/>
      <point x="615" y="1050" type="curve" smooth="yes"/>
      <point x="815" y="1050"/>
      <point x="924" y="896"/>
      <point x="935" y="780" type="curve"/>
      <point x="1005" y="1180" type="line" smooth="yes"/>
      <point x="1036" y="1358"/>
      <point x="1192" y="1490"/>
      <point x="1370" y="1490" type="curve" smooth="yes"/>
      <point x="1374" y="1490"/>
      <point x="1378" y="1490"/>
      <point x="1382" y="1489" type="curve"/>
      <point x="1374" y="1449" type="line"/>
      <point x="1370" y="1450"/>
      <point x="1367" y="1450"/>
      <point x="1363" y="1450" type="curve" smooth="yes"/>
      <point x="1208" y="1450"/>
      <point x="1077" y="1335"/>
      <point x="1050" y="1180" type="curve" smooth="yes"/>
      <point x="879" y="208" type="line" smooth="yes"/>
      <point x="870" y="159"/>
      <point x="868" y="107"/>
      <point x="868" y="67" type="curve" smooth="yes"/>
      <point x="868" y="27"/>
      <point x="870" y="0"/>
      <point x="870" y="0" type="curve"/>
      <point x="825" y="0" type="line"/>
      <point x="825" y="0"/>
      <point x="824" y="17"/>
      <point x="824" y="47" type="curve" smooth="yes"/>
      <point x="824" y="93"/>
      <point x="827" y="169"/>
      <point x="843" y="260" type="curve"/>
      <point x="792" y="144"/>
      <point x="638" y="-10"/>
      <point x="428" y="-10" type="curve" smooth="yes"/>
      <point x="218" y="-10"/>
      <point x="89" y="148"/>
    </contour>
    <contour>
      <point x="435" y="30" type="curve" smooth="yes"/>
      <point x="635" y="30"/>
      <point x="909" y="272"/>
      <point x="909" y="648" type="curve" smooth="yes"/>
      <point x="909" y="895"/>
      <point x="759" y="1010"/>
      <point x="608" y="1010" type="curve" smooth="yes"/>
      <point x="408" y="1010"/>
      <point x="135" y="768"/>
      <point x="135" y="392" type="curve" smooth="yes"/>
      <point x="135" y="145"/>
      <point x="284" y="30"/>
    </contour>
  </outline>
</glyph>
<glyph name="uni025A" format="2">
  <advance width="1455"/>
  <unicode hex="025A"/>
  <outline>
    <contour>
      <point x="1192" y="737" type="curve"/>
      <point x="1232" y="767" type="line"/>
      <point x="1232" y="612"/>
      <point x="1300" y="519"/>
      <point x="1415" y="519" type="curve" smooth="yes"/>
      <point x="1419" y="519"/>
      <point x="1423" y="519"/>
      <point x="1427" y="520" type="curve"/>
      <point x="1427" y="480" type="line"/>
      <point x="1423" y="479"/>
      <point x="1419" y="479"/>
      <point x="1415" y="479" type="curve" smooth="yes"/>
      <point x="1277" y="479"/>
      <point x="1192" y="599"/>
    </contour>
    <contour>
      <point x="367" y="498" type="line" smooth="yes"/>
      <point x="206" y="456"/>
      <point x="136" y="351"/>
      <point x="136" y="249" type="curve" smooth="yes"/>
      <point x="136" y="118"/>
      <point x="268" y="30"/>
      <point x="422" y="30" type="curve" smooth="yes"/>
      <point x="657" y="30"/>
      <point x="912" y="291"/>
      <point x="912" y="636" type="curve" smooth="yes"/>
      <point x="912" y="891"/>
      <point x="742" y="1010"/>
      <point x="595" y="1010" type="curve" smooth="yes"/>
      <point x="449" y="1010"/>
      <point x="283" y="932"/>
      <point x="178" y="766" type="curve"/>
      <point x="143" y="788" type="line"/>
      <point x="246" y="950"/>
      <point x="405" y="1050"/>
      <point x="602" y="1050" type="curve" smooth="yes"/>
      <point x="815" y="1050"/>
      <point x="958" y="888"/>
      <point x="958" y="643" type="curve" smooth="yes"/>
      <point x="958" y="311"/>
      <point x="721" y="-10"/>
      <point x="415" y="-10" type="curve" smooth="yes"/>
      <point x="192" y="-10"/>
      <point x="90" y="120"/>
      <point x="90" y="245" type="curve" smooth="yes"/>
      <point x="90" y="258"/>
      <point x="92" y="272"/>
      <point x="94" y="285" type="curve" smooth="yes"/>
      <point x="107" y="372"/>
      <point x="178" y="489"/>
      <point x="366" y="539" type="curve" smooth="yes"/>
      <point x="1232" y="767" type="line"/>
      <point x="1212" y="739" type="line"/>
      <point x="1232" y="723" type="line"/>
    </contour>
  </outline>
</glyph>
<glyph name="uni0261" format="2">
  <advance width="1152"/>
  <unicode hex="0261"/>
  <outline>
    <contour>
      <point x="89" y="387" type="curve" smooth="yes"/>
      <point x="89" y="709"/>
      <point x="300" y="1050"/>
      <point x="615" y="1050" type="curve" smooth="yes"/>
      <point x="825" y="1050"/>
      <point x="924" y="896"/>
      <point x="935" y="780" type="curve"/>
      <point x="980" y="1040" type="line"/>
      <point x="1025" y="1040" type="line"/>
      <point x="1025" y="1040"/>
      <point x="1006" y="930"/>
      <point x="989" y="832" type="curve" smooth="yes"/>
      <point x="853" y="60" type="line" smooth="yes"/>
      <point x="798" y="-252"/>
      <point x="568" y="-470"/>
      <point x="321" y="-470" type="curve" smooth="yes"/>
      <point x="154" y="-470"/>
      <point x="29" y="-370"/>
      <point x="-16" y="-208" type="curve"/>
      <point x="27" y="-186" type="line"/>
      <point x="74" y="-352"/>
      <point x="208" y="-430"/>
      <point x="328" y="-430" type="curve" smooth="yes"/>
      <point x="496" y="-430"/>
      <point x="749" y="-276"/>
      <point x="808" y="60" type="curve" smooth="yes"/>
      <point x="843" y="260" type="line"/>
      <point x="792" y="144"/>
      <point x="628" y="-10"/>
      <point x="428" y="-10" type="curve" smooth="yes"/>
      <point x="218" y="-10"/>
      <point x="89" y="148"/>
    </contour>
    <contour>
      <point x="435" y="30" type="curve" smooth="yes"/>
      <point x="691" y="30"/>
      <point x="909" y="319"/>
      <point x="909" y="648" type="curve" smooth="yes"/>
      <point x="909" y="895"/>
      <point x="759" y="1010"/>
      <point x="608" y="1010" type="curve" smooth="yes"/>
      <point x="352" y="1010"/>
      <point x="135" y="721"/>
      <point x="135" y="392" type="curve" smooth="yes"/>
      <point x="135" y="145"/>
      <point x="284" y="30"/>
    </contour>
  </outline>
</glyph>
<glyph name="uni0264" format="2">
  <advance width="1351"/>
  <unicode hex="0264"/>
  <anchor x="728" y="1040" name="top_center"/>
  <anchor x="545" y="0" name="bottom_center"/>
  <outline>
    <contour>
      <point x="838" y="258" type="curve" smooth="yes"/>
      <point x="838" y="132"/>
      <point x="742" y="-10"/>
      <point x="543" y="-10" type="curve" smooth="yes"/>
      <point x="404" y="-10"/>
      <point x="329" y="62"/>
      <point x="329" y="168" type="curve" smooth="yes"/>
      <point x="329" y="250"/>
      <point x="360" y="298"/>
      <point x="394" y="335" type="curve" smooth="yes"/>
      <point x="620" y="582" type="line"/>
      <point x="486" y="870" type="line" smooth="yes"/>
      <point x="445" y="958"/>
      <point x="374" y="1010"/>
      <point x="283" y="1010" type="curve" smooth="yes"/>
      <point x="201" y="1010"/>
      <point x="136" y="970"/>
      <point x="130" y="965" type="curve"/>
      <point x="116" y="1000" type="line"/>
      <point x="117" y="1001"/>
      <point x="197" y="1050"/>
      <point x="295" y="1050" type="curve" smooth="yes"/>
      <point x="400" y="1050"/>
      <point x="475" y="994"/>
      <point x="519" y="893" type="curve" smooth="yes"/>
      <point x="653" y="612" type="line"/>
      <point x="875" y="893" type="line" smooth="yes"/>
      <point x="954" y="993"/>
      <point x="1061" y="1050"/>
      <point x="1166" y="1050" type="curve" smooth="yes"/>
      <point x="1262" y="1050"/>
      <point x="1326" y="1001"/>
      <point x="1327" y="1000" type="curve"/>
      <point x="1301" y="965" type="line"/>
      <point x="1300" y="966"/>
      <point x="1249" y="1010"/>
      <point x="1164" y="1010" type="curve" smooth="yes"/>
      <point x="1073" y="1010"/>
      <point x="981" y="958"/>
      <point x="910" y="870" type="curve" smooth="yes"/>
      <point x="676" y="582" type="line"/>
      <point x="820" y="335" type="line" smooth="yes"/>
      <point x="832" y="315"/>
      <point x="838" y="291"/>
    </contour>
    <contour>
      <point x="550" y="30" type="curve" smooth="yes"/>
      <point x="689" y="30"/>
      <point x="793" y="128"/>
      <point x="793" y="259" type="curve" smooth="yes"/>
      <point x="793" y="292"/>
      <point x="785" y="314"/>
      <point x="765" y="347" type="curve" smooth="yes"/>
      <point x="642" y="552" type="line"/>
      <point x="453" y="347" type="line" smooth="yes"/>
      <point x="408" y="298"/>
      <point x="375" y="258"/>
      <point x="375" y="181" type="curve" smooth="yes"/>
      <point x="375" y="97"/>
      <point x="435" y="30"/>
    </contour>
  </outline>
</glyph>
<glyph name="uni0265" format="2">
  <advance width="1130"/>
  <unicode hex="0265"/>
  <anchor x="620" y="1040" name="top_center"/>
  <anchor x="437" y="0" name="bottom_center"/>
  <outline>
    <contour>
      <point x="278" y="1040" type="line"/>
      <point x="178" y="468" type="line" smooth="yes"/>
      <point x="169" y="420"/>
      <point x="164" y="372"/>
      <point x="164" y="326" type="curve" smooth="yes"/>
      <point x="164" y="163"/>
      <point x="229" y="30"/>
      <point x="440" y="30" type="curve" smooth="yes"/>
      <point x="710" y="30"/>
      <point x="819" y="249"/>
      <point x="858" y="468" type="curve" smooth="yes"/>
      <point x="958" y="1040" type="line"/>
      <point x="1003" y="1040" type="line"/>
      <point x="742" y="-440" type="line"/>
      <point x="697" y="-440" type="line"/>
      <point x="814" y="220" type="line"/>
      <point x="758" y="113"/>
      <point x="653" y="-10"/>
      <point x="423" y="-10" type="curve" smooth="yes"/>
      <point x="226" y="-10"/>
      <point x="118" y="98"/>
      <point x="118" y="316" type="curve" smooth="yes"/>
      <point x="118" y="362"/>
      <point x="123" y="412"/>
      <point x="133" y="468" type="curve"/>
      <point x="233" y="1040" type="line"/>
    </contour>
  </outline>
</glyph>
<glyph name="uni026A" format="2">
  <advance width="723"/>
  <unicode hex="026A"/>
  <anchor x="254" y="0" name="bottom_right"/>
  <anchor x="232" y="0" name="bottom_center"/>
  <anchor x="415" y="1040" name="top_center"/>
  <anchor x="228" y="-20" name="bottom_cedilla"/>
  <outline>
    <contour>
      <point x="233" y="1040" type="line"/>
      <point x="596" y="1040" type="line"/>
      <point x="589" y="1000" type="line"/>
      <point x="430" y="1000" type="line"/>
      <point x="261" y="40" type="line"/>
      <point x="420" y="40" type="line"/>
      <point x="413" y="0" type="line"/>
      <point x="50" y="0" type="line"/>
      <point x="57" y="40" type="line"/>
      <point x="216" y="40" type="line"/>
      <point x="385" y="1000" type="line"/>
      <point x="226" y="1000" type="line"/>
    </contour>
  </outline>
</glyph>
<glyph name="uni0270" format="2">
  <advance width="1694"/>
  <unicode hex="0270"/>
  <outline>
    <contour>
      <point x="923" y="1040" type="line"/>
      <point x="823" y="468" type="line" smooth="yes"/>
      <point x="813" y="414"/>
      <point x="807" y="360"/>
      <point x="807" y="310" type="curve" smooth="yes"/>
      <point x="807" y="155"/>
      <point x="864" y="30"/>
      <point x="1045" y="30" type="curve" smooth="yes"/>
      <point x="1285" y="30"/>
      <point x="1384" y="249"/>
      <point x="1423" y="468" type="curve" smooth="yes"/>
      <point x="1523" y="1040" type="line"/>
      <point x="1567" y="1040" type="line"/>
      <point x="1306" y="-440" type="line"/>
      <point x="1262" y="-440" type="line"/>
      <point x="1379" y="220" type="line"/>
      <point x="1333" y="113"/>
      <point x="1238" y="-10"/>
      <point x="1028" y="-10" type="curve" smooth="yes"/>
      <point x="862" y="-10"/>
      <point x="766" y="89"/>
      <point x="761" y="289" type="curve"/>
      <point x="692" y="90"/>
      <point x="581" y="-10"/>
      <point x="382" y="-10" type="curve" smooth="yes"/>
      <point x="212" y="-10"/>
      <point x="117" y="93"/>
      <point x="117" y="303" type="curve" smooth="yes"/>
      <point x="117" y="352"/>
      <point x="122" y="407"/>
      <point x="133" y="468" type="curve" smooth="yes"/>
      <point x="233" y="1040" type="line"/>
      <point x="277" y="1040" type="line"/>
      <point x="177" y="468" type="line" smooth="yes"/>
      <point x="168" y="418"/>
      <point x="163" y="368"/>
      <point x="163" y="321" type="curve" smooth="yes"/>
      <point x="163" y="161"/>
      <point x="224" y="30"/>
      <point x="409" y="30" type="curve" smooth="yes"/>
      <point x="629" y="30"/>
      <point x="738" y="249"/>
      <point x="777" y="468" type="curve" smooth="yes"/>
      <point x="877" y="1040" type="line"/>
    </contour>
  </outline>
</glyph>
<glyph name="uni0273" format="2">
  <advance width="1227"/>
  <unicode hex="0273"/>
  <outline>
    <contour>
      <point x="775" y="0" type="curve" smooth="yes"/>
      <point x="876" y="572" type="line" smooth="yes"/>
      <point x="885" y="620"/>
      <point x="890" y="667"/>
      <point x="890" y="713" type="curve" smooth="yes"/>
      <point x="890" y="876"/>
      <point x="824" y="1010"/>
      <point x="613" y="1010" type="curve" smooth="yes"/>
      <point x="343" y="1010"/>
      <point x="235" y="791"/>
      <point x="196" y="572" type="curve" smooth="yes"/>
      <point x="95" y="0" type="line"/>
      <point x="50" y="0" type="line"/>
      <point x="233" y="1040" type="line"/>
      <point x="278" y="1040" type="line"/>
      <point x="240" y="820" type="line"/>
      <point x="296" y="927"/>
      <point x="400" y="1050"/>
      <point x="630" y="1050" type="curve" smooth="yes"/>
      <point x="827" y="1050"/>
      <point x="935" y="942"/>
      <point x="935" y="724" type="curve" smooth="yes"/>
      <point x="935" y="678"/>
      <point x="931" y="627"/>
      <point x="921" y="572" type="curve"/>
      <point x="820" y="0" type="line" smooth="yes"/>
      <point x="817" y="-19"/>
      <point x="815" y="-37"/>
      <point x="815" y="-54" type="curve" smooth="yes"/>
      <point x="815" y="-181"/>
      <point x="901" y="-270"/>
      <point x="1037" y="-270" type="curve" smooth="yes"/>
      <point x="1041" y="-270"/>
      <point x="1046" y="-270"/>
      <point x="1050" y="-269" type="curve"/>
      <point x="1043" y="-309" type="line"/>
      <point x="1039" y="-310"/>
      <point x="1034" y="-310"/>
      <point x="1030" y="-310" type="curve" smooth="yes"/>
      <point x="872" y="-310"/>
      <point x="770" y="-206"/>
      <point x="770" y="-59" type="curve" smooth="yes"/>
      <point x="770" y="-40"/>
      <point x="771" y="-20"/>
    </contour>
  </outline>
</glyph>
<glyph name="uni0276" format="2">
  <advance width="1805"/>
  <unicode hex="0276"/>
  <outline>
    <contour>
      <point x="1532" y="540" type="line"/>
      <point x="1525" y="500" type="line"/>
      <point x="1012" y="500" type="line"/>
      <point x="931" y="40" type="line"/>
      <point x="1502" y="40" type="line"/>
      <point x="1495" y="0" type="line"/>
      <point x="879" y="0" type="line"/>
      <point x="1062" y="1040" type="line"/>
      <point x="1678" y="1040" type="line"/>
      <point x="1671" y="1000" type="line"/>
      <point x="1100" y="1000" type="line"/>
      <point x="1019" y="540" type="line"/>
    </contour>
    <contour>
      <point x="91" y="403" type="curve" smooth="yes"/>
      <point x="91" y="732"/>
      <point x="338" y="1050"/>
      <point x="652" y="1050" type="curve" smooth="yes"/>
      <point x="878" y="1050"/>
      <point x="1027" y="881"/>
      <point x="1027" y="636" type="curve" smooth="yes"/>
      <point x="1027" y="306"/>
      <point x="779" y="-10"/>
      <point x="465" y="-10" type="curve" smooth="yes"/>
      <point x="239" y="-10"/>
      <point x="91" y="159"/>
    </contour>
    <contour>
      <point x="645" y="1010" type="curve" smooth="yes"/>
      <point x="361" y="1010"/>
      <point x="137" y="713"/>
      <point x="137" y="412" type="curve" smooth="yes"/>
      <point x="137" y="192"/>
      <point x="265" y="30"/>
      <point x="472" y="30" type="curve" smooth="yes"/>
      <point x="755" y="30"/>
      <point x="981" y="327"/>
      <point x="981" y="628" type="curve" smooth="yes"/>
      <point x="981" y="848"/>
      <point x="852" y="1010"/>
    </contour>
  </outline>
</glyph>
<glyph name="uni027D" format="2">
  <advance width="777"/>
  <unicode hex="027D"/>
  <outline>
    <contour>
      <point x="70" y="-140" type="curve" smooth="yes"/>
      <point x="196" y="572" type="line" smooth="yes"/>
      <point x="235" y="791"/>
      <point x="343" y="1010"/>
      <point x="613" y="1010" type="curve" smooth="yes"/>
      <point x="659" y="1010"/>
      <point x="696" y="994"/>
      <point x="727" y="972" type="curve"/>
      <point x="756" y="1014" type="line"/>
      <point x="723" y="1035"/>
      <point x="674" y="1050"/>
      <point x="630" y="1050" type="curve" smooth="yes"/>
      <point x="400" y="1050"/>
      <point x="296" y="927"/>
      <point x="240" y="820" type="curve"/>
      <point x="278" y="1040" type="line"/>
      <point x="233" y="1040" type="line"/>
      <point x="25" y="-140" type="line" smooth="yes"/>
      <point x="21" y="-160"/>
      <point x="20" y="-180"/>
      <point x="20" y="-199" type="curve" smooth="yes"/>
      <point x="20" y="-346"/>
      <point x="123" y="-450"/>
      <point x="281" y="-450" type="curve" smooth="yes"/>
      <point x="285" y="-450"/>
      <point x="289" y="-450"/>
      <point x="293" y="-449" type="curve"/>
      <point x="300" y="-409" type="line"/>
      <point x="296" y="-410"/>
      <point x="292" y="-410"/>
      <point x="288" y="-410" type="curve" smooth="yes"/>
      <point x="151" y="-410"/>
      <point x="65" y="-320"/>
      <point x="65" y="-193" type="curve" smooth="yes"/>
      <point x="65" y="-176"/>
      <point x="67" y="-158"/>
    </contour>
  </outline>
</glyph>
<glyph name="uni0282" format="2">
  <advance width="1002"/>
  <unicode hex="0282"/>
  <outline>
    <contour>
      <point x="177" y="723" type="curve" smooth="yes"/>
      <point x="177" y="926"/>
      <point x="348" y="1050"/>
      <point x="560" y="1050" type="curve" smooth="yes"/>
      <point x="753" y="1050"/>
      <point x="848" y="953"/>
      <point x="856" y="808" type="curve"/>
      <point x="815" y="786" type="line"/>
      <point x="803" y="964"/>
      <point x="669" y="1010"/>
      <point x="553" y="1010" type="curve" smooth="yes"/>
      <point x="427" y="1010"/>
      <point x="225" y="935"/>
      <point x="223" y="735" type="curve" smooth="yes"/>
      <point x="223" y="596"/>
      <point x="360" y="577"/>
      <point x="471" y="546" type="curve" smooth="yes"/>
      <point x="648" y="497"/>
      <point x="783" y="464"/>
      <point x="783" y="315" type="curve" smooth="yes"/>
      <point x="783" y="95"/>
      <point x="593" y="-6"/>
      <point x="373" y="-10" type="curve" smooth="yes"/>
      <point x="171" y="-10"/>
      <point x="63" y="108"/>
      <point x="55" y="253" type="curve"/>
      <point x="96" y="275" type="line"/>
      <point x="106" y="105"/>
      <point x="248" y="30"/>
      <point x="380" y="30" type="curve" smooth="yes"/>
      <point x="522" y="30"/>
      <point x="737" y="101"/>
      <point x="737" y="301" type="curve" smooth="yes"/>
      <point x="737" y="437"/>
      <point x="600" y="471"/>
      <point x="461" y="506" type="curve" smooth="yes"/>
      <point x="320" y="541"/>
      <point x="177" y="577"/>
    </contour>
    <contour>
      <point x="55" y="0" type="line" smooth="yes"/>
      <point x="52" y="-19"/>
      <point x="50" y="-37"/>
      <point x="50" y="-54" type="curve" smooth="yes"/>
      <point x="50" y="-181"/>
      <point x="136" y="-270"/>
      <point x="272" y="-270" type="curve" smooth="yes"/>
      <point x="276" y="-270"/>
      <point x="281" y="-270"/>
      <point x="285" y="-269" type="curve"/>
      <point x="278" y="-309" type="line"/>
      <point x="274" y="-310"/>
      <point x="269" y="-310"/>
      <point x="265" y="-310" type="curve" smooth="yes"/>
      <point x="107" y="-310"/>
      <point x="5" y="-206"/>
      <point x="5" y="-59" type="curve" smooth="yes"/>
      <point x="5" y="-40"/>
      <point x="6" y="-20"/>
      <point x="10" y="0" type="curve" smooth="yes"/>
      <point x="55" y="253" type="line"/>
      <point x="87" y="180" type="line"/>
    </contour>
  </outline>
</glyph>
<glyph name="uni0283" format="2">
  <advance width="871"/>
  <unicode hex="0283"/>
  <outline>
    <contour>
      <point x="258" y="-140" type="line" smooth="yes"/>
      <point x="216" y="-380"/>
      <point x="103" y="-410"/>
      <point x="13" y="-410" type="curve" smooth="yes"/>
      <point x="-25" y="-410"/>
      <point x="-78" y="-403"/>
      <point x="-112" y="-375" type="curve"/>
      <point x="-134" y="-418" type="line"/>
      <point x="-97" y="-436"/>
      <point x="-43" y="-450"/>
      <point x="6" y="-450" type="curve" smooth="yes"/>
      <point x="182" y="-450"/>
      <point x="268" y="-340"/>
      <point x="303" y="-140" type="curve" smooth="yes"/>
      <point x="536" y="1180" type="line" smooth="yes"/>
      <point x="578" y="1420"/>
      <point x="692" y="1450"/>
      <point x="782" y="1450" type="curve" smooth="yes"/>
      <point x="820" y="1450"/>
      <point x="873" y="1443"/>
      <point x="907" y="1415" type="curve"/>
      <point x="928" y="1458" type="line"/>
      <point x="891" y="1476"/>
      <point x="838" y="1490"/>
      <point x="789" y="1490" type="curve" smooth="yes"/>
      <point x="613" y="1490"/>
      <point x="526" y="1380"/>
      <point x="491" y="1180" type="curve" smooth="yes"/>
    </contour>
  </outline>
</glyph>
<glyph name="uni0286" format="2">
  <advance width="792"/>
  <unicode hex="0286"/>
  <outline>
    <contour>
      <point x="657" y="-28" type="line"/>
      <point x="77" y="-28" type="line"/>
      <point x="70" y="-68" type="line"/>
      <point x="650" y="-68" type="line"/>
    </contour>
    <contour>
      <point x="-175" y="-278" type="curve" smooth="yes"/>
      <point x="-175" y="-378"/>
      <point x="-104" y="-450"/>
      <point x="3" y="-450" type="curve" smooth="yes"/>
      <point x="123" y="-450"/>
      <point x="230" y="-359"/>
      <point x="251" y="-239" type="curve" smooth="yes"/>
      <point x="501" y="1180" type="line" smooth="yes"/>
      <point x="543" y="1420"/>
      <point x="657" y="1450"/>
      <point x="747" y="1450" type="curve" smooth="yes"/>
      <point x="785" y="1450"/>
      <point x="838" y="1443"/>
      <point x="872" y="1415" type="curve"/>
      <point x="893" y="1458" type="line"/>
      <point x="856" y="1476"/>
      <point x="803" y="1490"/>
      <point x="754" y="1490" type="curve" smooth="yes"/>
      <point x="578" y="1490"/>
      <point x="491" y="1380"/>
      <point x="456" y="1180" type="curve" smooth="yes"/>
      <point x="206" y="-239" type="line" smooth="yes"/>
      <point x="188" y="-339"/>
      <point x="110" y="-410"/>
      <point x="10" y="-410" type="curve" smooth="yes"/>
      <point x="-77" y="-410"/>
      <point x="-130" y="-355"/>
      <point x="-130" y="-275" type="curve" smooth="yes"/>
      <point x="-130" y="-173"/>
      <point x="-54" y="-68"/>
      <point x="70" y="-68" type="curve"/>
      <point x="77" y="-28" type="line"/>
      <point x="-62" y="-28"/>
      <point x="-175" y="-147"/>
    </contour>
  </outline>
</glyph>
<glyph name="uni0289" format="2">
  <advance width="1190"/>
  <unicode hex="0289"/>
  <anchor x="465" y="0" name="bottom_center"/>
  <anchor x="648" y="1040" name="top_center"/>
  <anchor x="1033" y="1040" name="top_right"/>
  <anchor x="862" y="-30" name="bottom_right"/>
  <anchor x="453" y="-10" name="bottom_cedilla"/>
  <outline>
    <contour>
      <point x="-35" y="540" type="line"/>
      <point x="1155" y="540" type="line"/>
      <point x="1148" y="500" type="line"/>
      <point x="-42" y="500" type="line"/>
    </contour>
    <contour>
      <point x="308" y="1040" type="line"/>
      <point x="208" y="468" type="line" smooth="yes"/>
      <point x="200" y="420"/>
      <point x="194" y="373"/>
      <point x="194" y="327" type="curve" smooth="yes"/>
      <point x="194" y="164"/>
      <point x="259" y="30"/>
      <point x="470" y="30" type="curve" smooth="yes"/>
      <point x="740" y="30"/>
      <point x="849" y="249"/>
      <point x="888" y="468" type="curve" smooth="yes"/>
      <point x="988" y="1040" type="line"/>
      <point x="1033" y="1040" type="line"/>
      <point x="888" y="208" type="line" smooth="yes"/>
      <point x="879" y="159"/>
      <point x="877" y="107"/>
      <point x="877" y="67" type="curve" smooth="yes"/>
      <point x="877" y="27"/>
      <point x="879" y="0"/>
      <point x="879" y="0" type="curve"/>
      <point x="834" y="0" type="line"/>
      <point x="834" y="0"/>
      <point x="833" y="17"/>
      <point x="833" y="47" type="curve" smooth="yes"/>
      <point x="833" y="93"/>
      <point x="833" y="166"/>
      <point x="844" y="220" type="curve"/>
      <point x="798" y="113"/>
      <point x="683" y="-10"/>
      <point x="453" y="-10" type="curve" smooth="yes"/>
      <point x="256" y="-10"/>
      <point x="148" y="98"/>
      <point x="148" y="316" type="curve" smooth="yes"/>
      <point x="148" y="362"/>
      <point x="153" y="412"/>
      <point x="163" y="468" type="curve" smooth="yes"/>
      <point x="263" y="1040" type="line"/>
    </contour>
  </outline>
</glyph>
<glyph name="uni028E" format="2">
  <advance width="1078"/>
  <unicode hex="028E"/>
  <outline>
    <contour>
      <point x="723" y="1352" type="line"/>
      <point x="772" y="1441"/>
      <point x="850" y="1490"/>
      <point x="966" y="1490" type="curve" smooth="yes"/>
      <point x="1015" y="1490"/>
      <point x="1068" y="1476"/>
      <point x="1105" y="1458" type="curve"/>
      <point x="1084" y="1415" type="line"/>
      <point x="1050" y="1443"/>
      <point x="997" y="1450"/>
      <point x="959" y="1450" type="curve" smooth="yes"/>
      <point x="894" y="1450"/>
      <point x="816" y="1435"/>
      <point x="763" y="1336" type="curve"/>
      <point x="603" y="1040" type="line"/>
      <point x="800" y="0" type="line"/>
      <point x="752" y="0" type="line"/>
      <point x="569" y="984" type="line"/>
      <point x="38" y="0" type="line"/>
      <point x="-10" y="0" type="line"/>
      <point x="553" y="1040" type="line"/>
    </contour>
  </outline>
</glyph>
<glyph name="uni0291" format="2">
  <advance width="1042"/>
  <unicode hex="0291"/>
  <outline>
    <contour>
      <point x="907" y="248" type="curve" smooth="yes"/>
      <point x="907" y="147"/>
      <point x="833" y="40"/>
      <point x="708" y="40" type="curve" smooth="yes"/>
      <point x="86" y="40" type="line"/>
      <point x="56" y="32" type="line"/>
      <point x="50" y="0" type="line"/>
      <point x="701" y="0" type="line" smooth="yes"/>
      <point x="840" y="0"/>
      <point x="953" y="120"/>
      <point x="953" y="251" type="curve" smooth="yes"/>
      <point x="953" y="351"/>
      <point x="882" y="422"/>
      <point x="776" y="422" type="curve" smooth="yes"/>
      <point x="426" y="422"/>
      <point x="211" y="-145"/>
      <point x="211" y="-145" type="curve"/>
      <point x="247" y="-168" type="line"/>
      <point x="247" y="-168"/>
      <point x="462" y="382"/>
      <point x="768" y="382" type="curve" smooth="yes"/>
      <point x="855" y="382"/>
      <point x="907" y="328"/>
    </contour>
    <contour>
      <point x="233" y="1040" type="line"/>
      <point x="226" y="1000" type="line"/>
      <point x="849" y="1000" type="line"/>
      <point x="880" y="1008" type="line"/>
      <point x="885" y="1040" type="line"/>
    </contour>
    <contour>
      <point x="109" y="40" type="line"/>
      <point x="880" y="1008" type="line"/>
      <point x="826" y="1000" type="line"/>
      <point x="56" y="32" type="line"/>
    </contour>
  </outline>
</glyph>
<glyph name="uni029D" format="2">
  <advance width="792"/>
  <unicode hex="029D"/>
  <outline>
    <contour>
      <point x="657" y="-28" type="line"/>
      <point x="77" y="-28" type="line"/>
      <point x="70" y="-68" type="line"/>
      <point x="650" y="-68" type="line"/>
    </contour>
    <contour>
      <point x="444" y="1352" type="curve" smooth="yes"/>
      <point x="444" y="1388"/>
      <point x="473" y="1416"/>
      <point x="509" y="1416" type="curve" smooth="yes"/>
      <point x="545" y="1416"/>
      <point x="572" y="1388"/>
      <point x="572" y="1352" type="curve" smooth="yes"/>
      <point x="572" y="1316"/>
      <point x="544" y="1288"/>
      <point x="508" y="1288" type="curve" smooth="yes"/>
      <point x="472" y="1288"/>
      <point x="444" y="1316"/>
    </contour>
    <contour>
      <point x="-175" y="-278" type="curve" smooth="yes"/>
      <point x="-175" y="-378"/>
      <point x="-104" y="-450"/>
      <point x="3" y="-450" type="curve" smooth="yes"/>
      <point x="123" y="-450"/>
      <point x="230" y="-359"/>
      <point x="251" y="-239" type="curve" smooth="yes"/>
      <point x="476" y="1040" type="line"/>
      <point x="431" y="1040" type="line"/>
      <point x="206" y="-239" type="line" smooth="yes"/>
      <point x="188" y="-339"/>
      <point x="110" y="-410"/>
      <point x="10" y="-410" type="curve" smooth="yes"/>
      <point x="-77" y="-410"/>
      <point x="-130" y="-355"/>
      <point x="-130" y="-275" type="curve" smooth="yes"/>
      <point x="-130" y="-173"/>
      <point x="-54" y="-68"/>
      <point x="70" y="-68" type="curve"/>
      <point x="77" y="-28" type="line"/>
      <point x="-62" y="-28"/>
      <point x="-175" y="-147"/>
    </contour>
  </outline>
</glyph>
<glyph name="uni029E" format="2">
  <advance width="1049"/>
  <unicode hex="029E"/>
  <outline>
    <contour>
      <point x="623" y="879" type="line"/>
      <point x="587" y="850" type="line"/>
      <point x="251" y="1480" type="line"/>
      <point x="303" y="1480" type="line"/>
    </contour>
    <contour>
      <point x="895" y="1140" type="line"/>
      <point x="955" y="1480" type="line"/>
      <point x="1000" y="1480" type="line"/>
      <point x="739" y="0" type="line"/>
      <point x="694" y="0" type="line"/>
      <point x="885" y="1082" type="line"/>
      <point x="130" y="440" type="line"/>
      <point x="77" y="440"/>
      <point x="125" y="440"/>
      <point x="72" y="440" type="curve"/>
    </contour>
  </outline>
</glyph>
<glyph name="uni02A8" format="2">
  <advance width="1626"/>
  <unicode hex="02A8"/>
  <outline>
    <contour>
      <point x="1152" y="40" type="line" smooth="yes"/>
      <point x="1277" y="40"/>
      <point x="1351" y="147"/>
      <point x="1351" y="248" type="curve" smooth="yes"/>
      <point x="1351" y="328"/>
      <point x="1299" y="382"/>
      <point x="1212" y="382" type="curve" smooth="yes"/>
      <point x="902" y="382"/>
      <point x="775" y="-10"/>
      <point x="425" y="-10" type="curve" smooth="yes"/>
      <point x="285" y="-10"/>
      <point x="226" y="60"/>
      <point x="226" y="190" type="curve" smooth="yes"/>
      <point x="226" y="223"/>
      <point x="230" y="260"/>
      <point x="237" y="300" type="curve" smooth="yes"/>
      <point x="360" y="1000" type="line"/>
      <point x="116" y="1000" type="line"/>
      <point x="123" y="1040" type="line"/>
      <point x="201" y="1040" type="line" smooth="yes"/>
      <point x="351" y="1040"/>
      <point x="371" y="1056"/>
      <point x="397" y="1206" type="curve" smooth="yes"/>
      <point x="417" y="1320" type="line"/>
      <point x="462" y="1320" type="line"/>
      <point x="412" y="1040" type="line"/>
      <point x="718" y="1040" type="line"/>
      <point x="711" y="1000" type="line"/>
      <point x="405" y="1000" type="line"/>
      <point x="282" y="300" type="line" smooth="yes"/>
      <point x="275" y="262"/>
      <point x="272" y="228"/>
      <point x="272" y="200" type="curve" smooth="yes"/>
      <point x="272" y="51"/>
      <point x="356" y="30"/>
      <point x="432" y="30" type="curve" smooth="yes"/>
      <point x="742" y="30"/>
      <point x="870" y="422"/>
      <point x="1220" y="422" type="curve" smooth="yes"/>
      <point x="1326" y="422"/>
      <point x="1397" y="351"/>
      <point x="1397" y="251" type="curve" smooth="yes"/>
      <point x="1397" y="120"/>
      <point x="1284" y="0"/>
      <point x="1145" y="0" type="curve" smooth="yes"/>
      <point x="973" y="0" type="line" smooth="yes"/>
      <point x="760" y="0"/>
      <point x="616" y="155"/>
      <point x="616" y="398" type="curve" smooth="yes"/>
      <point x="616" y="726"/>
      <point x="851" y="1050"/>
      <point x="1158" y="1050" type="curve" smooth="yes"/>
      <point x="1325" y="1050"/>
      <point x="1450" y="950"/>
      <point x="1495" y="788" type="curve"/>
      <point x="1452" y="766" type="line"/>
      <point x="1405" y="932"/>
      <point x="1271" y="1010"/>
      <point x="1151" y="1010" type="curve" smooth="yes"/>
      <point x="915" y="1010"/>
      <point x="661" y="748"/>
      <point x="661" y="405" type="curve" smooth="yes"/>
      <point x="661" y="151"/>
      <point x="833" y="40"/>
      <point x="980" y="40" type="curve" smooth="yes"/>
    </contour>
  </outline>
</glyph>
<glyph name="uni02A9" format="2">
  <advance width="1615"/>
  <unicode hex="02A9"/>
  <outline>
    <contour>
      <point x="1268" y="-210" type="line" smooth="yes"/>
      <point x="1238" y="-380"/>
      <point x="1139" y="-450"/>
      <point x="989" y="-450" type="curve" smooth="yes"/>
      <point x="961" y="-450"/>
      <point x="932" y="-443"/>
      <point x="910" y="-426" type="curve"/>
      <point x="928" y="-384" type="line"/>
      <point x="955" y="-404"/>
      <point x="982" y="-410"/>
      <point x="996" y="-410" type="curve" smooth="yes"/>
      <point x="1049" y="-410"/>
      <point x="1189" y="-400"/>
      <point x="1223" y="-210" type="curve" smooth="yes"/>
      <point x="1361" y="572" type="line" smooth="yes"/>
      <point x="1370" y="620"/>
      <point x="1375" y="667"/>
      <point x="1375" y="713" type="curve" smooth="yes"/>
      <point x="1375" y="876"/>
      <point x="1309" y="1010"/>
      <point x="1098" y="1010" type="curve" smooth="yes"/>
      <point x="828" y="1010"/>
      <point x="720" y="791"/>
      <point x="681" y="572" type="curve" smooth="yes"/>
      <point x="580" y="0" type="line"/>
      <point x="535" y="0" type="line"/>
      <point x="718" y="1040" type="line"/>
      <point x="763" y="1040" type="line"/>
      <point x="725" y="820" type="line"/>
      <point x="781" y="927"/>
      <point x="885" y="1050"/>
      <point x="1115" y="1050" type="curve" smooth="yes"/>
      <point x="1312" y="1050"/>
      <point x="1420" y="942"/>
      <point x="1420" y="724" type="curve" smooth="yes"/>
      <point x="1420" y="678"/>
      <point x="1416" y="627"/>
      <point x="1406" y="572" type="curve" smooth="yes"/>
    </contour>
    <contour>
      <point x="808" y="1415" type="line"/>
      <point x="774" y="1443"/>
      <point x="721" y="1450"/>
      <point x="683" y="1450" type="curve" smooth="yes"/>
      <point x="593" y="1450"/>
      <point x="479" y="1420"/>
      <point x="437" y="1180" type="curve" smooth="yes"/>
      <point x="412" y="1040" type="line"/>
      <point x="718" y="1040" type="line"/>
      <point x="711" y="1000" type="line"/>
      <point x="405" y="1000" type="line"/>
      <point x="229" y="0" type="line"/>
      <point x="184" y="0" type="line"/>
      <point x="360" y="1000" type="line"/>
      <point x="116" y="1000" type="line"/>
      <point x="123" y="1040" type="line"/>
      <point x="367" y="1040" type="line"/>
      <point x="392" y="1180" type="line" smooth="yes"/>
      <point x="427" y="1380"/>
      <point x="514" y="1490"/>
      <point x="690" y="1490" type="curve" smooth="yes"/>
      <point x="739" y="1490"/>
      <point x="792" y="1476"/>
      <point x="829" y="1458" type="curve"/>
    </contour>
  </outline>
</glyph>
<glyph name="uni02AA" format="2">
  <advance width="1112"/>
  <unicode hex="02AA"/>
  <outline>
    <contour>
      <point x="136" y="230" type="line" smooth="yes"/>
      <point x="132" y="210"/>
      <point x="131" y="191"/>
      <point x="131" y="175" type="curve" smooth="yes"/>
      <point x="131" y="40"/>
      <point x="247" y="40"/>
      <point x="294" y="40" type="curve" smooth="yes"/>
      <point x="532" y="40" type="line" smooth="yes"/>
      <point x="720" y="40"/>
      <point x="887" y="132"/>
      <point x="887" y="301" type="curve" smooth="yes"/>
      <point x="887" y="431"/>
      <point x="753" y="465"/>
      <point x="616" y="500" type="curve" smooth="yes"/>
      <point x="473" y="536"/>
      <point x="327" y="574"/>
      <point x="327" y="723" type="curve" smooth="yes"/>
      <point x="327" y="918"/>
      <point x="504" y="1050"/>
      <point x="710" y="1050" type="curve" smooth="yes"/>
      <point x="903" y="1050"/>
      <point x="998" y="953"/>
      <point x="1006" y="808" type="curve"/>
      <point x="965" y="786" type="line"/>
      <point x="953" y="964"/>
      <point x="819" y="1010"/>
      <point x="703" y="1010" type="curve" smooth="yes"/>
      <point x="550" y="1010"/>
      <point x="374" y="917"/>
      <point x="374" y="735" type="curve" smooth="yes"/>
      <point x="374" y="597"/>
      <point x="510" y="577"/>
      <point x="621" y="546" type="curve" smooth="yes"/>
      <point x="797" y="497"/>
      <point x="933" y="464"/>
      <point x="933" y="315" type="curve" smooth="yes"/>
      <point x="933" y="135"/>
      <point x="785" y="0"/>
      <point x="525" y="0" type="curve" smooth="yes"/>
      <point x="287" y="0" type="line" smooth="yes"/>
      <point x="159" y="0"/>
      <point x="85" y="44"/>
      <point x="85" y="163" type="curve" smooth="yes"/>
      <point x="85" y="183"/>
      <point x="87" y="205"/>
      <point x="91" y="230" type="curve" smooth="yes"/>
      <point x="311" y="1480" type="line"/>
      <point x="356" y="1480" type="line"/>
    </contour>
  </outline>
</glyph>
<glyph name="uni02AB" format="2">
  <advance width="1169"/>
  <unicode hex="02AB"/>
  <outline>
    <contour>
      <point x="356" y="1480" type="line"/>
      <point x="311" y="1480" type="line"/>
      <point x="91" y="230" type="line" smooth="yes"/>
      <point x="87" y="205"/>
      <point x="85" y="183"/>
      <point x="85" y="163" type="curve" smooth="yes"/>
      <point x="85" y="44"/>
      <point x="159" y="0"/>
      <point x="287" y="0" type="curve"/>
      <point x="317" y="40" type="line"/>
      <point x="294" y="40" type="line" smooth="yes"/>
      <point x="247" y="40"/>
      <point x="131" y="40"/>
      <point x="131" y="175" type="curve" smooth="yes"/>
      <point x="131" y="191"/>
      <point x="132" y="210"/>
      <point x="136" y="230" type="curve" smooth="yes"/>
    </contour>
    <contour>
      <point x="470" y="1040" type="line"/>
      <point x="463" y="1000" type="line"/>
      <point x="1086" y="1000" type="line"/>
      <point x="1117" y="1008" type="line"/>
      <point x="1122" y="1040" type="line"/>
    </contour>
    <contour>
      <point x="946" y="40" type="line"/>
      <point x="323" y="40" type="line"/>
      <point x="293" y="32" type="line"/>
      <point x="287" y="0" type="line"/>
      <point x="939" y="0" type="line"/>
    </contour>
    <contour>
      <point x="346" y="40" type="line"/>
      <point x="1117" y="1008" type="line"/>
      <point x="1063" y="1000" type="line"/>
      <point x="293" y="32" type="line"/>
    </contour>
  </outline>
</glyph>
<glyph name="uni02AD" format="2">
  <advance width="948"/>
  <unicode hex="02AD"/>
  <outline>
    <contour>
      <point x="894" y="1480" type="line"/>
      <point x="939" y="1480" type="line"/>
      <point x="865" y="1060" type="line"/>
      <point x="820" y="1060" type="line"/>
    </contour>
    <contour>
      <point x="271" y="1480" type="line"/>
      <point x="316" y="1480" type="line"/>
      <point x="242" y="1060" type="line"/>
      <point x="197" y="1060" type="line"/>
    </contour>
    <contour>
      <point x="309" y="1440" type="line"/>
      <point x="316" y="1480" type="line"/>
      <point x="894" y="1480" type="line"/>
      <point x="887" y="1440" type="line"/>
    </contour>
    <contour>
      <point x="707" y="420" type="line"/>
      <point x="752" y="420" type="line"/>
      <point x="678" y="0" type="line"/>
      <point x="633" y="0" type="line"/>
    </contour>
    <contour>
      <point x="84" y="420" type="line"/>
      <point x="129" y="420" type="line"/>
      <point x="55" y="0" type="line"/>
      <point x="10" y="0" type="line"/>
    </contour>
    <contour>
      <point x="122" y="380" type="line"/>
      <point x="129" y="420" type="line"/>
      <point x="707" y="420" type="line"/>
      <point x="700" y="380" type="line"/>
    </contour>
  </outline>
</glyph>
<glyph name="uni02B0" format="2">
  <advance width="678"/>
  <unicode hex="02B0"/>
  <outline>
    <contour>
      <point x="550" y="810" type="line"/>
      <point x="608" y="1138" type="line" smooth="yes"/>
      <point x="613" y="1165"/>
      <point x="615" y="1192"/>
      <point x="615" y="1217" type="curve" smooth="yes"/>
      <point x="615" y="1312"/>
      <point x="577" y="1389"/>
      <point x="454" y="1389" type="curve" smooth="yes"/>
      <point x="298" y="1389"/>
      <point x="234" y="1264"/>
      <point x="212" y="1138" type="curve" smooth="yes"/>
      <point x="154" y="810" type="line"/>
      <point x="121" y="810" type="line"/>
      <point x="272" y="1668" type="line"/>
      <point x="305" y="1668" type="line"/>
      <point x="238" y="1288" type="line"/>
      <point x="271" y="1352"/>
      <point x="333" y="1419"/>
      <point x="469" y="1419" type="curve" smooth="yes"/>
      <point x="586" y="1419"/>
      <point x="650" y="1357"/>
      <point x="650" y="1230" type="curve" smooth="yes"/>
      <point x="650" y="1203"/>
      <point x="647" y="1174"/>
      <point x="641" y="1142" type="curve" smooth="yes"/>
      <point x="583" y="810" type="line"/>
    </contour>
  </outline>
</glyph>
<glyph name="uni02B1" format="2">
  <advance width="678"/>
  <unicode hex="02B1"/>
  <outline>
    <contour>
      <point x="238" y="1477" type="line"/>
      <point x="257" y="1586"/>
      <point x="362" y="1675"/>
      <point x="474" y="1675" type="curve" smooth="yes"/>
      <point x="484" y="1675"/>
      <point x="491" y="1674"/>
      <point x="501" y="1673" type="curve"/>
      <point x="496" y="1643" type="line"/>
      <point x="486" y="1645"/>
      <point x="479" y="1645"/>
      <point x="469" y="1645" type="curve" smooth="yes"/>
      <point x="412" y="1645"/>
      <point x="292" y="1598"/>
      <point x="271" y="1477" type="curve"/>
      <point x="238" y="1288" type="line"/>
      <point x="271" y="1352"/>
      <point x="333" y="1419"/>
      <point x="469" y="1419" type="curve" smooth="yes"/>
      <point x="586" y="1419"/>
      <point x="650" y="1357"/>
      <point x="650" y="1230" type="curve" smooth="yes"/>
      <point x="650" y="1203"/>
      <point x="647" y="1174"/>
      <point x="641" y="1142" type="curve" smooth="yes"/>
      <point x="583" y="810" type="line"/>
      <point x="550" y="810" type="line"/>
      <point x="608" y="1138" type="line" smooth="yes"/>
      <point x="613" y="1165"/>
      <point x="615" y="1192"/>
      <point x="615" y="1217" type="curve" smooth="yes"/>
      <point x="615" y="1312"/>
      <point x="577" y="1389"/>
      <point x="454" y="1389" type="curve" smooth="yes"/>
      <point x="298" y="1389"/>
      <point x="234" y="1264"/>
      <point x="212" y="1138" type="curve" smooth="yes"/>
      <point x="154" y="810" type="line"/>
      <point x="121" y="810" type="line"/>
    </contour>
  </outline>
</glyph>
<glyph name="uni02B2" format="2">
  <advance width="364"/>
  <unicode hex="02B2"/>
  <outline>
    <contour>
      <point x="381" y="1535" type="curve" smooth="yes"/>
      <point x="354" y="1535"/>
      <point x="333" y="1556"/>
      <point x="333" y="1583" type="curve" smooth="yes"/>
      <point x="333" y="1610"/>
      <point x="355" y="1631"/>
      <point x="382" y="1631" type="curve" smooth="yes"/>
      <point x="409" y="1631"/>
      <point x="429" y="1610"/>
      <point x="429" y="1583" type="curve" smooth="yes"/>
      <point x="429" y="1556"/>
      <point x="408" y="1535"/>
    </contour>
    <contour>
      <point x="335" y="1413" type="line"/>
      <point x="368" y="1413" type="line"/>
      <point x="240" y="688" type="line" smooth="yes"/>
      <point x="223" y="589"/>
      <point x="159" y="549"/>
      <point x="62" y="549" type="curve" smooth="yes"/>
      <point x="44" y="549"/>
      <point x="26" y="554"/>
      <point x="12" y="567" type="curve"/>
      <point x="23" y="594" type="line"/>
      <point x="41" y="583"/>
      <point x="57" y="579"/>
      <point x="66" y="579" type="curve" smooth="yes"/>
      <point x="99" y="579"/>
      <point x="189" y="585"/>
      <point x="208" y="694" type="curve" smooth="yes"/>
    </contour>
  </outline>
</glyph>
<glyph name="uni02B7" format="2">
  <advance width="955"/>
  <unicode hex="02B7"/>
  <outline>
    <contour>
      <point x="585" y="1347" type="line"/>
      <point x="311" y="810" type="line"/>
      <point x="281" y="810" type="line"/>
      <point x="191" y="1413" type="line"/>
      <point x="227" y="1413" type="line"/>
      <point x="308" y="875" type="line"/>
      <point x="581" y="1413" type="line"/>
      <point x="612" y="1413" type="line"/>
      <point x="695" y="879" type="line"/>
      <point x="964" y="1413" type="line"/>
      <point x="1002" y="1413" type="line"/>
      <point x="697" y="810" type="line"/>
      <point x="668" y="810" type="line"/>
    </contour>
  </outline>
</glyph>
<glyph name="uni02B8" format="2">
  <advance width="641"/>
  <unicode hex="02B8"/>
  <outline>
    <contour>
      <point x="265" y="631" type="line" smooth="yes"/>
      <point x="235" y="576"/>
      <point x="189" y="545"/>
      <point x="122" y="545" type="curve" smooth="yes"/>
      <point x="94" y="545"/>
      <point x="64" y="555"/>
      <point x="43" y="569" type="curve"/>
      <point x="60" y="601" type="line"/>
      <point x="80" y="585"/>
      <point x="106" y="575"/>
      <point x="128" y="575" type="curve" smooth="yes"/>
      <point x="166" y="575"/>
      <point x="206" y="584"/>
      <point x="237" y="640" type="curve" smooth="yes"/>
      <point x="326" y="806" type="line"/>
      <point x="218" y="1413" type="line"/>
      <point x="254" y="1413" type="line"/>
      <point x="354" y="855" type="line"/>
      <point x="652" y="1413" type="line"/>
      <point x="688" y="1413" type="line"/>
    </contour>
  </outline>
</glyph>
<glyph name="uni02BE" format="2">
  <advance width="427"/>
  <unicode hex="02BE"/>
  <outline>
    <contour>
      <point x="202" y="1200" type="line"/>
      <point x="296" y="1200"/>
      <point x="372" y="1283"/>
      <point x="372" y="1374" type="curve" smooth="yes"/>
      <point x="372" y="1443"/>
      <point x="326" y="1494"/>
      <point x="253" y="1494" type="curve"/>
      <point x="260" y="1534" type="line"/>
      <point x="353" y="1534"/>
      <point x="418" y="1468"/>
      <point x="418" y="1380" type="curve" smooth="yes"/>
      <point x="418" y="1265"/>
      <point x="312" y="1160"/>
      <point x="195" y="1160" type="curve"/>
    </contour>
  </outline>
</glyph>
<glyph name="uni02BF" format="2">
  <advance width="427"/>
  <unicode hex="02BF"/>
  <outline>
    <contour>
      <point x="447" y="1534" type="line"/>
      <point x="329" y="1534"/>
      <point x="225" y="1429"/>
      <point x="225" y="1314" type="curve" smooth="yes"/>
      <point x="225" y="1226"/>
      <point x="289" y="1160"/>
      <point x="382" y="1160" type="curve"/>
      <point x="389" y="1200" type="line"/>
      <point x="317" y="1200"/>
      <point x="271" y="1251"/>
      <point x="271" y="1319" type="curve" smooth="yes"/>
      <point x="271" y="1409"/>
      <point x="346" y="1494"/>
      <point x="440" y="1494" type="curve"/>
    </contour>
  </outline>
</glyph>
<glyph name="caron" format="2">
  <advance width="668"/>
  <unicode hex="02C7"/>
  <outline>
    <contour>
      <point x="295" y="1480" type="line"/>
      <point x="448" y="1224" type="line"/>
      <point x="392" y="1224" type="line"/>
      <point x="251" y="1480" type="line"/>
    </contour>
    <contour>
      <point x="635" y="1480" type="line"/>
      <point x="679" y="1480" type="line"/>
      <point x="448" y="1224" type="line"/>
      <point x="392" y="1224" type="line"/>
    </contour>
  </outline>
</glyph>
<glyph name="uni02C8" format="2">
  <advance width="284"/>
  <unicode hex="02C8"/>
  <outline>
    <contour>
      <point x="250" y="1224" type="line"/>
      <point x="206" y="1224" type="line"/>
      <point x="251" y="1480" type="line"/>
      <point x="295" y="1480" type="line"/>
    </contour>
  </outline>
</glyph>
<glyph name="uni02CD" format="2">
  <advance width="726"/>
  <unicode hex="02CD"/>
  <outline>
    <contour>
      <point x="-58" y="-274" type="line"/>
      <point x="-51" y="-234" type="line"/>
      <point x="485" y="-234" type="line"/>
      <point x="478" y="-274" type="line"/>
    </contour>
  </outline>
</glyph>
<glyph name="uni02D1" format="2">
  <advance width="430"/>
  <unicode hex="02D1"/>
  <outline>
    <contour>
      <point x="236" y="855" type="line"/>
      <point x="184" y="985" type="line"/>
      <point x="334" y="985" type="line"/>
    </contour>
  </outline>
</glyph>
<glyph name="breve" format="2">
  <advance width="732"/>
  <unicode hex="02D8"/>
  <outline>
    <contour>
      <point x="452" y="1224" type="curve" smooth="yes"/>
      <point x="334" y="1224"/>
      <point x="247" y="1316"/>
      <point x="247" y="1435" type="curve" smooth="yes"/>
      <point x="247" y="1449"/>
      <point x="248" y="1465"/>
      <point x="251" y="1480" type="curve"/>
      <point x="296" y="1480" type="line"/>
      <point x="293" y="1465"/>
      <point x="292" y="1451"/>
      <point x="292" y="1437" type="curve" smooth="yes"/>
      <point x="292" y="1334"/>
      <point x="362" y="1264"/>
      <point x="459" y="1264" type="curve" smooth="yes"/>
      <point x="569" y="1264"/>
      <point x="676" y="1354"/>
      <point x="698" y="1480" type="curve"/>
      <point x="743" y="1480" type="line"/>
      <point x="718" y="1340"/>
      <point x="584" y="1224"/>
    </contour>
  </outline>
</glyph>
<glyph name="ogonek" format="2">
  <advance width="520"/>
  <unicode hex="02DB"/>
  <outline>
    <contour>
      <point x="-54" y="-261" type="curve" smooth="yes"/>
      <point x="-54" y="-166"/>
      <point x="25" y="-83"/>
      <point x="149" y="0" type="curve"/>
      <point x="208" y="0" type="line"/>
      <point x="94" y="-81"/>
      <point x="-7" y="-164"/>
      <point x="-7" y="-248" type="curve" smooth="yes"/>
      <point x="-7" y="-284"/>
      <point x="10" y="-330"/>
      <point x="79" y="-330" type="curve" smooth="yes"/>
      <point x="131" y="-330"/>
      <point x="192" y="-290"/>
      <point x="199" y="-282" type="curve"/>
      <point x="214" y="-316" type="line"/>
      <point x="202" y="-327"/>
      <point x="128" y="-370"/>
      <point x="72" y="-370" type="curve" smooth="yes"/>
      <point x="-5" y="-370"/>
      <point x="-54" y="-331"/>
    </contour>
  </outline>
</glyph>
<glyph name="uni02DE" format="2">
  <advance width="699"/>
  <unicode hex="02DE"/>
  <outline>
    <contour>
      <point x="330" y="656" type="curve"/>
      <point x="375" y="686" type="line"/>
      <point x="370" y="659"/>
      <point x="368" y="633"/>
      <point x="368" y="610" type="curve" smooth="yes"/>
      <point x="368" y="501"/>
      <point x="419" y="438"/>
      <point x="514" y="438" type="curve" smooth="yes"/>
      <point x="518" y="438"/>
      <point x="522" y="438"/>
      <point x="526" y="439" type="curve"/>
      <point x="519" y="399" type="line"/>
      <point x="515" y="398"/>
      <point x="511" y="398"/>
      <point x="507" y="398" type="curve" smooth="yes"/>
      <point x="388" y="398"/>
      <point x="325" y="487"/>
      <point x="325" y="600" type="curve" smooth="yes"/>
      <point x="325" y="618"/>
      <point x="327" y="637"/>
    </contour>
    <contour>
      <point x="102" y="576" type="line"/>
      <point x="99" y="619" type="line"/>
      <point x="375" y="686" type="line"/>
      <point x="350" y="655" type="line"/>
      <point x="355" y="639" type="line"/>
    </contour>
  </outline>
</glyph>
<glyph name="uni02E1" format="2">
  <advance width="326"/>
  <unicode hex="02E1"/>
  <outline>
    <contour>
      <point x="272" y="1668" type="line"/>
      <point x="305" y="1668" type="line"/>
      <point x="178" y="949" type="line" smooth="yes"/>
      <point x="176" y="938"/>
      <point x="175" y="928"/>
      <point x="175" y="919" type="curve" smooth="yes"/>
      <point x="175" y="839"/>
      <point x="243" y="834"/>
      <point x="271" y="834" type="curve" smooth="yes"/>
      <point x="279" y="834"/>
      <point x="296" y="838"/>
      <point x="316" y="849" type="curve"/>
      <point x="317" y="822" type="line"/>
      <point x="300" y="809"/>
      <point x="281" y="804"/>
      <point x="264" y="804" type="curve" smooth="yes"/>
      <point x="186" y="804"/>
      <point x="141" y="833"/>
      <point x="141" y="905" type="curve" smooth="yes"/>
      <point x="141" y="916"/>
      <point x="142" y="929"/>
      <point x="144" y="943" type="curve" smooth="yes"/>
    </contour>
  </outline>
</glyph>
<glyph name="uni02E2" format="2">
  <advance width="612"/>
  <unicode hex="02E2"/>
  <outline>
    <contour>
      <point x="200" y="1231" type="curve" smooth="yes"/>
      <point x="200" y="1346"/>
      <point x="310" y="1419"/>
      <point x="431" y="1419" type="curve" smooth="yes"/>
      <point x="548" y="1419"/>
      <point x="605" y="1362"/>
      <point x="611" y="1275" type="curve"/>
      <point x="579" y="1262" type="line"/>
      <point x="572" y="1363"/>
      <point x="494" y="1389"/>
      <point x="426" y="1389" type="curve" smooth="yes"/>
      <point x="418" y="1389"/>
      <point x="235" y="1387"/>
      <point x="235" y="1239" type="curve" smooth="yes"/>
      <point x="235" y="1166"/>
      <point x="305" y="1146"/>
      <point x="381" y="1128" type="curve" smooth="yes"/>
      <point x="472" y="1107"/>
      <point x="571" y="1090"/>
      <point x="571" y="990" type="curve" smooth="yes"/>
      <point x="571" y="877"/>
      <point x="467" y="804"/>
      <point x="320" y="804" type="curve" smooth="yes"/>
      <point x="195" y="804"/>
      <point x="130" y="874"/>
      <point x="124" y="960" type="curve"/>
      <point x="154" y="973" type="line"/>
      <point x="161" y="877"/>
      <point x="247" y="834"/>
      <point x="326" y="834" type="curve" smooth="yes"/>
      <point x="441" y="834"/>
      <point x="536" y="885"/>
      <point x="536" y="981" type="curve" smooth="yes"/>
      <point x="536" y="1059"/>
      <point x="457" y="1079"/>
      <point x="375" y="1098" type="curve" smooth="yes"/>
      <point x="289" y="1118"/>
      <point x="200" y="1138"/>
    </contour>
  </outline>
</glyph>
<glyph name="uni0302" format="2">
  <advance width="0"/>
  <unicode hex="0302"/>
  <anchor x="825" y="1040" name="_mkmk_top_center"/>
  <anchor x="885" y="1376" name="mkmk_top_center"/>
  <anchor x="825" y="1040" name="_top_center"/>
  <outline>
    <contour>
      <point x="1028" y="1224" type="line"/>
      <point x="875" y="1480" type="line"/>
      <point x="931" y="1480" type="line"/>
      <point x="1072" y="1224" type="line"/>
    </contour>
    <contour>
      <point x="688" y="1224" type="line"/>
      <point x="644" y="1224" type="line"/>
      <point x="875" y="1480" type="line"/>
      <point x="931" y="1480" type="line"/>
    </contour>
  </outline>
</glyph>
<glyph name="uni0304" format="2">
  <advance width="0"/>
  <unicode hex="0304"/>
  <anchor x="885" y="1376" name="mkmk_top_center"/>
  <anchor x="825" y="1040" name="_mkmk_top_center"/>
  <anchor x="825" y="1040" name="_top_center"/>
  <outline>
    <contour>
      <point x="604" y="1305" type="line"/>
      <point x="611" y="1345" type="line"/>
      <point x="1147" y="1345" type="line"/>
      <point x="1140" y="1305" type="line"/>
    </contour>
  </outline>
</glyph>
<glyph name="uni0308" format="2">
  <advance width="0"/>
  <unicode hex="0308"/>
  <anchor x="893" y="1040" name="_mkmk_top_center"/>
  <anchor x="893" y="1376" name="mkmk_top_center"/>
  <anchor x="893" y="1040" name="_top_center"/>
  <outline>
    <contour>
      <point x="988" y="1426" type="curve" smooth="yes"/>
      <point x="988" y="1462"/>
      <point x="1016" y="1490"/>
      <point x="1052" y="1490" type="curve" smooth="yes"/>
      <point x="1088" y="1490"/>
      <point x="1116" y="1462"/>
      <point x="1116" y="1426" type="curve" smooth="yes"/>
      <point x="1116" y="1390"/>
      <point x="1088" y="1362"/>
      <point x="1052" y="1362" type="curve" smooth="yes"/>
      <point x="1016" y="1362"/>
      <point x="988" y="1390"/>
    </contour>
    <contour>
      <point x="668" y="1426" type="curve" smooth="yes"/>
      <point x="668" y="1462"/>
      <point x="696" y="1490"/>
      <point x="732" y="1490" type="curve" smooth="yes"/>
      <point x="768" y="1490"/>
      <point x="796" y="1462"/>
      <point x="796" y="1426" type="curve" smooth="yes"/>
      <point x="796" y="1390"/>
      <point x="768" y="1362"/>
      <point x="732" y="1362" type="curve" smooth="yes"/>
      <point x="696" y="1362"/>
      <point x="668" y="1390"/>
    </contour>
  </outline>
</glyph>
<glyph name="uni0314" format="2">
  <advance width="0"/>
  <unicode hex="0314"/>
  <anchor x="895" y="1436" name="mkmk_top_center"/>
  <anchor x="825" y="1040" name="_mkmk_top_center"/>
  <anchor x="825" y="1040" name="_top_center"/>
  <outline>
    <contour>
      <point x="852" y="1490" type="curve" smooth="yes"/>
      <point x="852" y="1526"/>
      <point x="880" y="1554"/>
      <point x="916" y="1554" type="curve" smooth="yes"/>
      <point x="952" y="1554"/>
      <point x="980" y="1526"/>
      <point x="980" y="1490" type="curve" smooth="yes"/>
      <point x="980" y="1454"/>
      <point x="952" y="1426"/>
      <point x="916" y="1426" type="curve" smooth="yes"/>
      <point x="880" y="1426"/>
      <point x="852" y="1454"/>
    </contour>
    <contour>
      <point x="908" y="1509" type="line"/>
      <point x="907" y="1508"/>
      <point x="832" y="1463"/>
      <point x="832" y="1365" type="curve" smooth="yes"/>
      <point x="832" y="1292"/>
      <point x="881" y="1243"/>
      <point x="923" y="1232" type="curve"/>
      <point x="904" y="1190" type="line"/>
      <point x="847" y="1208"/>
      <point x="786" y="1269"/>
      <point x="786" y="1359" type="curve" smooth="yes"/>
      <point x="786" y="1442"/>
      <point x="841" y="1554"/>
      <point x="916" y="1554" type="curve"/>
    </contour>
  </outline>
</glyph>
<glyph name="uni0326" format="2">
  <advance width="0"/>
  <unicode hex="0326"/>
  <anchor x="642" y="0" name="_mkmk_bottom_center"/>
  <anchor x="572" y="-395" name="mkmk_bottom_center"/>
  <anchor x="642" y="0" name="_bottom_center"/>
  <outline>
    <contour>
      <point x="555" y="-196" type="curve" smooth="yes"/>
      <point x="555" y="-160"/>
      <point x="583" y="-132"/>
      <point x="619" y="-132" type="curve" smooth="yes"/>
      <point x="655" y="-132"/>
      <point x="683" y="-180"/>
      <point x="683" y="-196" type="curve" smooth="yes"/>
      <point x="683" y="-232"/>
      <point x="655" y="-260"/>
      <point x="619" y="-260" type="curve" smooth="yes"/>
      <point x="583" y="-260"/>
      <point x="555" y="-232"/>
    </contour>
    <contour>
      <point x="498" y="-454" type="line"/>
      <point x="564" y="-438"/>
      <point x="646" y="-357"/>
      <point x="646" y="-261" type="curve" smooth="yes"/>
      <point x="646" y="-202"/>
      <point x="611" y="-177"/>
      <point x="611" y="-177" type="curve"/>
      <point x="619" y="-132" type="line"/>
      <point x="669" y="-132"/>
      <point x="694" y="-184"/>
      <point x="694" y="-246" type="curve" smooth="yes"/>
      <point x="694" y="-387"/>
      <point x="578" y="-475"/>
      <point x="503" y="-496" type="curve"/>
    </contour>
  </outline>
</glyph>
<glyph name="uni0329" format="2">
  <advance width="0"/>
  <unicode hex="0329"/>
  <anchor x="512" y="0" name="_bottom_center"/>
  <anchor x="477" y="-201" name="mkmk_bottom_center"/>
  <anchor x="512" y="0" name="_mkmk_bottom_center"/>
  <outline>
    <contour>
      <point x="442" y="-521" type="line"/>
      <point x="398" y="-521" type="line"/>
      <point x="443" y="-265" type="line"/>
      <point x="487" y="-265" type="line"/>
    </contour>
  </outline>
</glyph>
<glyph name="uni032D" format="2">
  <advance width="0"/>
  <unicode hex="032D"/>
  <anchor x="642" y="0" name="_mkmk_bottom_center"/>
  <anchor x="583" y="-336" name="mkmk_bottom_center"/>
  <anchor x="642" y="0" name="_bottom_center"/>
  <outline>
    <contour>
      <point x="734" y="-440" type="line"/>
      <point x="582" y="-184" type="line"/>
      <point x="638" y="-184" type="line"/>
      <point x="778" y="-440" type="line"/>
    </contour>
    <contour>
      <point x="394" y="-440" type="line"/>
      <point x="350" y="-440" type="line"/>
      <point x="582" y="-184" type="line"/>
      <point x="638" y="-184" type="line"/>
    </contour>
  </outline>
</glyph>
<glyph name="uni0332" format="2">
  <advance width="0"/>
  <unicode hex="0332"/>
  <anchor x="512" y="0" name="_mkmk_bottom_center"/>
  <anchor x="477" y="-201" name="mkmk_bottom_center"/>
  <anchor x="512" y="0" name="_bottom_center"/>
  <outline>
    <contour>
      <point x="56" y="-305" type="line"/>
      <point x="63" y="-265" type="line"/>
      <point x="867" y="-265" type="line"/>
      <point x="860" y="-305" type="line"/>
    </contour>
  </outline>
</glyph>
<glyph name="uni0337" format="2">
  <advance width="0"/>
  <unicode hex="0337"/>
  <anchor x="772" y="740" name="_middle_center"/>
  <outline>
    <contour>
      <point x="1239" y="1086" type="line"/>
      <point x="1266" y="1060" type="line"/>
      <point x="222" y="-46" type="line"/>
      <point x="195" y="-21" type="line"/>
    </contour>
  </outline>
</glyph>
<glyph name="uni0338" format="2">
  <advance width="0"/>
  <unicode hex="0338"/>
  <anchor x="772" y="740" name="_middle_center"/>
  <outline>
    <contour>
      <point x="1395" y="1526" type="line"/>
      <point x="1423" y="1502" type="line"/>
      <point x="-36" y="-46" type="line"/>
      <point x="-64" y="-22" type="line"/>
    </contour>
  </outline>
</glyph>
<glyph name="uni0370" format="2">
  <advance width="1092"/>
  <unicode hex="0370"/>
  <outline>
    <contour>
      <point x="230" y="761" type="line"/>
      <point x="916" y="761" type="line"/>
      <point x="909" y="719" type="line"/>
      <point x="223" y="719" type="line"/>
      <point x="96" y="0" type="line"/>
      <point x="50" y="0" type="line"/>
      <point x="311" y="1480" type="line"/>
      <point x="357" y="1480" type="line"/>
    </contour>
  </outline>
</glyph>
<glyph name="uni0372" format="2">
  <advance width="1344"/>
  <unicode hex="0372"/>
  <outline>
    <contour>
      <point x="1133" y="820" type="line"/>
      <point x="1242" y="1438" type="line"/>
      <point x="1288" y="1438" type="line"/>
      <point x="1179" y="820" type="line"/>
    </contour>
    <contour>
      <point x="195" y="820" type="line"/>
      <point x="304" y="1438" type="line"/>
      <point x="350" y="1438" type="line"/>
      <point x="241" y="820" type="line"/>
    </contour>
    <contour>
      <point x="565" y="0" type="line"/>
      <point x="519" y="0" type="line"/>
      <point x="773" y="1438" type="line"/>
      <point x="304" y="1438" type="line"/>
      <point x="311" y="1480" type="line"/>
      <point x="1295" y="1480" type="line"/>
      <point x="1288" y="1438" type="line"/>
      <point x="819" y="1438" type="line"/>
    </contour>
  </outline>
</glyph>
<glyph name="uni0376" format="2">
  <advance width="1344"/>
  <unicode hex="0376"/>
  <outline>
    <contour>
      <point x="1249" y="1480" type="line"/>
      <point x="112" y="90" type="line"/>
      <point x="357" y="1480" type="line"/>
      <point x="311" y="1480" type="line"/>
      <point x="50" y="0" type="line"/>
      <point x="96" y="0" type="line"/>
      <point x="1233" y="1390" type="line"/>
      <point x="988" y="0" type="line"/>
      <point x="1034" y="0" type="line"/>
      <point x="1295" y="1480" type="line"/>
    </contour>
  </outline>
</glyph>
<glyph name="uni0394" format="2">
  <advance width="1430"/>
  <unicode hex="0394"/>
  <anchor x="828" y="1380" name="top_center"/>
  <anchor x="585" y="0" name="bottom_center"/>
  <outline>
    <contour>
      <point x="50" y="0" type="line"/>
      <point x="1120" y="0" type="line"/>
      <point x="1127" y="42" type="line"/>
      <point x="1073" y="42" type="line"/>
      <point x="111" y="42" type="line"/>
      <point x="57" y="42" type="line"/>
    </contour>
    <contour>
      <point x="834" y="1408" type="line"/>
      <point x="1073" y="42" type="line"/>
      <point x="1127" y="42" type="line"/>
      <point x="871" y="1480" type="line"/>
      <point x="821" y="1480" type="line"/>
      <point x="57" y="42" type="line"/>
      <point x="111" y="42" type="line"/>
    </contour>
  </outline>
</glyph>
<glyph name="Xi" format="2">
  <advance width="1176"/>
  <unicode hex="039E"/>
  <anchor x="701" y="1380" name="top_center"/>
  <anchor x="458" y="0" name="bottom_center"/>
  <outline>
    <contour>
      <point x="311" y="1480" type="line"/>
      <point x="1127" y="1480" type="line"/>
      <point x="1120" y="1438" type="line"/>
      <point x="304" y="1438" type="line"/>
    </contour>
    <contour>
      <point x="267" y="761" type="line"/>
      <point x="917" y="761" type="line"/>
      <point x="910" y="719" type="line"/>
      <point x="260" y="719" type="line"/>
    </contour>
    <contour>
      <point x="57" y="42" type="line"/>
      <point x="873" y="42" type="line"/>
      <point x="866" y="0" type="line"/>
      <point x="50" y="0" type="line"/>
    </contour>
  </outline>
</glyph>
<glyph name="Pi" format="2">
  <advance width="1344"/>
  <unicode hex="03A0"/>
  <anchor x="785" y="1380" name="top_center"/>
  <anchor x="542" y="0" name="bottom_center"/>
  <outline>
    <contour>
      <point x="1295" y="1480" type="line"/>
      <point x="1034" y="0" type="line"/>
      <point x="988" y="0" type="line"/>
      <point x="1242" y="1438" type="line"/>
      <point x="350" y="1438" type="line"/>
      <point x="96" y="0" type="line"/>
      <point x="50" y="0" type="line"/>
      <point x="311" y="1480" type="line"/>
    </contour>
  </outline>
</glyph>
<glyph name="beta" format="2">
  <advance width="1186"/>
  <unicode hex="03B2"/>
  <anchor x="10" y="-360" name="bottom_center"/>
  <anchor x="686" y="1380" name="top_center"/>
  <outline>
    <contour>
      <point x="946" y="459" type="curve" smooth="yes"/>
      <point x="946" y="250"/>
      <point x="790" y="30"/>
      <point x="504" y="30" type="curve" smooth="yes"/>
      <point x="306" y="30"/>
      <point x="130" y="215"/>
      <point x="130" y="215" type="curve"/>
      <point x="98" y="174" type="line"/>
      <point x="98" y="174"/>
      <point x="253" y="-10"/>
      <point x="497" y="-10" type="curve" smooth="yes"/>
      <point x="890" y="-10"/>
      <point x="992" y="304"/>
      <point x="992" y="468" type="curve" smooth="yes"/>
      <point x="992" y="675"/>
      <point x="828" y="792"/>
      <point x="592" y="792" type="curve"/>
      <point x="585" y="752" type="line"/>
      <point x="745" y="752"/>
      <point x="946" y="673"/>
    </contour>
    <contour>
      <point x="504" y="792" type="line"/>
      <point x="497" y="752" type="line"/>
      <point x="585" y="752" type="line"/>
      <point x="592" y="792" type="line"/>
    </contour>
    <contour>
      <point x="605" y="759" type="line"/>
      <point x="829" y="759"/>
      <point x="1039" y="914"/>
      <point x="1039" y="1189" type="curve" smooth="yes"/>
      <point x="1039" y="1387"/>
      <point x="903" y="1490"/>
      <point x="706" y="1490" type="curve" smooth="yes"/>
      <point x="482" y="1490"/>
      <point x="289" y="1356"/>
      <point x="244" y="1101" type="curve" smooth="yes"/>
      <point x="-28" y="-440" type="line"/>
      <point x="17" y="-440" type="line"/>
      <point x="289" y="1101" type="line" smooth="yes"/>
      <point x="331" y="1341"/>
      <point x="519" y="1450"/>
      <point x="699" y="1450" type="curve" smooth="yes"/>
      <point x="858" y="1450"/>
      <point x="993" y="1365"/>
      <point x="993" y="1179" type="curve" smooth="yes"/>
      <point x="993" y="912"/>
      <point x="778" y="792"/>
      <point x="592" y="792" type="curve"/>
    </contour>
  </outline>
</glyph>
<glyph name="zeta" format="2">
  <advance width="1109"/>
  <unicode hex="03B6"/>
  <anchor x="373" y="0" name="bottom_center"/>
  <anchor x="616" y="1380" name="top_center"/>
  <outline>
    <contour>
      <point x="271" y="1480" type="line"/>
      <point x="997" y="1480" type="line"/>
      <point x="991" y="1444" type="line"/>
      <point x="927" y="1440" type="line"/>
      <point x="264" y="1440" type="line"/>
    </contour>
    <contour>
      <point x="124" y="340" type="curve" smooth="yes"/>
      <point x="124" y="157"/>
      <point x="233" y="41"/>
      <point x="505" y="40" type="curve" smooth="yes"/>
      <point x="702" y="40" type="line" smooth="yes"/>
      <point x="787" y="40"/>
      <point x="823" y="-22"/>
      <point x="823" y="-78" type="curve" smooth="yes"/>
      <point x="823" y="-88"/>
      <point x="821" y="-147"/>
      <point x="773" y="-190" type="curve"/>
      <point x="734" y="-179" type="line"/>
      <point x="756" y="-159"/>
      <point x="778" y="-128"/>
      <point x="778" y="-80" type="curve" smooth="yes"/>
      <point x="778" y="-32"/>
      <point x="744" y="0"/>
      <point x="685" y="0" type="curve" smooth="yes"/>
      <point x="498" y="0" type="line" smooth="yes"/>
      <point x="223" y="0"/>
      <point x="77" y="105"/>
      <point x="77" y="327" type="curve" smooth="yes"/>
      <point x="77" y="738"/>
      <point x="695" y="1260"/>
      <point x="927" y="1440" type="curve"/>
      <point x="991" y="1444" type="line"/>
      <point x="758" y="1261"/>
      <point x="124" y="724"/>
    </contour>
  </outline>
</glyph>
<glyph name="iota" format="2">
  <advance width="540"/>
  <unicode hex="03B9"/>
  <anchor x="256" y="1040" name="greek_v"/>
  <anchor x="256" y="1040" name="greek_kt"/>
  <anchor x="256" y="1040" name="greek_k"/>
  <anchor x="256" y="1040" name="greek_t"/>
  <anchor x="256" y="1040" name="top_center"/>
  <anchor x="182" y="0" name="bottom_center"/>
  <outline>
    <contour>
      <point x="233" y="1040" type="line"/>
      <point x="278" y="1040" type="line"/>
      <point x="136" y="230" type="line" smooth="yes"/>
      <point x="132" y="209"/>
      <point x="131" y="191"/>
      <point x="131" y="174" type="curve" smooth="yes"/>
      <point x="131" y="37"/>
      <point x="245" y="30"/>
      <point x="292" y="30" type="curve" smooth="yes"/>
      <point x="306" y="30"/>
      <point x="334" y="36"/>
      <point x="369" y="56" type="curve"/>
      <point x="372" y="14" type="line"/>
      <point x="344" y="-3"/>
      <point x="313" y="-10"/>
      <point x="285" y="-10" type="curve" smooth="yes"/>
      <point x="157" y="-10"/>
      <point x="84" y="41"/>
      <point x="84" y="161" type="curve" smooth="yes"/>
      <point x="84" y="182"/>
      <point x="87" y="205"/>
      <point x="91" y="230" type="curve" smooth="yes"/>
    </contour>
  </outline>
</glyph>
<glyph name="pi" format="2">
  <advance width="1164"/>
  <unicode hex="03C0"/>
  <anchor x="431" y="0" name="bottom_center"/>
  <anchor x="614" y="1040" name="top_center"/>
  <outline>
    <contour>
      <point x="378" y="1000" type="line"/>
      <point x="423" y="1000" type="line"/>
      <point x="247" y="0" type="line"/>
      <point x="202" y="0" type="line"/>
    </contour>
    <contour>
      <point x="839" y="1020" type="line"/>
      <point x="700" y="230" type="line" smooth="yes"/>
      <point x="696" y="209"/>
      <point x="695" y="191"/>
      <point x="695" y="174" type="curve" smooth="yes"/>
      <point x="695" y="37"/>
      <point x="809" y="30"/>
      <point x="856" y="30" type="curve" smooth="yes"/>
      <point x="870" y="30"/>
      <point x="898" y="36"/>
      <point x="933" y="56" type="curve"/>
      <point x="936" y="14" type="line"/>
      <point x="908" y="-3"/>
      <point x="877" y="-10"/>
      <point x="849" y="-10" type="curve" smooth="yes"/>
      <point x="721" y="-10"/>
      <point x="648" y="41"/>
      <point x="648" y="161" type="curve" smooth="yes"/>
      <point x="648" y="182"/>
      <point x="651" y="205"/>
      <point x="655" y="230" type="curve" smooth="yes"/>
      <point x="794" y="1020" type="line"/>
    </contour>
    <contour>
      <point x="1027" y="1000" type="line"/>
      <point x="186" y="1000" type="line"/>
      <point x="193" y="1040" type="line"/>
      <point x="1034" y="1040" type="line"/>
    </contour>
  </outline>
</glyph>
<glyph name="sigma" format="2">
  <advance width="1234"/>
  <unicode hex="03C3"/>
  <anchor x="640" y="1040" name="top_center"/>
  <anchor x="431" y="0" name="bottom_center"/>
  <outline>
    <contour>
      <point x="1147" y="1040" type="line"/>
      <point x="1140" y="1000" type="line"/>
      <point x="607" y="1000" type="line"/>
      <point x="614" y="1040" type="line"/>
    </contour>
    <contour>
      <point x="607" y="1000" type="curve" smooth="yes"/>
      <point x="349" y="1000"/>
      <point x="136" y="705"/>
      <point x="136" y="400" type="curve" smooth="yes"/>
      <point x="136" y="174"/>
      <point x="265" y="30"/>
      <point x="436" y="30" type="curve" smooth="yes"/>
      <point x="693" y="30"/>
      <point x="908" y="322"/>
      <point x="908" y="635" type="curve" smooth="yes"/>
      <point x="908" y="864"/>
      <point x="777" y="1000"/>
    </contour>
    <contour>
      <point x="89" y="383" type="curve" smooth="yes"/>
      <point x="89" y="701"/>
      <point x="296" y="1040"/>
      <point x="614" y="1040" type="curve" smooth="yes"/>
      <point x="824" y="1040"/>
      <point x="954" y="885"/>
      <point x="954" y="647" type="curve" smooth="yes"/>
      <point x="954" y="329"/>
      <point x="747" y="-10"/>
      <point x="429" y="-10" type="curve" smooth="yes"/>
      <point x="219" y="-10"/>
      <point x="89" y="145"/>
    </contour>
  </outline>
</glyph>
<glyph name="upsilon" format="2">
  <advance width="1090"/>
  <unicode hex="03C5"/>
  <anchor x="558" y="1040" name="greek_v"/>
  <anchor x="558" y="1040" name="greek_kt"/>
  <anchor x="558" y="1040" name="greek_k"/>
  <anchor x="558" y="1040" name="greek_t"/>
  <anchor x="435" y="0" name="bottom_center"/>
  <anchor x="558" y="1040" name="top_center"/>
  <outline>
    <contour>
      <point x="433" y="-10" type="curve" smooth="yes"/>
      <point x="242" y="-10"/>
      <point x="119" y="87"/>
      <point x="119" y="318" type="curve" smooth="yes"/>
      <point x="119" y="363"/>
      <point x="123" y="413"/>
      <point x="133" y="468" type="curve"/>
      <point x="233" y="1040" type="line"/>
      <point x="278" y="1040" type="line"/>
      <point x="178" y="468" type="line" smooth="yes"/>
      <point x="169" y="418"/>
      <point x="165" y="373"/>
      <point x="165" y="333" type="curve" smooth="yes"/>
      <point x="165" y="104"/>
      <point x="298" y="32"/>
      <point x="441" y="32" type="curve" smooth="yes"/>
      <point x="773" y="32"/>
      <point x="875" y="387"/>
      <point x="875" y="650" type="curve" smooth="yes"/>
      <point x="875" y="822"/>
      <point x="827" y="947"/>
      <point x="779" y="1029" type="curve"/>
      <point x="821" y="1051" type="line"/>
      <point x="865" y="981"/>
      <point x="921" y="853"/>
      <point x="921" y="662" type="curve" smooth="yes"/>
      <point x="921" y="547"/>
      <point x="897" y="-10"/>
    </contour>
  </outline>
</glyph>
<glyph name="uni03D0" format="2">
  <advance width="1190"/>
  <unicode hex="03D0"/>
  <outline>
    <contour>
      <point x="169" y="792" type="line"/>
      <point x="162" y="752" type="line"/>
      <point x="589" y="752" type="line"/>
      <point x="596" y="792" type="line"/>
    </contour>
    <contour>
      <point x="609" y="759" type="line"/>
      <point x="833" y="759"/>
      <point x="1043" y="914"/>
      <point x="1043" y="1189" type="curve" smooth="yes"/>
      <point x="1043" y="1387"/>
      <point x="907" y="1490"/>
      <point x="710" y="1490" type="curve" smooth="yes"/>
      <point x="307" y="1490"/>
      <point x="118" y="874"/>
      <point x="118" y="504" type="curve" smooth="yes"/>
      <point x="118" y="161"/>
      <point x="281" y="-10"/>
      <point x="485" y="-10" type="curve" smooth="yes"/>
      <point x="854" y="-10"/>
      <point x="996" y="265"/>
      <point x="996" y="468" type="curve" smooth="yes"/>
      <point x="996" y="675"/>
      <point x="832" y="792"/>
      <point x="596" y="792" type="curve"/>
      <point x="589" y="752" type="line"/>
      <point x="749" y="752"/>
      <point x="950" y="673"/>
      <point x="950" y="459" type="curve" smooth="yes"/>
      <point x="950" y="229"/>
      <point x="765" y="30"/>
      <point x="492" y="30" type="curve" smooth="yes"/>
      <point x="320" y="30"/>
      <point x="164" y="188"/>
      <point x="164" y="515" type="curve" smooth="yes"/>
      <point x="164" y="889"/>
      <point x="361" y="1450"/>
      <point x="703" y="1450" type="curve" smooth="yes"/>
      <point x="862" y="1450"/>
      <point x="997" y="1365"/>
      <point x="997" y="1179" type="curve" smooth="yes"/>
      <point x="997" y="912"/>
      <point x="782" y="792"/>
      <point x="596" y="792" type="curve"/>
    </contour>
  </outline>
</glyph>
<glyph name="uni03D7" format="2">
  <advance width="1358"/>
  <unicode hex="03D7"/>
  <outline>
    <contour>
      <point x="1154" y="1040" type="line"/>
      <point x="1073" y="957"/>
      <point x="806" y="652"/>
      <point x="806" y="295" type="curve" smooth="yes"/>
      <point x="806" y="132"/>
      <point x="868" y="30"/>
      <point x="1010" y="30" type="curve" smooth="yes"/>
      <point x="1024" y="30"/>
      <point x="1052" y="36"/>
      <point x="1087" y="56" type="curve"/>
      <point x="1090" y="14" type="line"/>
      <point x="1062" y="-3"/>
      <point x="1031" y="-10"/>
      <point x="1003" y="-10" type="curve" smooth="yes"/>
      <point x="820" y="-10"/>
      <point x="759" y="110"/>
      <point x="759" y="276" type="curve" smooth="yes"/>
      <point x="759" y="397"/>
      <point x="793" y="702"/>
      <point x="1094" y="1040" type="curve"/>
    </contour>
    <contour>
      <point x="127" y="0" type="line"/>
      <point x="208" y="83"/>
      <point x="475" y="388"/>
      <point x="475" y="745" type="curve" smooth="yes"/>
      <point x="475" y="908"/>
      <point x="413" y="1010"/>
      <point x="271" y="1010" type="curve" smooth="yes"/>
      <point x="257" y="1010"/>
      <point x="230" y="1004"/>
      <point x="195" y="984" type="curve"/>
      <point x="191" y="1026" type="line"/>
      <point x="219" y="1043"/>
      <point x="250" y="1050"/>
      <point x="278" y="1050" type="curve" smooth="yes"/>
      <point x="461" y="1050"/>
      <point x="522" y="930"/>
      <point x="522" y="764" type="curve" smooth="yes"/>
      <point x="522" y="643"/>
      <point x="488" y="338"/>
      <point x="187" y="0" type="curve"/>
    </contour>
    <contour>
      <point x="1047" y="20" type="curve"/>
      <point x="1090" y="14" type="line"/>
      <point x="1061" y="-187"/>
      <point x="892" y="-310"/>
      <point x="723" y="-310" type="curve" smooth="yes"/>
      <point x="719" y="-310"/>
      <point x="716" y="-310"/>
      <point x="712" y="-309" type="curve"/>
      <point x="719" y="-269" type="line"/>
      <point x="723" y="-270"/>
      <point x="726" y="-270"/>
      <point x="730" y="-270" type="curve" smooth="yes"/>
      <point x="799" y="-270"/>
      <point x="994" y="-246"/>
    </contour>
    <contour>
      <point x="1144" y="1040" type="line"/>
      <point x="202" y="0" type="line"/>
      <point x="157" y="0" type="line"/>
      <point x="1079" y="1040" type="line"/>
    </contour>
  </outline>
</glyph>
<glyph name="uni03DA" format="2">
  <advance width="1139"/>
  <unicode hex="03DA"/>
  <anchor x="475" y="0" name="bottom_center"/>
  <anchor x="722" y="1400" name="top_center"/>
  <outline>
    <contour>
      <point x="120" y="525" type="curve" smooth="yes"/>
      <point x="120" y="991"/>
      <point x="392" y="1480"/>
      <point x="791" y="1480" type="curve" smooth="yes"/>
      <point x="1103" y="1480" type="line"/>
      <point x="1096" y="1438" type="line"/>
      <point x="784" y="1438" type="line" smooth="yes"/>
      <point x="408" y="1438"/>
      <point x="167" y="957"/>
      <point x="167" y="539" type="curve" smooth="yes"/>
      <point x="167" y="199"/>
      <point x="351" y="42"/>
      <point x="536" y="42" type="curve" smooth="yes"/>
      <point x="732" y="42" type="line" smooth="yes"/>
      <point x="817" y="42"/>
      <point x="853" y="-23"/>
      <point x="853" y="-79" type="curve" smooth="yes"/>
      <point x="853" y="-89"/>
      <point x="851" y="-148"/>
      <point x="803" y="-191" type="curve"/>
      <point x="763" y="-180" type="line"/>
      <point x="786" y="-160"/>
      <point x="807" y="-129"/>
      <point x="807" y="-81" type="curve" smooth="yes"/>
      <point x="807" y="-33"/>
      <point x="774" y="0"/>
      <point x="715" y="0" type="curve" smooth="yes"/>
      <point x="529" y="0" type="line" smooth="yes"/>
      <point x="307" y="0"/>
      <point x="120" y="171"/>
    </contour>
  </outline>
</glyph>
<glyph name="uni03DB" format="2">
  <advance width="1101"/>
  <unicode hex="03DB"/>
  <anchor x="631" y="1040" name="top_center"/>
  <anchor x="448" y="0" name="bottom_center"/>
  <outline>
    <contour>
      <point x="90" y="389" type="curve" smooth="yes"/>
      <point x="90" y="730"/>
      <point x="323" y="1040"/>
      <point x="631" y="1040" type="curve" smooth="yes"/>
      <point x="939" y="1040" type="line"/>
      <point x="932" y="1000" type="line"/>
      <point x="624" y="1000" type="line" smooth="yes"/>
      <point x="382" y="1000"/>
      <point x="136" y="743"/>
      <point x="136" y="405" type="curve" smooth="yes"/>
      <point x="136" y="151"/>
      <point x="308" y="40"/>
      <point x="455" y="40" type="curve" smooth="yes"/>
      <point x="651" y="40" type="line" smooth="yes"/>
      <point x="736" y="40"/>
      <point x="772" y="-23"/>
      <point x="772" y="-79" type="curve" smooth="yes"/>
      <point x="772" y="-89"/>
      <point x="770" y="-148"/>
      <point x="722" y="-191" type="curve"/>
      <point x="683" y="-180" type="line"/>
      <point x="705" y="-160"/>
      <point x="727" y="-129"/>
      <point x="727" y="-81" type="curve" smooth="yes"/>
      <point x="727" y="-32"/>
      <point x="693" y="0"/>
      <point x="634" y="0" type="curve" smooth="yes"/>
      <point x="448" y="0" type="line" smooth="yes"/>
      <point x="221" y="0"/>
      <point x="90" y="151"/>
    </contour>
  </outline>
</glyph>
<glyph name="uni03DD" format="2">
  <advance width="871"/>
  <unicode hex="03DD"/>
  <outline>
    <contour>
      <point x="833" y="1000" type="line"/>
      <point x="504" y="1000" type="line"/>
      <point x="511" y="1040" type="line"/>
      <point x="840" y="1040" type="line"/>
    </contour>
    <contour>
      <point x="536" y="1180" type="curve" smooth="yes"/>
      <point x="511" y="1040" type="line"/>
      <point x="328" y="0" type="line"/>
      <point x="303" y="-140" type="line" smooth="yes"/>
      <point x="268" y="-340"/>
      <point x="182" y="-450"/>
      <point x="6" y="-450" type="curve" smooth="yes"/>
      <point x="-43" y="-450"/>
      <point x="-97" y="-436"/>
      <point x="-134" y="-418" type="curve"/>
      <point x="-112" y="-375" type="line"/>
      <point x="-78" y="-403"/>
      <point x="-25" y="-410"/>
      <point x="13" y="-410" type="curve" smooth="yes"/>
      <point x="103" y="-410"/>
      <point x="216" y="-380"/>
      <point x="258" y="-140" type="curve" smooth="yes"/>
      <point x="283" y="0" type="line"/>
      <point x="466" y="1040" type="line"/>
      <point x="491" y="1180" type="line" smooth="yes"/>
      <point x="526" y="1380"/>
      <point x="613" y="1490"/>
      <point x="789" y="1490" type="curve" smooth="yes"/>
      <point x="838" y="1490"/>
      <point x="891" y="1476"/>
      <point x="928" y="1458" type="curve"/>
      <point x="907" y="1415" type="line"/>
      <point x="873" y="1443"/>
      <point x="820" y="1450"/>
      <point x="782" y="1450" type="curve" smooth="yes"/>
      <point x="692" y="1450"/>
      <point x="578" y="1420"/>
    </contour>
  </outline>
</glyph>
<glyph name="uni03DF" format="2">
  <advance width="1028"/>
  <unicode hex="03DF"/>
  <outline>
    <contour>
      <point x="586" y="1480" type="line"/>
      <point x="188" y="756" type="line"/>
      <point x="237" y="760" type="line"/>
      <point x="634" y="1480" type="line"/>
    </contour>
    <contour>
      <point x="395" y="0" type="line"/>
      <point x="443" y="0" type="line"/>
      <point x="841" y="724" type="line"/>
      <point x="792" y="720" type="line"/>
    </contour>
    <contour>
      <point x="182" y="720" type="line"/>
      <point x="792" y="720" type="line"/>
      <point x="841" y="724" type="line"/>
      <point x="847" y="760" type="line"/>
      <point x="237" y="760" type="line"/>
      <point x="188" y="756" type="line"/>
    </contour>
  </outline>
</glyph>
<glyph name="uni03E6" format="2">
  <advance width="1436"/>
  <unicode hex="03E6"/>
  <outline>
    <contour>
      <point x="1085" y="469" type="curve" smooth="yes"/>
      <point x="1085" y="-17"/>
      <point x="731" y="-408"/>
      <point x="373" y="-408" type="curve" smooth="yes"/>
      <point x="-22" y="-408" type="line"/>
      <point x="-29" y="-450" type="line"/>
      <point x="366" y="-450" type="line" smooth="yes"/>
      <point x="794" y="-450"/>
      <point x="1131" y="3"/>
      <point x="1131" y="473" type="curve" smooth="yes"/>
      <point x="1131" y="818"/>
      <point x="930" y="1050"/>
      <point x="630" y="1050" type="curve" smooth="yes"/>
      <point x="400" y="1050"/>
      <point x="297" y="927"/>
      <point x="241" y="820" type="curve"/>
      <point x="357" y="1480" type="line"/>
      <point x="311" y="1480" type="line"/>
      <point x="50" y="0" type="line"/>
      <point x="96" y="0" type="line"/>
      <point x="197" y="572" type="line" smooth="yes"/>
      <point x="236" y="791"/>
      <point x="353" y="1008"/>
      <point x="623" y="1008" type="curve" smooth="yes"/>
      <point x="850" y="1008"/>
      <point x="1085" y="830"/>
    </contour>
  </outline>
</glyph>
<glyph name="uni03E9" format="2">
  <advance width="1178"/>
  <unicode hex="03E9"/>
  <outline>
    <contour>
      <point x="465" y="32" type="curve" smooth="yes"/>
      <point x="680" y="32"/>
      <point x="854" y="91"/>
      <point x="918" y="128" type="curve"/>
      <point x="923" y="84" type="line"/>
      <point x="860" y="47"/>
      <point x="697" y="-10"/>
      <point x="457" y="-10" type="curve" smooth="yes"/>
      <point x="219" y="-10"/>
      <point x="65" y="73"/>
      <point x="65" y="273" type="curve" smooth="yes"/>
      <point x="65" y="600"/>
      <point x="316" y="680"/>
      <point x="561" y="759" type="curve" smooth="yes"/>
      <point x="796" y="834"/>
      <point x="1027" y="908"/>
      <point x="1027" y="1196" type="curve" smooth="yes"/>
      <point x="1027" y="1381"/>
      <point x="879" y="1448"/>
      <point x="714" y="1448" type="curve" smooth="yes"/>
      <point x="489" y="1448"/>
      <point x="313" y="1329"/>
      <point x="272" y="1096" type="curve"/>
      <point x="229" y="1109" type="line"/>
      <point x="276" y="1347"/>
      <point x="461" y="1490"/>
      <point x="722" y="1490" type="curve" smooth="yes"/>
      <point x="947" y="1490"/>
      <point x="1073" y="1385"/>
      <point x="1073" y="1204" type="curve" smooth="yes"/>
      <point x="1073" y="879"/>
      <point x="823" y="798"/>
      <point x="577" y="720" type="curve" smooth="yes"/>
      <point x="342" y="645"/>
      <point x="113" y="573"/>
      <point x="113" y="289" type="curve" smooth="yes"/>
      <point x="113" y="93"/>
      <point x="290" y="32"/>
    </contour>
  </outline>
</glyph>
<glyph name="uni03EA" format="2">
  <advance width="1199"/>
  <unicode hex="03EA"/>
  <outline>
    <contour>
      <point x="1067" y="1490" type="curve" smooth="yes"/>
      <point x="1116" y="1490"/>
      <point x="1169" y="1476"/>
      <point x="1206" y="1458" type="curve"/>
      <point x="1184" y="1413" type="line"/>
      <point x="1150" y="1441"/>
      <point x="1097" y="1448"/>
      <point x="1059" y="1448" type="curve" smooth="yes"/>
      <point x="994" y="1448"/>
      <point x="936" y="1433"/>
      <point x="883" y="1334" type="curve" smooth="yes"/>
      <point x="665" y="931" type="line"/>
      <point x="860" y="42" type="line"/>
      <point x="853" y="0" type="line"/>
      <point x="85" y="0" type="line"/>
      <point x="92" y="42" type="line"/>
      <point x="602" y="931" type="line"/>
      <point x="526" y="1334" type="line" smooth="yes"/>
      <point x="507" y="1433"/>
      <point x="455" y="1448"/>
      <point x="390" y="1448" type="curve" smooth="yes"/>
      <point x="352" y="1448"/>
      <point x="297" y="1441"/>
      <point x="253" y="1413" type="curve"/>
      <point x="247" y="1458" type="line"/>
      <point x="290" y="1476"/>
      <point x="349" y="1490"/>
      <point x="398" y="1490" type="curve" smooth="yes"/>
      <point x="514" y="1490"/>
      <point x="554" y="1441"/>
      <point x="571" y="1352" type="curve" smooth="yes"/>
      <point x="642" y="980" type="line"/>
      <point x="844" y="1352" type="line" smooth="yes"/>
      <point x="892" y="1441"/>
      <point x="951" y="1490"/>
    </contour>
    <contour>
      <point x="624" y="879" type="line"/>
      <point x="141" y="42" type="line"/>
      <point x="812" y="42" type="line"/>
    </contour>
  </outline>
</glyph>
<glyph name="uni03EC" format="2">
  <advance width="1284"/>
  <unicode hex="03EC"/>
  <outline>
    <contour>
      <point x="113" y="480" type="curve" smooth="yes"/>
      <point x="113" y="760"/>
      <point x="260" y="1480"/>
      <point x="724" y="1480" type="curve" smooth="yes"/>
      <point x="866" y="1480"/>
      <point x="894" y="1412"/>
      <point x="1012" y="1412" type="curve" smooth="yes"/>
      <point x="1096" y="1412"/>
      <point x="1145" y="1422"/>
      <point x="1207" y="1480" type="curve"/>
      <point x="1221" y="1440" type="line"/>
      <point x="1172" y="1400"/>
      <point x="1098" y="1372"/>
      <point x="1005" y="1372" type="curve" smooth="yes"/>
      <point x="873" y="1372"/>
      <point x="835" y="1440"/>
      <point x="717" y="1440" type="curve" smooth="yes"/>
      <point x="314" y="1440"/>
      <point x="156" y="769"/>
      <point x="156" y="453" type="curve" smooth="yes"/>
      <point x="156" y="276"/>
      <point x="201" y="208"/>
      <point x="201" y="208" type="curve"/>
      <point x="163" y="184" type="line"/>
      <point x="163" y="184"/>
      <point x="113" y="278"/>
    </contour>
    <contour>
      <point x="689" y="940" type="curve" smooth="yes"/>
      <point x="421" y="940"/>
      <point x="166" y="696"/>
      <point x="166" y="382" type="curve" smooth="yes"/>
      <point x="166" y="179"/>
      <point x="285" y="32"/>
      <point x="529" y="32" type="curve" smooth="yes"/>
      <point x="875" y="32"/>
      <point x="1063" y="324"/>
      <point x="1063" y="584" type="curve" smooth="yes"/>
      <point x="1063" y="790"/>
      <point x="935" y="940"/>
    </contour>
    <contour>
      <point x="1110" y="595" type="curve" smooth="yes"/>
      <point x="1110" y="307"/>
      <point x="910" y="-10"/>
      <point x="521" y="-10" type="curve" smooth="yes"/>
      <point x="257" y="-10"/>
      <point x="127" y="140"/>
      <point x="127" y="366" type="curve" smooth="yes"/>
      <point x="127" y="404"/>
      <point x="131" y="444"/>
      <point x="138" y="486" type="curve"/>
      <point x="146" y="486" type="line"/>
      <point x="196" y="769"/>
      <point x="388" y="982"/>
      <point x="696" y="982" type="curve" smooth="yes"/>
      <point x="964" y="982"/>
      <point x="1110" y="827"/>
    </contour>
  </outline>
</glyph>
<glyph name="uni03EF" format="2">
  <advance width="998"/>
  <unicode hex="03EF"/>
  <outline>
    <contour>
      <point x="652" y="1480" type="line"/>
      <point x="574" y="1040" type="line"/>
      <point x="931" y="1040" type="line"/>
      <point x="875" y="720" type="line"/>
      <point x="830" y="720" type="line"/>
      <point x="879" y="1000" type="line"/>
      <point x="567" y="1000" type="line"/>
      <point x="313" y="-440" type="line"/>
      <point x="269" y="-440" type="line"/>
      <point x="523" y="1000" type="line"/>
      <point x="211" y="1000" type="line"/>
      <point x="162" y="720" type="line"/>
      <point x="117" y="720" type="line"/>
      <point x="173" y="1040" type="line"/>
      <point x="530" y="1040" type="line"/>
      <point x="608" y="1480" type="line"/>
    </contour>
  </outline>
</glyph>
<glyph name="uni03FB" format="2">
  <advance width="1250"/>
  <unicode hex="03FB"/>
  <outline>
    <contour>
      <point x="577" y="488" type="line"/>
      <point x="278" y="1040" type="line"/>
      <point x="250" y="987" type="line"/>
      <point x="546" y="442" type="line"/>
      <point x="592" y="442" type="line"/>
      <point x="1084" y="987" type="line"/>
      <point x="1078" y="1040" type="line"/>
    </contour>
    <contour>
      <point x="1123" y="1040" type="line"/>
      <point x="1078" y="1040" type="line"/>
      <point x="895" y="0" type="line"/>
      <point x="940" y="0" type="line"/>
    </contour>
    <contour>
      <point x="233" y="1040" type="line"/>
      <point x="-28" y="-440" type="line"/>
      <point x="17" y="-440" type="line"/>
      <point x="278" y="1040" type="line"/>
    </contour>
  </outline>
</glyph>
<glyph name="uni03FC" format="2">
  <advance width="1182"/>
  <unicode hex="03FC"/>
  <outline>
    <contour>
      <point x="418" y="-241" type="line"/>
      <point x="-172" y="-241" type="line"/>
      <point x="-165" y="-199" type="line"/>
      <point x="425" y="-199" type="line"/>
    </contour>
    <contour>
      <point x="1016" y="653" type="curve" smooth="yes"/>
      <point x="1016" y="331"/>
      <point x="805" y="-10"/>
      <point x="490" y="-10" type="curve" smooth="yes"/>
      <point x="290" y="-10"/>
      <point x="182" y="144"/>
      <point x="171" y="260" type="curve"/>
      <point x="47" y="-440" type="line"/>
      <point x="2" y="-440" type="line"/>
      <point x="172" y="522" type="line" smooth="yes"/>
      <point x="227" y="834"/>
      <point x="430" y="1050"/>
      <point x="677" y="1050" type="curve" smooth="yes"/>
      <point x="887" y="1050"/>
      <point x="1016" y="892"/>
    </contour>
    <contour>
      <point x="670" y="1010" type="curve" smooth="yes"/>
      <point x="413" y="1010"/>
      <point x="201" y="717"/>
      <point x="201" y="390" type="curve" smooth="yes"/>
      <point x="201" y="144"/>
      <point x="346" y="30"/>
      <point x="497" y="30" type="curve" smooth="yes"/>
      <point x="752" y="30"/>
      <point x="971" y="316"/>
      <point x="971" y="647" type="curve" smooth="yes"/>
      <point x="971" y="895"/>
      <point x="821" y="1010"/>
    </contour>
  </outline>
</glyph>
<glyph name="uni03FE" format="2">
  <advance width="1436"/>
  <unicode hex="03FE"/>
  <outline>
    <contour>
      <point x="693" y="740" type="curve" smooth="yes"/>
      <point x="693" y="776"/>
      <point x="722" y="804"/>
      <point x="758" y="804" type="curve" smooth="yes"/>
      <point x="794" y="804"/>
      <point x="821" y="776"/>
      <point x="821" y="740" type="curve" smooth="yes"/>
      <point x="821" y="704"/>
      <point x="793" y="676"/>
      <point x="757" y="676" type="curve" smooth="yes"/>
      <point x="721" y="676"/>
      <point x="693" y="704"/>
    </contour>
    <contour>
      <point x="124" y="567" type="curve" smooth="yes"/>
      <point x="124" y="1039"/>
      <point x="463" y="1490"/>
      <point x="890" y="1490" type="curve" smooth="yes"/>
      <point x="1125" y="1490"/>
      <point x="1299" y="1348"/>
      <point x="1363" y="1120" type="curve"/>
      <point x="1319" y="1097" type="line"/>
      <point x="1253" y="1332"/>
      <point x="1065" y="1448"/>
      <point x="882" y="1448" type="curve" smooth="yes"/>
      <point x="525" y="1448"/>
      <point x="170" y="1057"/>
      <point x="170" y="571" type="curve" smooth="yes"/>
      <point x="170" y="209"/>
      <point x="406" y="32"/>
      <point x="633" y="32" type="curve" smooth="yes"/>
      <point x="816" y="32"/>
      <point x="1046" y="148"/>
      <point x="1194" y="383" type="curve"/>
      <point x="1229" y="360" type="line"/>
      <point x="1085" y="132"/>
      <point x="860" y="-10"/>
      <point x="625" y="-10" type="curve" smooth="yes"/>
      <point x="325" y="-10"/>
      <point x="124" y="222"/>
    </contour>
  </outline>
</glyph>
<glyph name="uni0402" format="2">
  <advance width="1586"/>
  <unicode hex="0402"/>
  <outline>
    <contour>
      <point x="674" y="752" type="line"/>
      <point x="681" y="792" type="line"/>
      <point x="992" y="792" type="line"/>
      <point x="985" y="752" type="line"/>
    </contour>
    <contour>
      <point x="904" y="30" type="curve" smooth="yes"/>
      <point x="1190" y="30"/>
      <point x="1346" y="250"/>
      <point x="1346" y="459" type="curve" smooth="yes"/>
      <point x="1346" y="673"/>
      <point x="1145" y="752"/>
      <point x="985" y="752" type="curve"/>
      <point x="992" y="792" type="line"/>
      <point x="1228" y="792"/>
      <point x="1392" y="675"/>
      <point x="1392" y="468" type="curve" smooth="yes"/>
      <point x="1392" y="304"/>
      <point x="1290" y="-10"/>
      <point x="897" y="-10" type="curve" smooth="yes"/>
      <point x="845" y="-10"/>
      <point x="747" y="-4"/>
      <point x="708" y="17" type="curve"/>
      <point x="727" y="59" type="line"/>
      <point x="766" y="37"/>
      <point x="860" y="30"/>
    </contour>
    <contour>
      <point x="565" y="0" type="line"/>
      <point x="519" y="0" type="line"/>
      <point x="773" y="1438" type="line"/>
      <point x="304" y="1438" type="line"/>
      <point x="311" y="1480" type="line"/>
      <point x="1295" y="1480" type="line"/>
      <point x="1288" y="1438" type="line"/>
      <point x="819" y="1438" type="line"/>
    </contour>
  </outline>
</glyph>
<glyph name="uni0409" format="2">
  <advance width="1952"/>
  <unicode hex="0409"/>
  <outline>
    <contour>
      <point x="1756" y="458" type="curve" smooth="yes"/>
      <point x="1756" y="213"/>
      <point x="1565" y="0"/>
      <point x="1263" y="0" type="curve" smooth="yes"/>
      <point x="868" y="0" type="line"/>
      <point x="875" y="42" type="line"/>
      <point x="1270" y="42" type="line" smooth="yes"/>
      <point x="1543" y="42"/>
      <point x="1709" y="239"/>
      <point x="1709" y="445" type="curve" smooth="yes"/>
      <point x="1709" y="609"/>
      <point x="1590" y="718"/>
      <point x="1390" y="718" type="curve" smooth="yes"/>
      <point x="1001" y="718" type="line"/>
      <point x="1008" y="760" type="line"/>
      <point x="1397" y="760" type="line" smooth="yes"/>
      <point x="1597" y="760"/>
      <point x="1756" y="661"/>
    </contour>
    <contour>
      <point x="1155" y="1480" type="line"/>
      <point x="894" y="0" type="line"/>
      <point x="848" y="0" type="line"/>
      <point x="1102" y="1438" type="line"/>
      <point x="504" y="1438" type="line"/>
      <point x="277" y="520" type="line" smooth="yes"/>
      <point x="178" y="122"/>
      <point x="60" y="-10"/>
      <point x="-92" y="-10" type="curve"/>
      <point x="-84" y="35" type="line"/>
      <point x="61" y="35"/>
      <point x="154" y="221"/>
      <point x="229" y="520" type="curve" smooth="yes"/>
      <point x="468" y="1480" type="line"/>
    </contour>
  </outline>
</glyph>
<glyph name="uni0414" format="2">
  <advance width="1213"/>
  <unicode hex="0414"/>
  <anchor x="572" y="0" name="bottom_center"/>
  <anchor x="815" y="1380" name="top_center"/>
  <outline>
    <contour>
      <point x="-143" y="-300" type="line"/>
      <point x="-82" y="46" type="line"/>
      <point x="-36" y="46" type="line"/>
      <point x="-97" y="-300" type="line"/>
    </contour>
    <contour>
      <point x="944" y="-300" type="line"/>
      <point x="1005" y="46" type="line"/>
      <point x="1051" y="46" type="line"/>
      <point x="990" y="-300" type="line"/>
    </contour>
    <contour>
      <point x="-41" y="46" type="line"/>
      <point x="1033" y="46" type="line"/>
      <point x="1025" y="0" type="line"/>
      <point x="-49" y="0" type="line"/>
    </contour>
    <contour>
      <point x="1178" y="1480" type="line"/>
      <point x="917" y="0" type="line"/>
      <point x="871" y="0" type="line"/>
      <point x="1125" y="1438" type="line"/>
      <point x="527" y="1438" type="line"/>
      <point x="300" y="520" type="line" smooth="yes"/>
      <point x="204" y="121"/>
      <point x="85" y="0"/>
      <point x="-67" y="0" type="curve"/>
      <point x="-59" y="46" type="line"/>
      <point x="86" y="46"/>
      <point x="177" y="221"/>
      <point x="252" y="520" type="curve" smooth="yes"/>
      <point x="491" y="1480" type="line"/>
    </contour>
  </outline>
</glyph>
